<svg width="51" height="51" viewBox="0 0 51 51" fill="none" xmlns="http://www.w3.org/2000/svg">
<path d="M27.625 14.875H23.375V23.375H14.875V27.625H23.375V36.125H27.625V27.625H36.125V23.375H27.625V14.875ZM25.5 4.25C13.77 4.25 4.25 13.77 4.25 25.5C4.25 37.23 13.77 46.75 25.5 46.75C37.23 46.75 46.75 37.23 46.75 25.5C46.75 13.77 37.23 4.25 25.5 4.25ZM25.5 42.5C16.1287 42.5 8.5 34.8713 8.5 25.5C8.5 16.1287 16.1287 8.5 25.5 8.5C34.8713 8.5 42.5 16.1287 42.5 25.5C42.5 34.8713 34.8713 42.5 25.5 42.5Z" fill="#353434"/>
</svg>
