<svg width="30" height="22" viewBox="0 0 30 22" fill="none" xmlns="http://www.w3.org/2000/svg">
<path d="M17.9133 21.4081C17.5281 21.0135 17.3432 20.5366 17.3586 19.9776C17.3753 19.4185 17.5762 18.9417 17.9615 18.5471L23.4029 12.9731H1.92616C1.38042 12.9731 0.922633 12.7837 0.552809 12.4048C0.18427 12.0273 0 11.559 0 11C0 10.441 0.18427 9.97202 0.552809 9.59318C0.922633 9.21566 1.38042 9.02691 1.92616 9.02691H23.4029L17.9133 3.40359C17.5281 3.00897 17.3355 2.54003 17.3355 1.99677C17.3355 1.45483 17.5281 0.986547 17.9133 0.591928C18.2986 0.197309 18.7563 0 19.2867 0C19.8157 0 20.2729 0.197309 20.6581 0.591928L29.4703 9.61883C29.6629 9.81614 29.7997 10.0299 29.8806 10.2601C29.9602 10.4903 30 10.7369 30 11C30 11.2631 29.9602 11.5097 29.8806 11.7399C29.7997 11.9701 29.6629 12.1839 29.4703 12.3812L20.61 21.4574C20.2568 21.8191 19.8157 22 19.2867 22C18.7563 22 18.2986 21.8027 17.9133 21.4081Z" fill="#FA9A94"/>
</svg>
