<svg width="30" height="30" viewBox="0 0 30 30" fill="none" xmlns="http://www.w3.org/2000/svg">
<path d="M20.775 3.7375C20.6299 3.59199 20.4574 3.47654 20.2676 3.39777C20.0778 3.319 19.8743 3.27846 19.6688 3.27846C19.4632 3.27846 19.2597 3.319 19.0699 3.39777C18.8801 3.47654 18.7076 3.59199 18.5625 3.7375L8.175 14.125C8.05912 14.2406 7.96719 14.378 7.90446 14.5292C7.84174 14.6804 7.80945 14.8425 7.80945 15.0063C7.80945 15.17 7.84174 15.3321 7.90446 15.4833C7.96719 15.6345 8.05912 15.7719 8.175 15.8875L18.5625 26.275C19.175 26.8875 20.1625 26.8875 20.775 26.275C21.3875 25.6625 21.3875 24.675 20.775 24.0625L11.725 15L20.7875 5.9375C21.3875 5.3375 21.3875 4.3375 20.775 3.7375Z" fill="#4B4949"/>
</svg>
