<svg width="35" height="35" viewBox="0 0 35 35" fill="none" xmlns="http://www.w3.org/2000/svg">
<path d="M17.5 2.1875C8.96875 2.1875 2.1875 8.96875 2.1875 17.5C2.1875 26.0312 8.96875 32.8125 17.5 32.8125C26.0312 32.8125 32.8125 26.0312 32.8125 17.5C32.8125 8.96875 26.0312 2.1875 17.5 2.1875ZM17.5 30.625C10.2812 30.625 4.375 24.7188 4.375 17.5C4.375 10.2812 10.2812 4.375 17.5 4.375C24.7188 4.375 30.625 10.2812 30.625 17.5C30.625 24.7188 24.7188 30.625 17.5 30.625Z" fill="black"/>
<path d="M23.4062 25.1562L17.5 19.25L11.5938 25.1562L9.84375 23.4062L15.75 17.5L9.84375 11.5938L11.5938 9.84375L17.5 15.75L23.4062 9.84375L25.1562 11.5938L19.25 17.5L25.1562 23.4062L23.4062 25.1562Z" fill="black"/>
</svg>
