<svg width="111" height="49" viewBox="0 0 111 49" fill="none" xmlns="http://www.w3.org/2000/svg">
<path d="M42.6424 47V38.2727H43.9592V45.8665H47.9137V47H42.6424ZM49.3136 47V40.4545H50.5877V47H49.3136ZM49.957 39.4446C49.7354 39.4446 49.5451 39.3707 49.386 39.223C49.2298 39.0724 49.1516 38.8935 49.1516 38.6861C49.1516 38.4759 49.2298 38.2969 49.386 38.1491C49.5451 37.9986 49.7354 37.9233 49.957 37.9233C50.1786 37.9233 50.3675 37.9986 50.5238 38.1491C50.6829 38.2969 50.7624 38.4759 50.7624 38.6861C50.7624 38.8935 50.6829 39.0724 50.5238 39.223C50.3675 39.3707 50.1786 39.4446 49.957 39.4446ZM57.2067 42.0526L56.0518 42.2571C56.0036 42.1094 55.9268 41.9687 55.8217 41.8352C55.7195 41.7017 55.5803 41.5923 55.4041 41.5071C55.228 41.4219 55.0078 41.3793 54.7436 41.3793C54.3828 41.3793 54.0817 41.4602 53.8402 41.6222C53.5987 41.7812 53.478 41.9872 53.478 42.2401C53.478 42.4588 53.5589 42.6349 53.7209 42.7685C53.8828 42.902 54.1442 43.0114 54.505 43.0966L55.5447 43.3352C56.147 43.4744 56.5959 43.6889 56.8913 43.9787C57.1868 44.2685 57.3345 44.6449 57.3345 45.108C57.3345 45.5 57.2209 45.8494 56.9936 46.1562C56.7692 46.4602 56.4553 46.6989 56.0518 46.8722C55.6513 47.0455 55.1868 47.1321 54.6584 47.1321C53.9254 47.1321 53.3274 46.9759 52.8643 46.6634C52.4013 46.348 52.1172 45.9006 52.0121 45.321L53.2436 45.1335C53.3203 45.4545 53.478 45.6974 53.7166 45.8622C53.9553 46.0241 54.2663 46.1051 54.6499 46.1051C55.0675 46.1051 55.4013 46.0185 55.6513 45.8452C55.9013 45.669 56.0263 45.4545 56.0263 45.2017C56.0263 44.9972 55.9496 44.8253 55.7962 44.6861C55.6456 44.5469 55.4141 44.4418 55.1016 44.3707L53.9936 44.1278C53.3828 43.9886 52.9311 43.767 52.6385 43.4631C52.3487 43.1591 52.2038 42.7741 52.2038 42.3082C52.2038 41.9219 52.3118 41.5838 52.5277 41.294C52.7436 41.0043 53.0419 40.7784 53.4226 40.6165C53.8033 40.4517 54.2393 40.3693 54.7308 40.3693C55.4382 40.3693 55.995 40.5227 56.4013 40.8295C56.8075 41.1335 57.076 41.5412 57.2067 42.0526ZM61.7908 40.4545V41.4773H58.2156V40.4545H61.7908ZM59.1744 38.8864H60.4485V45.0781C60.4485 45.3253 60.4854 45.5114 60.5593 45.6364C60.6332 45.7585 60.7283 45.8423 60.8448 45.8878C60.9641 45.9304 61.0934 45.9517 61.2326 45.9517C61.3349 45.9517 61.4244 45.9446 61.5011 45.9304C61.5778 45.9162 61.6374 45.9048 61.68 45.8963L61.9102 46.9489C61.8363 46.9773 61.7312 47.0057 61.5948 47.0341C61.4585 47.0653 61.288 47.0824 61.0835 47.0852C60.7482 47.0909 60.4357 47.0312 60.146 46.9062C59.8562 46.7812 59.6218 46.5881 59.4428 46.3267C59.2638 46.0653 59.1744 45.7372 59.1744 45.3423V38.8864ZM65.951 47.1321C65.3061 47.1321 64.7507 46.9943 64.2848 46.7188C63.8217 46.4403 63.4638 46.0497 63.2109 45.5469C62.9609 45.0412 62.8359 44.4489 62.8359 43.7699C62.8359 43.0994 62.9609 42.5085 63.2109 41.9972C63.4638 41.4858 63.8161 41.0866 64.2678 40.7997C64.7223 40.5128 65.2536 40.3693 65.8615 40.3693C66.2308 40.3693 66.5888 40.4304 66.9354 40.5526C67.282 40.6747 67.593 40.8665 67.8686 41.1278C68.1442 41.3892 68.3615 41.7287 68.5206 42.1463C68.6797 42.5611 68.7592 43.0653 68.7592 43.6591V44.1108H63.5561V43.1562H67.5107C67.5107 42.821 67.4425 42.5241 67.3061 42.2656C67.1697 42.0043 66.978 41.7983 66.7308 41.6477C66.4865 41.4972 66.1996 41.4219 65.87 41.4219C65.5121 41.4219 65.1996 41.5099 64.9325 41.6861C64.6683 41.8594 64.4638 42.0866 64.3189 42.3679C64.1768 42.6463 64.1058 42.9489 64.1058 43.2756V44.0213C64.1058 44.4588 64.1825 44.831 64.3359 45.1378C64.4922 45.4446 64.7095 45.679 64.9879 45.8409C65.2663 46 65.5916 46.0795 65.9638 46.0795C66.2053 46.0795 66.4254 46.0455 66.6243 45.9773C66.8232 45.9062 66.995 45.8011 67.1399 45.6619C67.2848 45.5227 67.3956 45.3509 67.4723 45.1463L68.6783 45.3636C68.5817 45.7187 68.4084 46.0298 68.1584 46.2969C67.9112 46.5611 67.6001 46.767 67.2251 46.9148C66.853 47.0597 66.4283 47.1321 65.951 47.1321Z" fill="#787777"/>
<path d="M45 2.44737C45 2.01465 45.1756 1.59965 45.4882 1.29367C45.8007 0.987688 46.2246 0.815789 46.6667 0.815789H73.3333C73.7754 0.815789 74.1993 0.987688 74.5118 1.29367C74.8244 1.59965 75 2.01465 75 2.44737C75 2.88009 74.8244 3.29509 74.5118 3.60107C74.1993 3.90705 73.7754 4.07895 73.3333 4.07895H46.6667C46.2246 4.07895 45.8007 3.90705 45.4882 3.60107C45.1756 3.29509 45 2.88009 45 2.44737ZM73.3333 13.8684H46.6667C46.2246 13.8684 45.8007 14.0403 45.4882 14.3463C45.1756 14.6523 45 15.0673 45 15.5C45 15.9327 45.1756 16.3477 45.4882 16.6537C45.8007 16.9597 46.2246 17.1316 46.6667 17.1316H73.3333C73.7754 17.1316 74.1993 16.9597 74.5118 16.6537C74.8244 16.3477 75 15.9327 75 15.5C75 15.0673 74.8244 14.6523 74.5118 14.3463C74.1993 14.0403 73.7754 13.8684 73.3333 13.8684ZM73.3333 26.9211H46.6667C46.2246 26.9211 45.8007 27.0929 45.4882 27.3989C45.1756 27.7049 45 28.1199 45 28.5526C45 28.9854 45.1756 29.4004 45.4882 29.7063C45.8007 30.0123 46.2246 30.1842 46.6667 30.1842H73.3333C73.7754 30.1842 74.1993 30.0123 74.5118 29.7063C74.8244 29.4004 75 28.9854 75 28.5526C75 28.1199 74.8244 27.7049 74.5118 27.3989C74.1993 27.0929 73.7754 26.9211 73.3333 26.9211ZM37.5 0C37.0055 0 36.5222 0.143536 36.1111 0.412456C35.7 0.681376 35.3795 1.0636 35.1903 1.5108C35.0011 1.958 34.9516 2.45008 35.048 2.92483C35.1445 3.39957 35.3826 3.83565 35.7322 4.17792C36.0819 4.52019 36.5273 4.75328 37.0123 4.84771C37.4972 4.94214 37.9999 4.89368 38.4567 4.70844C38.9135 4.52321 39.304 4.20952 39.5787 3.80705C39.8534 3.40459 40 2.93141 40 2.44737C40 1.79829 39.7366 1.17579 39.2678 0.716817C38.7989 0.257847 38.163 0 37.5 0ZM37.5 13.0526C37.0055 13.0526 36.5222 13.1962 36.1111 13.4651C35.7 13.734 35.3795 14.1162 35.1903 14.5634C35.0011 15.0106 34.9516 15.5027 35.048 15.9775C35.1445 16.4522 35.3826 16.8883 35.7322 17.2305C36.0819 17.5728 36.5273 17.8059 37.0123 17.9003C37.4972 17.9948 37.9999 17.9463 38.4567 17.7611C38.9135 17.5758 39.304 17.2622 39.5787 16.8597C39.8534 16.4572 40 15.984 40 15.5C40 14.8509 39.7366 14.2284 39.2678 13.7694C38.7989 13.3105 38.163 13.0526 37.5 13.0526ZM37.5 26.1053C37.0055 26.1053 36.5222 26.2488 36.1111 26.5177C35.7 26.7866 35.3795 27.1689 35.1903 27.6161C35.0011 28.0633 34.9516 28.5553 35.048 29.0301C35.1445 29.5048 35.3826 29.9409 35.7322 30.2832C36.0819 30.6255 36.5273 30.8585 37.0123 30.953C37.4972 31.0474 37.9999 30.9989 38.4567 30.8137C38.9135 30.6285 39.304 30.3148 39.5787 29.9123C39.8534 29.5098 40 29.0367 40 28.5526C40 27.9035 39.7366 27.2811 39.2678 26.8221C38.7989 26.3631 38.163 26.1053 37.5 26.1053Z" fill="#787777"/>
</svg>
