<svg width="18" height="29" viewBox="0 0 18 29" fill="none" xmlns="http://www.w3.org/2000/svg">
<path d="M7.63224 27.0334L7.63224 16.9017C6.81808 16.8112 6.01146 16.5775 5.21238 16.2006C4.4133 15.8236 3.68207 15.3035 3.01868 14.6401C1.37528 12.9967 0.553586 11.037 0.553586 8.76097C0.553586 6.48374 1.37528 4.52343 3.01868 2.88003C4.66207 1.23664 6.62238 0.414943 8.89962 0.414943C11.1756 0.414943 13.1354 1.23664 14.7787 2.88003C16.4221 4.52343 17.2441 6.48344 17.2447 8.76007C17.2441 11.0367 16.4221 12.9967 14.7787 14.6401C14.1154 15.3035 13.3841 15.8236 12.585 16.2006C11.786 16.5775 10.9793 16.8112 10.1652 16.9017L10.1652 27.0786C10.1652 27.4103 10.0446 27.6968 9.80333 27.938C9.5621 28.1793 9.26056 28.2999 8.89871 28.2999C8.56702 28.2999 8.27302 28.1717 8.01671 27.9154C7.7604 27.6591 7.63224 27.3651 7.63224 27.0334V27.0334ZM4.82792 12.8309C5.95869 13.9616 7.31563 14.5273 8.89871 14.5279C10.4818 14.5273 11.8387 13.9616 12.9695 12.8309C14.1003 11.7001 14.666 10.3432 14.6666 8.76007C14.666 7.17698 14.1003 5.82005 12.9695 4.68928C11.8387 3.5585 10.4818 2.99281 8.89871 2.99221C7.31563 2.99281 5.95869 3.5585 4.82792 4.68928C3.69714 5.82005 3.13145 7.17698 3.13085 8.76007C3.13145 10.3432 3.69714 11.7001 4.82792 12.8309Z" fill="#787777"/>
</svg>
