<svg width="111" height="50" viewBox="0 0 111 50" fill="none" xmlns="http://www.w3.org/2000/svg">
<path d="M43.9549 38.2727H45.5529L48.3313 45.0568H48.4336L51.212 38.2727H52.81V47H51.5572V40.6847H51.4762L48.9023 46.9872H47.8626L45.2887 40.6804H45.2077V47H43.9549V38.2727ZM56.527 47.1449C56.1122 47.1449 55.7372 47.0682 55.402 46.9148C55.0668 46.7585 54.8011 46.5327 54.6051 46.2372C54.4119 45.9418 54.3153 45.5795 54.3153 45.1506C54.3153 44.7812 54.3864 44.4773 54.5284 44.2386C54.6705 44 54.8622 43.8111 55.1037 43.6719C55.3452 43.5327 55.6151 43.4276 55.9134 43.3565C56.2116 43.2855 56.5156 43.2315 56.8253 43.1946C57.2173 43.1491 57.5355 43.1122 57.7798 43.0838C58.0241 43.0526 58.2017 43.0028 58.3125 42.9347C58.4233 42.8665 58.4787 42.7557 58.4787 42.6023V42.5724C58.4787 42.2003 58.3736 41.9119 58.1634 41.7074C57.956 41.5028 57.6463 41.4006 57.2344 41.4006C56.8054 41.4006 56.4673 41.4957 56.2202 41.6861C55.9759 41.8736 55.8068 42.0824 55.7131 42.3125L54.5156 42.0398C54.6577 41.642 54.8651 41.321 55.1378 41.0767C55.4134 40.8295 55.7301 40.6506 56.0881 40.5398C56.446 40.4261 56.8224 40.3693 57.2173 40.3693C57.4787 40.3693 57.7557 40.4006 58.0483 40.4631C58.3438 40.5227 58.6193 40.6335 58.875 40.7955C59.1335 40.9574 59.3452 41.1889 59.5099 41.4901C59.6747 41.7884 59.7571 42.1761 59.7571 42.6534V47H58.5128V46.1051H58.4616C58.3793 46.2699 58.2557 46.4318 58.0909 46.5909C57.9261 46.75 57.7145 46.8821 57.456 46.9872C57.1974 47.0923 56.8878 47.1449 56.527 47.1449ZM56.804 46.1222C57.1563 46.1222 57.4574 46.0526 57.7074 45.9134C57.9602 45.7741 58.152 45.5923 58.2827 45.3679C58.4162 45.1406 58.483 44.8977 58.483 44.6392V43.7955C58.4375 43.8409 58.3494 43.8835 58.2188 43.9233C58.0909 43.9602 57.9446 43.9929 57.7798 44.0213C57.6151 44.0469 57.4545 44.071 57.2983 44.0938C57.142 44.1136 57.0114 44.1307 56.9062 44.1449C56.6591 44.1761 56.4332 44.2287 56.2287 44.3026C56.027 44.3764 55.8651 44.483 55.7429 44.6222C55.6236 44.7585 55.5639 44.9403 55.5639 45.1676C55.5639 45.483 55.6804 45.7216 55.9134 45.8835C56.1463 46.0426 56.4432 46.1222 56.804 46.1222ZM61.4542 49.4545V40.4545H62.6985V41.5156H62.805C62.8789 41.3793 62.9854 41.2216 63.1246 41.0426C63.2638 40.8636 63.457 40.7074 63.7042 40.5739C63.9513 40.4375 64.2781 40.3693 64.6843 40.3693C65.2127 40.3693 65.6843 40.5028 66.0991 40.7699C66.5138 41.0369 66.8391 41.4219 67.0749 41.9247C67.3136 42.4276 67.4329 43.0327 67.4329 43.7401C67.4329 44.4474 67.315 45.054 67.0792 45.5597C66.8434 46.0625 66.5195 46.4503 66.1076 46.723C65.6957 46.9929 65.2255 47.1278 64.6971 47.1278C64.2994 47.1278 63.9741 47.0611 63.7212 46.9276C63.4712 46.794 63.2752 46.6378 63.1332 46.4588C62.9911 46.2798 62.8817 46.1207 62.805 45.9815H62.7283V49.4545H61.4542ZM62.7028 43.7273C62.7028 44.1875 62.7695 44.5909 62.9031 44.9375C63.0366 45.2841 63.2298 45.5554 63.4826 45.7514C63.7354 45.9446 64.0451 46.0412 64.4116 46.0412C64.7923 46.0412 65.1104 45.9403 65.3661 45.7386C65.6218 45.5341 65.815 45.2571 65.9457 44.9077C66.0792 44.5582 66.146 44.1648 66.146 43.7273C66.146 43.2955 66.0806 42.9077 65.9499 42.5639C65.8221 42.2202 65.6289 41.9489 65.3704 41.75C65.1147 41.5511 64.7951 41.4517 64.4116 41.4517C64.0423 41.4517 63.7298 41.5469 63.4741 41.7372C63.2212 41.9276 63.0295 42.1932 62.8988 42.5341C62.7681 42.875 62.7028 43.2727 62.7028 43.7273Z" fill="#787777"/>
<path d="M61.1778 30.8026L51.6667 27.5329L43.4 30.6718C42.8074 30.9043 42.2593 30.8386 41.7556 30.4747C41.2519 30.112 41 29.6255 41 29.0152V4.60198C41 4.22415 41.1114 3.88992 41.3342 3.59929C41.5559 3.30866 41.8593 3.09068 42.2444 2.94537L50.5111 0.198882C50.8963 0.0826288 51.2815 0.0169458 51.6667 0.0018329C52.0519 -0.0121175 52.437 0.0535655 52.8222 0.198882L62.3333 3.46851L70.6 0.329667C71.1926 0.0971605 71.7407 0.162262 72.2444 0.524973C72.7481 0.888845 73 1.37595 73 1.98628V26.3995C73 26.7773 72.8886 27.1115 72.6658 27.4022C72.4441 27.6928 72.1407 27.9108 71.7556 28.0561L63.4889 30.8026C63.1037 30.9188 62.7185 30.9839 62.3333 30.9979C61.9481 31.013 61.563 30.9479 61.1778 30.8026ZM60.5556 26.9226V6.52015L53.4444 4.07884V24.4813L60.5556 26.9226ZM64.1111 26.9226L69.4444 25.1788V4.51479L64.1111 6.52015V26.9226ZM44.5556 26.4867L49.8889 24.4813V4.07884L44.5556 5.82263V26.4867Z" fill="#787777"/>
</svg>
