<svg width="48" height="48" viewBox="0 0 48 48" fill="none" xmlns="http://www.w3.org/2000/svg">
<g clip-path="url(#clip0_491_93)">
<path d="M23.75 0.142822C14.4896 0.142822 7 7.63247 7 16.8928C7 29.4553 23.75 48 23.75 48C23.75 48 40.5 29.4553 40.5 16.8928C40.5 7.63247 33.0104 0.142822 23.75 0.142822ZM23.75 22.875C20.4479 22.875 17.7679 20.195 17.7679 16.8928C17.7679 13.5907 20.4479 10.9107 23.75 10.9107C27.0521 10.9107 29.7321 13.5907 29.7321 16.8928C29.7321 20.195 27.0521 22.875 23.75 22.875Z" fill="#365897"/>
<ellipse cx="24.3482" cy="16.8928" rx="6.58036" ry="7.17857" fill="#365897"/>
<path d="M15.0625 16.9375C14.8802 16.9375 14.7053 16.8651 14.5764 16.7361C14.4474 16.6072 14.375 16.4323 14.375 16.25C14.375 16.0677 14.4474 15.8928 14.5764 15.7639C14.7053 15.6349 14.8802 15.5625 15.0625 15.5625H23.3125C23.5635 15.5623 23.8097 15.4934 24.0243 15.3633C24.2389 15.2332 24.4139 15.0468 24.5301 14.8243C24.6464 14.6019 24.6995 14.3518 24.6838 14.1013C24.668 13.8508 24.584 13.6094 24.4409 13.4032C24.2977 13.197 24.1008 13.034 23.8716 12.9318C23.6423 12.8295 23.3895 12.792 23.1404 12.8232C22.8914 12.8544 22.6556 12.9532 22.4587 13.1089C22.2618 13.2645 22.1113 13.4711 22.0234 13.7063C21.9961 13.7956 21.9508 13.8784 21.8904 13.9496C21.8299 14.0208 21.7556 14.079 21.6719 14.1206C21.5883 14.1621 21.497 14.1862 21.4037 14.1913C21.3105 14.1964 21.2171 14.1825 21.1294 14.1503C21.0417 14.1182 20.9615 14.0685 20.8936 14.0043C20.8258 13.9401 20.7717 13.8627 20.7347 13.7769C20.6978 13.6911 20.6787 13.5987 20.6786 13.5053C20.6785 13.4119 20.6975 13.3194 20.7344 13.2336C20.9087 12.7623 21.2088 12.3477 21.6022 12.035C21.9955 11.7222 22.4671 11.5232 22.9655 11.4596C23.464 11.396 23.9704 11.4702 24.4297 11.6742C24.889 11.8781 25.2836 12.204 25.5707 12.6165C25.8578 13.0289 26.0264 13.5121 26.0581 14.0137C26.0899 14.5152 25.9836 15.0158 25.7509 15.4612C25.5181 15.9066 25.1678 16.2797 24.7379 16.5399C24.308 16.8002 23.815 16.9377 23.3125 16.9375H15.0625ZM26.0625 21.0625H16.4375C16.2552 21.0625 16.0803 21.1349 15.9514 21.2639C15.8224 21.3928 15.75 21.5677 15.75 21.75C15.75 21.9323 15.8224 22.1072 15.9514 22.2361C16.0803 22.3651 16.2552 22.4375 16.4375 22.4375H26.0625C26.3135 22.4377 26.5597 22.5066 26.7743 22.6367C26.9889 22.7668 27.1639 22.9532 27.2801 23.1757C27.3964 23.3981 27.4495 23.6482 27.4338 23.8987C27.418 24.1492 27.334 24.3906 27.1909 24.5968C27.0477 24.803 26.8508 24.966 26.6216 25.0682C26.3923 25.1705 26.1395 25.208 25.8904 25.1768C25.6414 25.1456 25.4056 25.0468 25.2087 24.8911C25.0118 24.7355 24.8613 24.5289 24.7734 24.2938C24.7461 24.2044 24.7008 24.1216 24.6404 24.0504C24.5799 23.9792 24.5056 23.921 24.4219 23.8794C24.3383 23.8379 24.247 23.8138 24.1537 23.8087C24.0605 23.8036 23.9671 23.8175 23.8794 23.8497C23.7917 23.8818 23.7115 23.9315 23.6436 23.9957C23.5758 24.0599 23.5217 24.1373 23.4847 24.2231C23.4478 24.3089 23.4287 24.4013 23.4286 24.4947C23.4285 24.5881 23.4475 24.6806 23.4844 24.7664C23.6587 25.2377 23.9588 25.6523 24.3522 25.965C24.7455 26.2778 25.2171 26.4768 25.7155 26.5404C26.214 26.604 26.7204 26.5298 27.1797 26.3258C27.639 26.1219 28.0336 25.796 28.3207 25.3835C28.6078 24.9711 28.7764 24.4879 28.8081 23.9863C28.8399 23.4848 28.7336 22.9842 28.5009 22.5388C28.2681 22.0934 27.9178 21.7203 27.4879 21.4601C27.058 21.1998 26.565 21.0623 26.0625 21.0625V21.0625ZM30.875 14.1875C30.3136 14.1889 29.7659 14.3617 29.3052 14.6826C28.8446 15.0036 28.4928 15.4574 28.2969 15.9836C28.26 16.0694 28.241 16.1619 28.2411 16.2553C28.2412 16.3487 28.2603 16.4411 28.2972 16.5269C28.3342 16.6127 28.3883 16.6901 28.4561 16.7543C28.524 16.8185 28.6042 16.8682 28.6919 16.9003C28.7796 16.9325 28.873 16.9464 28.9662 16.9413C29.0595 16.9362 29.1508 16.9121 29.2344 16.8706C29.3181 16.829 29.3924 16.7708 29.4529 16.6996C29.5133 16.6284 29.5586 16.5456 29.5859 16.4563C29.6738 16.2211 29.8243 16.0145 30.0212 15.8589C30.2181 15.7032 30.4539 15.6044 30.7029 15.5732C30.952 15.542 31.2048 15.5795 31.4341 15.6818C31.6633 15.784 31.8602 15.947 32.0034 16.1532C32.1465 16.3594 32.2305 16.6008 32.2463 16.8513C32.262 17.1018 32.2089 17.3519 32.0926 17.5743C31.9764 17.7968 31.8014 17.9832 31.5868 18.1133C31.3722 18.2434 31.126 18.3123 30.875 18.3125H15.75C15.5677 18.3125 15.3928 18.3849 15.2639 18.5139C15.1349 18.6428 15.0625 18.8177 15.0625 19C15.0625 19.1823 15.1349 19.3572 15.2639 19.4861C15.3928 19.6151 15.5677 19.6875 15.75 19.6875H30.875C31.6043 19.6875 32.3038 19.3978 32.8195 18.882C33.3353 18.3663 33.625 17.6668 33.625 16.9375C33.625 16.2082 33.3353 15.5087 32.8195 14.993C32.3038 14.4772 31.6043 14.1875 30.875 14.1875V14.1875Z" fill="white"/>
</g>
<defs>
<clipPath id="clip0_491_93">
<rect width="48" height="48" fill="white"/>
</clipPath>
</defs>
</svg>
