<svg width="43" height="43" viewBox="0 0 43 43" fill="none" xmlns="http://www.w3.org/2000/svg">
<path d="M21.5 0C17.039 0.00508098 12.7622 1.78656 9.60779 4.95361C6.45338 8.12065 4.67901 12.4146 4.67395 16.8935C4.67395 31.349 19.9704 42.2722 20.6205 42.7329C20.881 42.9071 21.187 43 21.5 43C21.813 43 22.119 42.9071 22.3796 42.7329C23.0297 42.2722 38.3261 31.349 38.3261 16.8935C38.3211 12.4146 36.5467 8.12065 33.3923 4.95361C30.2379 1.78656 25.961 0.00508098 21.5 0Z" fill="#1F407D"/>
<path d="M12.233 16.2126C12.0548 16.2126 11.8839 16.1419 11.7579 16.0159C11.6319 15.8899 11.5612 15.719 11.5612 15.5408C11.5612 15.3626 11.6319 15.1917 11.7579 15.0657C11.8839 14.9397 12.0548 14.8689 12.233 14.8689H20.2955C20.5408 14.8687 20.7814 14.8014 20.9912 14.6742C21.2009 14.5471 21.3719 14.3649 21.4855 14.1475C21.5991 13.9301 21.651 13.6857 21.6356 13.4409C21.6203 13.1961 21.5382 12.9602 21.3982 12.7587C21.2583 12.5572 21.0659 12.3979 20.8419 12.2979C20.6179 12.198 20.3708 12.1613 20.1274 12.1918C19.884 12.2223 19.6536 12.3189 19.4612 12.471C19.2687 12.6232 19.1216 12.8251 19.0358 13.0548C19.009 13.1421 18.9648 13.223 18.9057 13.2927C18.8467 13.3623 18.774 13.4191 18.6923 13.4597C18.6105 13.5004 18.5213 13.5239 18.4302 13.5289C18.339 13.5339 18.2478 13.5203 18.1621 13.4888C18.0764 13.4574 17.9979 13.4088 17.9316 13.3461C17.8653 13.2834 17.8125 13.2078 17.7763 13.1239C17.7402 13.0401 17.7215 12.9497 17.7215 12.8585C17.7214 12.7672 17.74 12.6768 17.776 12.5929C17.9464 12.1323 18.2397 11.7272 18.6241 11.4215C19.0085 11.1159 19.4693 10.9214 19.9565 10.8593C20.4436 10.7971 20.9385 10.8696 21.3873 11.0689C21.8362 11.2682 22.2218 11.5867 22.5024 11.9898C22.783 12.3929 22.9477 12.8651 22.9788 13.3553C23.0098 13.8454 22.906 14.3347 22.6785 14.7699C22.451 15.2052 22.1086 15.5698 21.6885 15.8241C21.2684 16.0785 20.7866 16.2128 20.2955 16.2126H12.233ZM22.983 20.2439H13.5768C13.3986 20.2439 13.2277 20.3147 13.1017 20.4407C12.9757 20.5667 12.9049 20.7376 12.9049 20.9158C12.9049 21.094 12.9757 21.2649 13.1017 21.3909C13.2277 21.5169 13.3986 21.5876 13.5768 21.5876H22.983C23.2283 21.5878 23.4689 21.6552 23.6787 21.7823C23.8884 21.9095 24.0594 22.0917 24.173 22.3091C24.2866 22.5265 24.3385 22.7708 24.3231 23.0156C24.3078 23.2605 24.2257 23.4964 24.0857 23.6979C23.9458 23.8993 23.7534 24.0587 23.5294 24.1586C23.3054 24.2585 23.0583 24.2952 22.8149 24.2647C22.5715 24.2342 22.3411 24.1376 22.1487 23.9855C21.9562 23.8334 21.8091 23.6315 21.7233 23.4017C21.6965 23.3144 21.6523 23.2335 21.5932 23.1639C21.5342 23.0943 21.4615 23.0374 21.3798 22.9968C21.298 22.9562 21.2088 22.9327 21.1177 22.9277C21.0265 22.9227 20.9353 22.9363 20.8496 22.9677C20.7639 22.9991 20.6854 23.0477 20.6191 23.1105C20.5528 23.1732 20.5 23.2488 20.4638 23.3326C20.4277 23.4165 20.409 23.5068 20.409 23.5981C20.4089 23.6894 20.4275 23.7797 20.4635 23.8636C20.6339 24.3242 20.9272 24.7294 21.3116 25.035C21.696 25.3407 22.1568 25.5351 22.644 25.5973C23.1311 25.6594 23.626 25.5869 24.0748 25.3876C24.5237 25.1883 24.9093 24.8698 25.1899 24.4667C25.4705 24.0637 25.6352 23.5914 25.6663 23.1013C25.6973 22.6112 25.5935 22.1219 25.366 21.6866C25.1385 21.2514 24.7961 20.8868 24.376 20.6324C23.9559 20.3781 23.4741 20.2437 22.983 20.2439V20.2439ZM27.6862 13.5251C27.1375 13.5266 26.6023 13.6954 26.1521 14.009C25.7019 14.3227 25.3581 14.7662 25.1666 15.2804C25.1306 15.3643 25.1121 15.4547 25.1121 15.546C25.1122 15.6372 25.1308 15.7276 25.167 15.8114C25.2031 15.8953 25.2559 15.9709 25.3223 16.0336C25.3886 16.0963 25.467 16.1449 25.5527 16.1763C25.6384 16.2078 25.7296 16.2214 25.8208 16.2164C25.9119 16.2114 26.0011 16.1879 26.0829 16.1472C26.1646 16.1066 26.2373 16.0498 26.2963 15.9802C26.3554 15.9105 26.3996 15.8296 26.4264 15.7423C26.5122 15.5126 26.6594 15.3107 26.8518 15.1585C27.0442 15.0064 27.2746 14.9098 27.518 14.8793C27.7614 14.8488 28.0085 14.8855 28.2325 14.9854C28.4565 15.0854 28.6489 15.2447 28.7889 15.4462C28.9288 15.6477 29.0109 15.8836 29.0263 16.1284C29.0416 16.3732 28.9897 16.6176 28.8761 16.835C28.7625 17.0524 28.5915 17.2346 28.3818 17.3617C28.172 17.4889 27.9315 17.5562 27.6862 17.5564H12.9049C12.7267 17.5564 12.5558 17.6272 12.4298 17.7532C12.3038 17.8792 12.233 18.0501 12.233 18.2283C12.233 18.4065 12.3038 18.5774 12.4298 18.7034C12.5558 18.8294 12.7267 18.9001 12.9049 18.9001H27.6862C28.3989 18.9001 29.0825 18.617 29.5865 18.113C30.0905 17.609 30.3737 16.9254 30.3737 16.2126C30.3737 15.4999 30.0905 14.8163 29.5865 14.3123C29.0825 13.8083 28.3989 13.5251 27.6862 13.5251V13.5251Z" fill="white"/>
</svg>
