<svg width="33" height="33" viewBox="0 0 33 33" fill="none" xmlns="http://www.w3.org/2000/svg">
<g clip-path="url(#clip0_493_108)">
<path d="M17.9261 32.2277C17.5877 33.0578 16.4123 33.0578 16.074 32.2277L12.3652 23.1274C12.0972 22.4697 12.581 21.75 13.2913 21.75L20.7088 21.75C21.419 21.75 21.9029 22.4697 21.6348 23.1274L17.9261 32.2277Z" fill="white"/>
<circle cx="17" cy="13" r="13" fill="white"/>
<circle cx="17" cy="13" r="12" fill="#2B5BB5"/>
<path d="M10.7188 12C10.5944 12 10.4752 11.9473 10.3873 11.8536C10.2994 11.7598 10.25 11.6326 10.25 11.5C10.25 11.3674 10.2994 11.2402 10.3873 11.1464C10.4752 11.0527 10.5944 11 10.7188 11H16.3438C16.5149 10.9999 16.6827 10.9498 16.8291 10.8551C16.9754 10.7605 17.0947 10.6249 17.1739 10.4631C17.2532 10.3013 17.2894 10.1195 17.2787 9.93731C17.268 9.75512 17.2107 9.57954 17.1131 9.42961C17.0155 9.27967 16.8812 9.16109 16.7249 9.08673C16.5686 9.01237 16.3962 8.98506 16.2264 9.00777C16.0566 9.03047 15.8959 9.10233 15.7616 9.21554C15.6274 9.32875 15.5247 9.479 15.4648 9.65C15.4462 9.71496 15.4153 9.77518 15.3741 9.82699C15.3329 9.8788 15.2822 9.92111 15.2252 9.95133C15.1681 9.98156 15.1059 9.99906 15.0423 10.0028C14.9787 10.0065 14.9151 9.99636 14.8553 9.97297C14.7955 9.94958 14.7408 9.91344 14.6945 9.86675C14.6482 9.82006 14.6114 9.7638 14.5862 9.70141C14.561 9.63901 14.5479 9.57179 14.5479 9.50385C14.5479 9.43591 14.5608 9.36868 14.5859 9.30625C14.7048 8.96347 14.9094 8.66197 15.1776 8.43452C15.4458 8.20707 15.7673 8.06235 16.1072 8.01609C16.4471 7.96983 16.7923 8.02379 17.1055 8.17212C17.4186 8.32044 17.6877 8.55746 17.8834 8.85743C18.0792 9.15739 18.1941 9.50883 18.2158 9.87358C18.2374 10.2383 18.165 10.6024 18.0063 10.9263C17.8476 11.2502 17.6087 11.5216 17.3156 11.7109C17.0225 11.9002 16.6864 12.0002 16.3438 12H10.7188ZM18.2188 15H11.6562C11.5319 15 11.4127 15.0527 11.3248 15.1464C11.2369 15.2402 11.1875 15.3674 11.1875 15.5C11.1875 15.6326 11.2369 15.7598 11.3248 15.8536C11.4127 15.9473 11.5319 16 11.6562 16H18.2188C18.3899 16.0001 18.5577 16.0502 18.7041 16.1449C18.8504 16.2395 18.9697 16.3751 19.0489 16.5369C19.1282 16.6987 19.1644 16.8805 19.1537 17.0627C19.143 17.2449 19.0857 17.4205 18.9881 17.5704C18.8905 17.7203 18.7562 17.8389 18.5999 17.9133C18.4436 17.9876 18.2712 18.0149 18.1014 17.9922C17.9316 17.9695 17.7709 17.8977 17.6366 17.7845C17.5024 17.6713 17.3997 17.521 17.3398 17.35C17.3212 17.285 17.2903 17.2248 17.2491 17.173C17.2079 17.1212 17.1572 17.0789 17.1002 17.0487C17.0431 17.0184 16.9809 17.0009 16.9173 16.9972C16.8537 16.9935 16.7901 17.0036 16.7303 17.027C16.6705 17.0504 16.6158 17.0866 16.5695 17.1333C16.5232 17.1799 16.4864 17.2362 16.4612 17.2986C16.436 17.361 16.4229 17.4282 16.4229 17.4961C16.4229 17.5641 16.4358 17.6313 16.4609 17.6938C16.5798 18.0365 16.7844 18.338 17.0526 18.5655C17.3208 18.7929 17.6423 18.9377 17.9822 18.9839C18.3221 19.0302 18.6673 18.9762 18.9805 18.8279C19.2936 18.6796 19.5627 18.4425 19.7584 18.1426C19.9542 17.8426 20.0691 17.4912 20.0908 17.1264C20.1124 16.7617 20.04 16.3976 19.8813 16.0737C19.7226 15.7498 19.4837 15.4784 19.1906 15.2891C18.8975 15.0998 18.5614 14.9999 18.2188 15V15ZM21.5 10C21.1172 10.0011 20.7438 10.1267 20.4297 10.3601C20.1156 10.5935 19.8758 10.9236 19.7422 11.3063C19.7171 11.3687 19.7041 11.4359 19.7042 11.5039C19.7042 11.5718 19.7172 11.639 19.7424 11.7014C19.7676 11.7638 19.8045 11.8201 19.8508 11.8668C19.897 11.9134 19.9517 11.9496 20.0115 11.973C20.0713 11.9964 20.135 12.0065 20.1986 12.0028C20.2622 11.9991 20.3244 11.9816 20.3814 11.9513C20.4385 11.9211 20.4892 11.8788 20.5304 11.827C20.5716 11.7752 20.6024 11.715 20.6211 11.65C20.681 11.479 20.7836 11.3287 20.9179 11.2155C21.0521 11.1023 21.2129 11.0305 21.3827 11.0078C21.5525 10.9851 21.7249 11.0124 21.8812 11.0867C22.0375 11.1611 22.1717 11.2797 22.2693 11.4296C22.3669 11.5795 22.4242 11.7551 22.435 11.9373C22.4457 12.1195 22.4095 12.3013 22.3302 12.4631C22.2509 12.6249 22.1317 12.7605 21.9853 12.8551C21.839 12.9498 21.6711 12.9999 21.5 13H11.1875C11.0632 13 10.944 13.0527 10.856 13.1464C10.7681 13.2402 10.7188 13.3674 10.7188 13.5C10.7188 13.6326 10.7681 13.7598 10.856 13.8536C10.944 13.9473 11.0632 14 11.1875 14H21.5C21.9973 14 22.4742 13.7893 22.8258 13.4142C23.1775 13.0391 23.375 12.5304 23.375 12C23.375 11.4696 23.1775 10.9609 22.8258 10.5858C22.4742 10.2107 21.9973 10 21.5 10V10Z" fill="white"/>
</g>
<defs>
<clipPath id="clip0_493_108">
<rect width="33" height="33" fill="white"/>
</clipPath>
</defs>
</svg>
