<svg width="33" height="33" viewBox="0 0 33 33" fill="none" xmlns="http://www.w3.org/2000/svg">
<g clip-path="url(#clip0_491_93)">
<path d="M16.3281 0.0982666C9.96163 0.0982666 4.8125 5.2474 4.8125 11.6139C4.8125 20.2506 16.3281 33.0001 16.3281 33.0001C16.3281 33.0001 27.8437 20.2506 27.8437 11.6139C27.8437 5.2474 22.6946 0.0982666 16.3281 0.0982666ZM16.3281 15.7266C14.0579 15.7266 12.2154 13.8841 12.2154 11.6139C12.2154 9.34367 14.0579 7.50117 16.3281 7.50117C18.5983 7.50117 20.4408 9.34367 20.4408 11.6139C20.4408 13.8841 18.5983 15.7266 16.3281 15.7266Z" fill="#244780"/>
<ellipse cx="16.7395" cy="11.6139" rx="4.524" ry="4.93527" fill="#244780"/>
<path d="M9.30396 10.7954C9.16306 10.7954 9.02793 10.7394 8.9283 10.6398C8.82868 10.5402 8.77271 10.4051 8.77271 10.2642C8.77271 10.1233 8.82868 9.98814 8.9283 9.88851C9.02793 9.78888 9.16306 9.73291 9.30396 9.73291H15.679C15.8729 9.73277 16.0631 9.67953 16.229 9.57898C16.3948 9.47843 16.53 9.33439 16.6198 9.16249C16.7097 8.99059 16.7507 8.79738 16.7386 8.6038C16.7264 8.41023 16.6615 8.22368 16.5509 8.06437C16.4402 7.90506 16.2881 7.77907 16.111 7.70006C15.9338 7.62105 15.7384 7.59204 15.546 7.61616C15.3535 7.64029 15.1714 7.71663 15.0192 7.83692C14.8671 7.95721 14.7507 8.11685 14.6829 8.29854C14.6617 8.36756 14.6267 8.43154 14.58 8.48659C14.5333 8.54163 14.4759 8.58659 14.4113 8.6187C14.3466 8.65081 14.2761 8.66942 14.204 8.67337C14.1319 8.67732 14.0598 8.66654 13.992 8.64169C13.9243 8.61684 13.8623 8.57844 13.8098 8.52883C13.7574 8.47922 13.7156 8.41945 13.687 8.35315C13.6585 8.28686 13.6437 8.21544 13.6437 8.14326C13.6436 8.07107 13.6583 7.99963 13.6868 7.9333C13.8215 7.56909 14.0534 7.24876 14.3573 7.00709C14.6613 6.76542 15.0257 6.61166 15.4109 6.5625C15.796 6.51335 16.1873 6.57069 16.5422 6.72828C16.8971 6.88588 17.2021 7.13771 17.4239 7.45642C17.6458 7.77514 17.776 8.14854 17.8006 8.53609C17.8251 8.92363 17.743 9.31049 17.5632 9.65464C17.3833 9.9988 17.1126 10.2871 16.7804 10.4882C16.4482 10.6893 16.0673 10.7956 15.679 10.7954H9.30396ZM17.804 13.9829H10.3665C10.2256 13.9829 10.0904 14.0389 9.9908 14.1385C9.89118 14.2381 9.83521 14.3733 9.83521 14.5142C9.83521 14.6551 9.89118 14.7902 9.9908 14.8898C10.0904 14.9894 10.2256 15.0454 10.3665 15.0454H17.804C17.9979 15.0456 18.1881 15.0988 18.354 15.1993C18.5198 15.2999 18.655 15.4439 18.7448 15.6158C18.8347 15.7877 18.8757 15.9809 18.8636 16.1745C18.8514 16.3681 18.7865 16.5546 18.6759 16.714C18.5652 16.8733 18.4131 16.9993 18.236 17.0783C18.0588 17.1573 17.8634 17.1863 17.671 17.1622C17.4785 17.138 17.2964 17.0617 17.1442 16.9414C16.9921 16.8211 16.8757 16.6615 16.8079 16.4798C16.7867 16.4108 16.7517 16.3468 16.705 16.2917C16.6583 16.2367 16.6009 16.1917 16.5363 16.1596C16.4716 16.1275 16.4011 16.1089 16.329 16.105C16.2569 16.101 16.1848 16.1118 16.117 16.1366C16.0493 16.1615 15.9873 16.1999 15.9348 16.2495C15.8824 16.2991 15.8406 16.3589 15.812 16.4252C15.7835 16.4915 15.7687 16.5629 15.7687 16.6351C15.7686 16.7073 15.7833 16.7787 15.8118 16.845C15.9465 17.2092 16.1784 17.5296 16.4823 17.7712C16.7863 18.0129 17.1507 18.1667 17.5359 18.2158C17.921 18.265 18.3123 18.2076 18.6672 18.05C19.0221 17.8924 19.3271 17.6406 19.5489 17.3219C19.7708 17.0032 19.901 16.6298 19.9256 16.2422C19.9501 15.8547 19.868 15.4678 19.6882 15.1237C19.5083 14.7795 19.2376 14.4912 18.9054 14.2901C18.5732 14.089 18.1923 13.9828 17.804 13.9829V13.9829ZM21.5227 8.67041C21.0889 8.67153 20.6657 8.805 20.3097 9.053C19.9537 9.301 19.6819 9.65172 19.5305 10.0583C19.502 10.1246 19.4874 10.1961 19.4874 10.2683C19.4875 10.3404 19.5022 10.4119 19.5308 10.4782C19.5594 10.5444 19.6011 10.6042 19.6536 10.6538C19.706 10.7034 19.768 10.7418 19.8358 10.7667C19.9036 10.7915 19.9757 10.8023 20.0478 10.7984C20.1198 10.7944 20.1904 10.7758 20.255 10.7437C20.3197 10.7116 20.3771 10.6666 20.4238 10.6116C20.4705 10.5565 20.5055 10.4926 20.5266 10.4235C20.5945 10.2418 20.7108 10.0822 20.863 9.96192C21.0151 9.84163 21.1973 9.76529 21.3897 9.74116C21.5822 9.71704 21.7776 9.74605 21.9547 9.82506C22.1319 9.90407 22.284 10.0301 22.3946 10.1894C22.5052 10.3487 22.5702 10.5352 22.5823 10.7288C22.5945 10.9224 22.5534 11.1156 22.4636 11.2875C22.3738 11.4594 22.2386 11.6034 22.0727 11.704C21.9069 11.8045 21.7167 11.8578 21.5227 11.8579H9.83521C9.69431 11.8579 9.55918 11.9139 9.45955 12.0135C9.35993 12.1131 9.30396 12.2483 9.30396 12.3892C9.30396 12.5301 9.35993 12.6652 9.45955 12.7648C9.55918 12.8644 9.69431 12.9204 9.83521 12.9204H21.5227C22.0863 12.9204 22.6268 12.6965 23.0253 12.298C23.4238 11.8995 23.6477 11.359 23.6477 10.7954C23.6477 10.2318 23.4238 9.69132 23.0253 9.29281C22.6268 8.89429 22.0863 8.67041 21.5227 8.67041V8.67041Z" fill="white"/>
</g>
<defs>
<clipPath id="clip0_491_93">
<rect width="33" height="33" fill="white"/>
</clipPath>
</defs>
</svg>
