<svg width="26" height="34" viewBox="0 0 26 34" fill="none" xmlns="http://www.w3.org/2000/svg">
<path d="M13.0552 1.02798e-09C9.82062 0.0027016 6.71855 1.28527 4.42652 3.56758C2.13448 5.84989 0.838725 8.94647 0.822266 12.181C0.822266 17.0305 3.543 21.0909 5.53682 24.0504L5.90027 24.5904C7.884 27.4655 10.0121 30.2382 12.2763 32.898L13.0656 33.8222L13.8548 32.898C16.1187 30.238 18.2468 27.4653 20.2308 24.5904L20.5943 24.04C22.5777 21.0805 25.2985 17.0305 25.2985 12.181C25.282 8.94467 23.9848 5.84652 21.6905 3.56392C19.3963 1.28132 16.2915 -4.19077e-05 13.0552 1.02798e-09V1.02798e-09ZM18.8601 22.8458L18.4863 23.3962C16.7001 26.0754 14.3325 29.0765 13.0552 30.5615C11.8298 29.0765 9.41022 26.0754 7.6241 23.3962L7.26064 22.8458C5.42259 20.1043 2.89916 16.3555 2.89916 12.1394C2.89916 10.8057 3.16185 9.48509 3.67224 8.25291C4.18263 7.02072 4.93071 5.90113 5.87379 4.95806C6.81686 4.01499 7.93645 3.2669 9.16863 2.75651C10.4008 2.24613 11.7215 1.98343 13.0552 1.98343C14.3889 1.98343 15.7095 2.24613 16.9417 2.75651C18.1739 3.2669 19.2935 4.01499 20.2366 4.95806C21.1796 5.90113 21.9277 7.02072 22.4381 8.25291C22.9485 9.48509 23.2112 10.8057 23.2112 12.1394C23.2112 16.3971 20.6981 20.1459 18.8601 22.8458V22.8458Z" fill="#385058"/>
<path d="M17.2608 17.0421C17.2602 17.6 17.0616 18.14 16.6997 18.5676C16.3379 18.9952 15.8357 19.2834 15.2811 19.3817C14.7264 19.48 14.1545 19.3823 13.6653 19.1055C13.176 18.8287 12.8006 18.3905 12.6045 17.8675C12.5723 17.7932 12.5557 17.7132 12.5557 17.6324C12.5558 17.5516 12.5725 17.4716 12.6048 17.3974C12.6371 17.3231 12.6843 17.2562 12.7437 17.2007C12.803 17.1451 12.8731 17.1021 12.9497 17.0743C13.0264 17.0465 13.1079 17.0344 13.1895 17.0388C13.271 17.0432 13.3507 17.0641 13.4238 17.1C13.497 17.136 13.5619 17.1863 13.6147 17.248C13.6675 17.3096 13.7071 17.3813 13.731 17.4585C13.8078 17.662 13.9393 17.8407 14.1114 17.9754C14.2835 18.1101 14.4895 18.1956 14.7072 18.2226C14.9248 18.2496 15.1458 18.2172 15.3461 18.1287C15.5465 18.0402 15.7185 17.8991 15.8436 17.7208C15.9687 17.5424 16.0422 17.3335 16.0559 17.1167C16.0697 16.9 16.0232 16.6836 15.9216 16.4911C15.82 16.2986 15.6672 16.1374 15.4796 16.0248C15.292 15.9122 15.0769 15.8526 14.8575 15.8524H6.44612C6.28678 15.8524 6.13396 15.7897 6.02128 15.6782C5.90861 15.5666 5.84531 15.4153 5.84531 15.2575C5.84531 15.0998 5.90861 14.9485 6.02128 14.8369C6.13396 14.7253 6.28678 14.6627 6.44612 14.6627H14.8575C15.4943 14.6646 16.1044 14.916 16.5547 15.3618C17.005 15.8076 17.2588 16.4117 17.2608 17.0421V17.0421ZM12.4543 11.0935C12.8934 11.0936 13.3243 10.9747 13.7 10.7495C14.0756 10.5243 14.3818 10.2015 14.5852 9.81609C14.7886 9.43073 14.8815 8.99754 14.8537 8.56359C14.826 8.12964 14.6786 7.71152 14.4277 7.35464C14.1769 6.99776 13.832 6.71577 13.4306 6.53931C13.0292 6.36284 12.5867 6.29864 12.1511 6.35367C11.7154 6.40871 11.3034 6.58089 10.9596 6.8515C10.6158 7.1221 10.3536 7.4808 10.2012 7.88862C10.169 7.9629 10.1524 8.04289 10.1525 8.12372C10.1525 8.20455 10.1692 8.28452 10.2015 8.35875C10.2338 8.43298 10.2811 8.49992 10.3404 8.55547C10.3997 8.61102 10.4698 8.65402 10.5465 8.68185C10.6231 8.70967 10.7047 8.72174 10.7862 8.71731C10.8677 8.71289 10.9475 8.69206 11.0206 8.6561C11.0937 8.62014 11.1586 8.5698 11.2115 8.50817C11.2643 8.44653 11.3038 8.37488 11.3278 8.29759C11.4045 8.09415 11.5361 7.91539 11.7082 7.7807C11.8802 7.64601 12.0863 7.56052 12.3039 7.53351C12.5216 7.50649 12.7425 7.53898 12.9429 7.62745C13.1432 7.71592 13.3152 7.857 13.4404 8.03538C13.5655 8.21377 13.6389 8.42266 13.6526 8.63942C13.6664 8.85617 13.62 9.07252 13.5184 9.26501C13.4168 9.45749 13.2639 9.61878 13.0763 9.73137C12.8888 9.84396 12.6736 9.90357 12.4543 9.90373H5.24449C5.08515 9.90373 4.93233 9.96641 4.81965 10.078C4.70698 10.1895 4.64368 10.3408 4.64368 10.4986C4.64368 10.6564 4.70698 10.8077 4.81965 10.9192C4.93233 11.0308 5.08515 11.0935 5.24449 11.0935H12.4543ZM19.0633 8.714C18.5726 8.71525 18.094 8.86471 17.6914 9.14241C17.2888 9.4201 16.9814 9.81282 16.8102 10.2681C16.778 10.3424 16.7614 10.4224 16.7615 10.5032C16.7615 10.584 16.7782 10.664 16.8105 10.7382C16.8428 10.8125 16.8901 10.8794 16.9494 10.9349C17.0087 10.9905 17.0788 11.0335 17.1554 11.0613C17.2321 11.0891 17.3137 11.1012 17.3952 11.0968C17.4767 11.0924 17.5564 11.0715 17.6296 11.0356C17.7027 10.9996 17.7676 10.9493 17.8204 10.8876C17.8732 10.826 17.9128 10.7543 17.9367 10.6771C18.0135 10.4736 18.1451 10.2949 18.3171 10.1602C18.4892 10.0255 18.6952 9.93999 18.9129 9.91297C19.1305 9.88596 19.3515 9.91845 19.5518 10.0069C19.7522 10.0954 19.9242 10.2365 20.0493 10.4148C20.1745 10.5932 20.2479 10.8021 20.2616 11.0189C20.2754 11.2356 20.2289 11.452 20.1273 11.6445C20.0258 11.837 19.8729 11.9982 19.6853 12.1108C19.4977 12.2234 19.2826 12.283 19.0633 12.2832H5.84531C5.68596 12.2832 5.53314 12.3459 5.42047 12.4574C5.30779 12.569 5.24449 12.7203 5.24449 12.8781C5.24449 13.0358 5.30779 13.1871 5.42047 13.2987C5.53314 13.4103 5.68596 13.4729 5.84531 13.4729H19.0633C19.7006 13.4729 20.3119 13.2222 20.7626 12.776C21.2133 12.3298 21.4665 11.7245 21.4665 11.0935C21.4665 10.4624 21.2133 9.85717 20.7626 9.41093C20.3119 8.96469 19.7006 8.714 19.0633 8.714V8.714Z" fill="#385058"/>
</svg>
