<svg width="111" height="47" viewBox="0 0 111 47" fill="none" xmlns="http://www.w3.org/2000/svg">
<path d="M40 1.85714C40 1.3646 40.2041 0.892227 40.5675 0.543945C40.9308 0.195663 41.4236 0 41.9375 0H69.0625C69.5764 0 70.0692 0.195663 70.4325 0.543945C70.7959 0.892227 71 1.3646 71 1.85714C71 2.34969 70.7959 2.82206 70.4325 3.17034C70.0692 3.51862 69.5764 3.71429 69.0625 3.71429H41.9375C41.4236 3.71429 40.9308 3.51862 40.5675 3.17034C40.2041 2.82206 40 2.34969 40 1.85714ZM40 24.1429C40 23.6503 40.2041 23.1779 40.5675 22.8297C40.9308 22.4814 41.4236 22.2857 41.9375 22.2857H69.0625C69.5764 22.2857 70.0692 22.4814 70.4325 22.8297C70.7959 23.1779 71 23.6503 71 24.1429C71 24.6354 70.7959 25.1078 70.4325 25.4561C70.0692 25.8043 69.5764 26 69.0625 26H41.9375C41.4236 26 40.9308 25.8043 40.5675 25.4561C40.2041 25.1078 40 24.6354 40 24.1429ZM53.5625 11.1429C53.0486 11.1429 52.5558 11.3385 52.1925 11.6868C51.8291 12.0351 51.625 12.5075 51.625 13C51.625 13.4925 51.8291 13.9649 52.1925 14.3132C52.5558 14.6615 53.0486 14.8571 53.5625 14.8571H69.0625C69.5764 14.8571 70.0692 14.6615 70.4325 14.3132C70.7959 13.9649 71 13.4925 71 13C71 12.5075 70.7959 12.0351 70.4325 11.6868C70.0692 11.3385 69.5764 11.1429 69.0625 11.1429H53.5625Z" fill="#787777"/>
<path d="M40.3983 35.2727H41.9963L44.7747 42.0568H44.877L47.6554 35.2727H49.2534V44H48.0005V37.6847H47.9196L45.3457 43.9872H44.3059L41.7321 37.6804H41.6511V44H40.3983V35.2727ZM53.8865 44.1321C53.2417 44.1321 52.6863 43.9943 52.2203 43.7188C51.7573 43.4403 51.3993 43.0497 51.1465 42.5469C50.8965 42.0412 50.7715 41.4489 50.7715 40.7699C50.7715 40.0994 50.8965 39.5085 51.1465 38.9972C51.3993 38.4858 51.7516 38.0866 52.2033 37.7997C52.6578 37.5128 53.1891 37.3693 53.7971 37.3693C54.1664 37.3693 54.5243 37.4304 54.8709 37.5526C55.2175 37.6747 55.5286 37.8665 55.8042 38.1278C56.0797 38.3892 56.2971 38.7287 56.4561 39.1463C56.6152 39.5611 56.6948 40.0653 56.6948 40.6591V41.1108H51.4917V40.1562H55.4462C55.4462 39.821 55.378 39.5241 55.2417 39.2656C55.1053 39.0043 54.9135 38.7983 54.6664 38.6477C54.4221 38.4972 54.1351 38.4219 53.8056 38.4219C53.4476 38.4219 53.1351 38.5099 52.8681 38.6861C52.6039 38.8594 52.3993 39.0866 52.2544 39.3679C52.1124 39.6463 52.0414 39.9489 52.0414 40.2756V41.0213C52.0414 41.4588 52.1181 41.831 52.2715 42.1378C52.4277 42.4446 52.6451 42.679 52.9235 42.8409C53.2019 43 53.5272 43.0795 53.8993 43.0795C54.1408 43.0795 54.361 43.0455 54.5598 42.9773C54.7587 42.9062 54.9306 42.8011 55.0755 42.6619C55.2203 42.5227 55.3311 42.3509 55.4078 42.1463L56.6138 42.3636C56.5172 42.7187 56.3439 43.0298 56.0939 43.2969C55.8468 43.5611 55.5357 43.767 55.1607 43.9148C54.7885 44.0597 54.3638 44.1321 53.8865 44.1321ZM59.3826 40.1136V44H58.1085V37.4545H59.3315V38.5199H59.4125C59.563 38.1733 59.7988 37.8949 60.1199 37.6847C60.4437 37.4744 60.8514 37.3693 61.3429 37.3693C61.7889 37.3693 62.1795 37.4631 62.5147 37.6506C62.85 37.8352 63.1099 38.1108 63.2946 38.4773C63.4792 38.8437 63.5716 39.2969 63.5716 39.8366V44H62.2974V39.9901C62.2974 39.5156 62.1738 39.1449 61.9267 38.8778C61.6795 38.608 61.34 38.473 60.9082 38.473C60.6127 38.473 60.35 38.5369 60.1199 38.6648C59.8926 38.7926 59.7122 38.9801 59.5787 39.2273C59.448 39.4716 59.3826 39.767 59.3826 40.1136ZM69.4267 41.2855V37.4545H70.7051V44H69.4522V42.8665H69.3841C69.2335 43.2159 68.992 43.5071 68.6596 43.7401C68.3301 43.9702 67.9196 44.0852 67.4281 44.0852C67.0076 44.0852 66.6355 43.9929 66.3116 43.8082C65.9906 43.6207 65.7377 43.3438 65.5531 42.9773C65.3713 42.6108 65.2804 42.1577 65.2804 41.6179V37.4545H66.5545V41.4645C66.5545 41.9105 66.6781 42.2656 66.9252 42.5298C67.1724 42.794 67.4934 42.9261 67.8883 42.9261C68.127 42.9261 68.3642 42.8665 68.6 42.7472C68.8386 42.6278 69.036 42.4474 69.1923 42.206C69.3514 41.9645 69.4295 41.6577 69.4267 41.2855ZM66.7505 36.4276C66.5488 36.4276 66.3727 36.3537 66.2221 36.206C66.0716 36.0554 65.9963 35.8821 65.9963 35.6861C65.9963 35.473 66.0716 35.2955 66.2221 35.1534C66.3727 35.0114 66.5488 34.9403 66.7505 34.9403C66.9636 34.9403 67.1412 35.0114 67.2832 35.1534C67.4281 35.2955 67.5005 35.473 67.5005 35.6861C67.5005 35.8821 67.4281 36.0554 67.2832 36.206C67.1412 36.3537 66.9636 36.4276 66.7505 36.4276ZM69.2562 36.4276C69.0545 36.4276 68.8784 36.3537 68.7278 36.206C68.5772 36.0554 68.502 35.8821 68.502 35.6861C68.502 35.473 68.5772 35.2955 68.7278 35.1534C68.8784 35.0114 69.0545 34.9403 69.2562 34.9403C69.4693 34.9403 69.6468 35.0114 69.7889 35.1534C69.9338 35.2955 70.0062 35.473 70.0062 35.6861C70.0062 35.8821 69.9338 36.0554 69.7889 36.206C69.6468 36.3537 69.4693 36.4276 69.2562 36.4276Z" fill="#787777"/>
</svg>
