<svg width="111" height="49" viewBox="0 0 111 49" fill="none" xmlns="http://www.w3.org/2000/svg">
<path d="M40.3983 37.2727H41.9963L44.7747 44.0568H44.877L47.6554 37.2727H49.2534V46H48.0005V39.6847H47.9196L45.3457 45.9872H44.3059L41.7321 39.6804H41.6511V46H40.3983V37.2727ZM53.8865 46.1321C53.2417 46.1321 52.6863 45.9943 52.2203 45.7188C51.7573 45.4403 51.3993 45.0497 51.1465 44.5469C50.8965 44.0412 50.7715 43.4489 50.7715 42.7699C50.7715 42.0994 50.8965 41.5085 51.1465 40.9972C51.3993 40.4858 51.7516 40.0866 52.2033 39.7997C52.6578 39.5128 53.1891 39.3693 53.7971 39.3693C54.1664 39.3693 54.5243 39.4304 54.8709 39.5526C55.2175 39.6747 55.5286 39.8665 55.8042 40.1278C56.0797 40.3892 56.2971 40.7287 56.4561 41.1463C56.6152 41.5611 56.6948 42.0653 56.6948 42.6591V43.1108H51.4917V42.1562H55.4462C55.4462 41.821 55.378 41.5241 55.2417 41.2656C55.1053 41.0043 54.9135 40.7983 54.6664 40.6477C54.4221 40.4972 54.1351 40.4219 53.8056 40.4219C53.4476 40.4219 53.1351 40.5099 52.8681 40.6861C52.6039 40.8594 52.3993 41.0866 52.2544 41.3679C52.1124 41.6463 52.0414 41.9489 52.0414 42.2756V43.0213C52.0414 43.4588 52.1181 43.831 52.2715 44.1378C52.4277 44.4446 52.6451 44.679 52.9235 44.8409C53.2019 45 53.5272 45.0795 53.8993 45.0795C54.1408 45.0795 54.361 45.0455 54.5598 44.9773C54.7587 44.9062 54.9306 44.8011 55.0755 44.6619C55.2203 44.5227 55.3311 44.3509 55.4078 44.1463L56.6138 44.3636C56.5172 44.7187 56.3439 45.0298 56.0939 45.2969C55.8468 45.5611 55.5357 45.767 55.1607 45.9148C54.7885 46.0597 54.3638 46.1321 53.8865 46.1321ZM59.3826 42.1136V46H58.1085V39.4545H59.3315V40.5199H59.4125C59.563 40.1733 59.7988 39.8949 60.1199 39.6847C60.4437 39.4744 60.8514 39.3693 61.3429 39.3693C61.7889 39.3693 62.1795 39.4631 62.5147 39.6506C62.85 39.8352 63.1099 40.1108 63.2946 40.4773C63.4792 40.8437 63.5716 41.2969 63.5716 41.8366V46H62.2974V41.9901C62.2974 41.5156 62.1738 41.1449 61.9267 40.8778C61.6795 40.608 61.34 40.473 60.9082 40.473C60.6127 40.473 60.35 40.5369 60.1199 40.6648C59.8926 40.7926 59.7122 40.9801 59.5787 41.2273C59.448 41.4716 59.3826 41.767 59.3826 42.1136ZM69.4267 43.2855V39.4545H70.7051V46H69.4522V44.8665H69.3841C69.2335 45.2159 68.992 45.5071 68.6596 45.7401C68.3301 45.9702 67.9196 46.0852 67.4281 46.0852C67.0076 46.0852 66.6355 45.9929 66.3116 45.8082C65.9906 45.6207 65.7377 45.3438 65.5531 44.9773C65.3713 44.6108 65.2804 44.1577 65.2804 43.6179V39.4545H66.5545V43.4645C66.5545 43.9105 66.6781 44.2656 66.9252 44.5298C67.1724 44.794 67.4934 44.9261 67.8883 44.9261C68.127 44.9261 68.3642 44.8665 68.6 44.7472C68.8386 44.6278 69.036 44.4474 69.1923 44.206C69.3514 43.9645 69.4295 43.6577 69.4267 43.2855ZM66.7505 38.4276C66.5488 38.4276 66.3727 38.3537 66.2221 38.206C66.0716 38.0554 65.9963 37.8821 65.9963 37.6861C65.9963 37.473 66.0716 37.2955 66.2221 37.1534C66.3727 37.0114 66.5488 36.9403 66.7505 36.9403C66.9636 36.9403 67.1412 37.0114 67.2832 37.1534C67.4281 37.2955 67.5005 37.473 67.5005 37.6861C67.5005 37.8821 67.4281 38.0554 67.2832 38.206C67.1412 38.3537 66.9636 38.4276 66.7505 38.4276ZM69.2562 38.4276C69.0545 38.4276 68.8784 38.3537 68.7278 38.206C68.5772 38.0554 68.502 37.8821 68.502 37.6861C68.502 37.473 68.5772 37.2955 68.7278 37.1534C68.8784 37.0114 69.0545 36.9403 69.2562 36.9403C69.4693 36.9403 69.6468 37.0114 69.7889 37.1534C69.9338 37.2955 70.0062 37.473 70.0062 37.6861C70.0062 37.8821 69.9338 38.0554 69.7889 38.206C69.6468 38.3537 69.4693 38.4276 69.2562 38.4276Z" fill="#787777"/>
<path d="M41 4.85714C41 4.3646 41.191 3.89223 41.5309 3.54394C41.8708 3.19566 42.3318 3 42.8125 3H68.1875C68.6682 3 69.1292 3.19566 69.4691 3.54394C69.809 3.89223 70 4.3646 70 4.85714C70 5.34969 69.809 5.82206 69.4691 6.17034C69.1292 6.51862 68.6682 6.71429 68.1875 6.71429H42.8125C42.3318 6.71429 41.8708 6.51862 41.5309 6.17034C41.191 5.82206 41 5.34969 41 4.85714ZM41 27.1429C41 26.6503 41.191 26.1779 41.5309 25.8297C41.8708 25.4814 42.3318 25.2857 42.8125 25.2857H68.1875C68.6682 25.2857 69.1292 25.4814 69.4691 25.8297C69.809 26.1779 70 26.6503 70 27.1429C70 27.6354 69.809 28.1078 69.4691 28.4561C69.1292 28.8043 68.6682 29 68.1875 29H42.8125C42.3318 29 41.8708 28.8043 41.5309 28.4561C41.191 28.1078 41 27.6354 41 27.1429ZM53.6875 14.1429C53.2068 14.1429 52.7458 14.3385 52.4059 14.6868C52.066 15.0351 51.875 15.5075 51.875 16C51.875 16.4925 52.066 16.9649 52.4059 17.3132C52.7458 17.6615 53.2068 17.8571 53.6875 17.8571H68.1875C68.6682 17.8571 69.1292 17.6615 69.4691 17.3132C69.809 16.9649 70 16.4925 70 16C70 15.5075 69.809 15.0351 69.4691 14.6868C69.1292 14.3385 68.6682 14.1429 68.1875 14.1429H53.6875Z" fill="#787777"/>
</svg>
