<svg width="39" height="53" viewBox="0 0 39 53" fill="none" xmlns="http://www.w3.org/2000/svg">
<path d="M32.5 29.25C32.9142 29.2505 33.3126 29.4091 33.6137 29.6934C33.9149 29.9777 34.0961 30.3663 34.1204 30.7798C34.1447 31.1932 34.0102 31.6004 33.7443 31.918C33.4785 32.2356 33.1014 32.4397 32.6901 32.4886L32.5 32.5H6.5C6.08582 32.4995 5.68745 32.3409 5.38628 32.0566C5.08511 31.7723 4.90387 31.3837 4.8796 30.9702C4.85532 30.5568 4.98985 30.1496 5.25568 29.832C5.52151 29.5144 5.89859 29.3103 6.30987 29.2614L6.5 29.25H32.5ZM32.5 17.875C32.931 17.875 33.3443 18.0462 33.649 18.351C33.9538 18.6557 34.125 19.069 34.125 19.5C34.125 19.931 33.9538 20.3443 33.649 20.649C33.3443 20.9538 32.931 21.125 32.5 21.125H6.5C6.06902 21.125 5.6557 20.9538 5.35095 20.649C5.0462 20.3443 4.875 19.931 4.875 19.5C4.875 19.069 5.0462 18.6557 5.35095 18.351C5.6557 18.0462 6.06902 17.875 6.5 17.875H32.5ZM32.5 6.5C32.931 6.5 33.3443 6.67121 33.649 6.97595C33.9538 7.2807 34.125 7.69402 34.125 8.125C34.125 8.55598 33.9538 8.9693 33.649 9.27405C33.3443 9.57879 32.931 9.75 32.5 9.75H6.5C6.06902 9.75 5.6557 9.57879 5.35095 9.27405C5.0462 8.9693 4.875 8.55598 4.875 8.125C4.875 7.69402 5.0462 7.2807 5.35095 6.97595C5.6557 6.67121 6.06902 6.5 6.5 6.5H32.5Z" fill="#787777"/>
<path d="M4.39826 41.2727H5.99627L8.77468 48.0568H8.87695L11.6554 41.2727H13.2534V50H12.0005V43.6847H11.9196L9.3457 49.9872H8.30593L5.73207 43.6804H5.6511V50H4.39826V41.2727ZM17.8865 50.1321C17.2417 50.1321 16.6863 49.9943 16.2203 49.7188C15.7573 49.4403 15.3993 49.0497 15.1465 48.5469C14.8965 48.0412 14.7715 47.4489 14.7715 46.7699C14.7715 46.0994 14.8965 45.5085 15.1465 44.9972C15.3993 44.4858 15.7516 44.0866 16.2033 43.7997C16.6578 43.5128 17.1891 43.3693 17.7971 43.3693C18.1664 43.3693 18.5243 43.4304 18.8709 43.5526C19.2175 43.6747 19.5286 43.8665 19.8042 44.1278C20.0797 44.3892 20.2971 44.7287 20.4561 45.1463C20.6152 45.5611 20.6948 46.0653 20.6948 46.6591V47.1108H15.4917V46.1562H19.4462C19.4462 45.821 19.378 45.5241 19.2417 45.2656C19.1053 45.0043 18.9135 44.7983 18.6664 44.6477C18.4221 44.4972 18.1351 44.4219 17.8056 44.4219C17.4476 44.4219 17.1351 44.5099 16.8681 44.6861C16.6039 44.8594 16.3993 45.0866 16.2544 45.3679C16.1124 45.6463 16.0414 45.9489 16.0414 46.2756V47.0213C16.0414 47.4588 16.1181 47.831 16.2715 48.1378C16.4277 48.4446 16.6451 48.679 16.9235 48.8409C17.2019 49 17.5272 49.0795 17.8993 49.0795C18.1408 49.0795 18.361 49.0455 18.5598 48.9773C18.7587 48.9062 18.9306 48.8011 19.0755 48.6619C19.2203 48.5227 19.3311 48.3509 19.4078 48.1463L20.6138 48.3636C20.5172 48.7187 20.3439 49.0298 20.0939 49.2969C19.8468 49.5611 19.5357 49.767 19.1607 49.9148C18.7885 50.0597 18.3638 50.1321 17.8865 50.1321ZM23.3826 46.1136V50H22.1085V43.4545H23.3315V44.5199H23.4125C23.563 44.1733 23.7988 43.8949 24.1199 43.6847C24.4437 43.4744 24.8514 43.3693 25.3429 43.3693C25.7889 43.3693 26.1795 43.4631 26.5147 43.6506C26.85 43.8352 27.1099 44.1108 27.2946 44.4773C27.4792 44.8437 27.5716 45.2969 27.5716 45.8366V50H26.2974V45.9901C26.2974 45.5156 26.1738 45.1449 25.9267 44.8778C25.6795 44.608 25.34 44.473 24.9082 44.473C24.6127 44.473 24.35 44.5369 24.1199 44.6648C23.8926 44.7926 23.7122 44.9801 23.5787 45.2273C23.448 45.4716 23.3826 45.767 23.3826 46.1136ZM33.4267 47.2855V43.4545H34.7051V50H33.4522V48.8665H33.3841C33.2335 49.2159 32.992 49.5071 32.6596 49.7401C32.3301 49.9702 31.9196 50.0852 31.4281 50.0852C31.0076 50.0852 30.6355 49.9929 30.3116 49.8082C29.9906 49.6207 29.7377 49.3438 29.5531 48.9773C29.3713 48.6108 29.2804 48.1577 29.2804 47.6179V43.4545H30.5545V47.4645C30.5545 47.9105 30.6781 48.2656 30.9252 48.5298C31.1724 48.794 31.4934 48.9261 31.8883 48.9261C32.127 48.9261 32.3642 48.8665 32.6 48.7472C32.8386 48.6278 33.036 48.4474 33.1923 48.206C33.3514 47.9645 33.4295 47.6577 33.4267 47.2855ZM30.7505 42.4276C30.5488 42.4276 30.3727 42.3537 30.2221 42.206C30.0716 42.0554 29.9963 41.8821 29.9963 41.6861C29.9963 41.473 30.0716 41.2955 30.2221 41.1534C30.3727 41.0114 30.5488 40.9403 30.7505 40.9403C30.9636 40.9403 31.1412 41.0114 31.2832 41.1534C31.4281 41.2955 31.5005 41.473 31.5005 41.6861C31.5005 41.8821 31.4281 42.0554 31.2832 42.206C31.1412 42.3537 30.9636 42.4276 30.7505 42.4276ZM33.2562 42.4276C33.0545 42.4276 32.8784 42.3537 32.7278 42.206C32.5772 42.0554 32.502 41.8821 32.502 41.6861C32.502 41.473 32.5772 41.2955 32.7278 41.1534C32.8784 41.0114 33.0545 40.9403 33.2562 40.9403C33.4693 40.9403 33.6468 41.0114 33.7889 41.1534C33.9338 41.2955 34.0062 41.473 34.0062 41.6861C34.0062 41.8821 33.9338 42.0554 33.7889 42.206C33.6468 42.3537 33.4693 42.4276 33.2562 42.4276Z" fill="#787777"/>
</svg>
