<svg width="87" height="54" viewBox="0 0 87 54" fill="none" xmlns="http://www.w3.org/2000/svg">
<path fill-rule="evenodd" clip-rule="evenodd" d="M54.4286 0C52.1582 0 50.2383 1.56256 49.6835 3.66038L49.0727 3.37658C48.9638 3.32592 48.845 3.29968 48.7249 3.29968C48.6047 3.29968 48.486 3.32592 48.3771 3.37658L38.2748 8.06954L28.1725 3.37691C28.0468 3.31853 27.9084 3.29277 27.7701 3.30199C27.6318 3.31121 27.4981 3.35512 27.3812 3.42967C27.2644 3.50422 27.1682 3.60701 27.1016 3.72854C27.035 3.85007 27 3.98643 27 4.12503V27.3199C27 27.4772 27.0449 27.6312 27.1295 27.7638C27.2141 27.8964 27.3348 28.0021 27.4775 28.0683L37.9273 32.9223C38.0362 32.973 38.155 32.9992 38.2751 32.9992C38.3953 32.9992 38.514 32.973 38.6229 32.9223L48.7252 28.2297L58.8275 32.9223C59.3743 33.1761 60 32.7771 60 32.1745V8.97968C60 8.82239 59.9551 8.66836 59.8705 8.53575C59.7859 8.40315 59.6652 8.29749 59.5225 8.23124L58.4566 7.73558L58.7902 7.16731C58.8661 7.0297 58.9265 6.88318 58.9783 6.73336C59.2173 6.15093 59.3401 5.52743 59.34 4.89789C59.34 2.20606 57.1283 0 54.4286 0ZM54.4286 2.2945C55.8823 2.2945 57.0383 3.44819 57.0383 4.89789C57.0383 6.34726 55.8823 7.49996 54.4286 7.49996C52.975 7.49996 51.819 6.34726 51.819 4.89789C51.819 3.44819 52.975 2.2945 54.4286 2.2945ZM49.0938 5.20578L49.5482 5.41731C49.6369 6.24191 49.9351 7.0301 50.4145 7.70687L53.8293 13.6106C54.3078 14.2356 54.6259 14.1168 55.0236 13.5776L57.6164 9.16449L58.35 9.50571V30.8816L49.2163 26.6388L49.1417 13.5456C49.2763 13.5746 49.4106 13.6027 49.5456 13.6347L49.8492 12.3507C49.6116 12.2945 49.3731 12.2424 49.1338 12.1946L49.0938 5.20578ZM48.1045 5.3226L48.1424 12.0335C47.8016 11.9868 47.4588 11.9558 47.1152 11.9408L47.0663 13.2595C47.4253 13.2727 47.7874 13.3116 48.1504 13.3644L48.2263 26.6417L38.7632 31.0383L38.6414 9.71889L48.1045 5.3226ZM28.65 5.41797L37.6508 9.5991L37.7732 31.0317L28.65 26.7932V5.41797ZM45.6592 12.0309C45.2048 12.1124 44.7398 12.2579 44.3069 12.5097C43.7889 12.8096 43.363 13.2456 43.0753 13.7703L44.231 14.4079C44.4031 14.0944 44.657 13.8334 44.9655 13.6525L44.9675 13.6512L44.9695 13.6499C45.2358 13.4948 45.5529 13.3905 45.8925 13.3298L45.6592 12.0309ZM51.159 12.7011L50.7851 13.9663C51.6111 14.2105 52.4291 14.491 53.2426 14.7946L53.7043 13.5578C52.8687 13.2463 52.0213 12.9559 51.159 12.7011ZM42.5783 15.2078L42.5684 15.26L42.5674 15.2646C42.4027 16.1988 42.4202 17.1182 42.4572 17.992L43.7759 17.9359C43.7399 17.0882 43.7323 16.2678 43.8673 15.4979L43.8752 15.4566L42.5783 15.2078ZM43.8544 19.2371L42.5377 19.3262C42.5971 20.207 42.6605 21.0703 42.6582 21.9168L43.9782 21.9201C43.9808 21.0059 43.9138 20.1123 43.8544 19.2371ZM42.5925 23.1609C42.5562 23.4754 42.5021 23.7813 42.4229 24.075L42.4222 24.0766L42.4216 24.0793C42.3061 24.5198 42.1117 24.9277 41.8404 25.2471L42.8459 26.1018C43.271 25.6019 43.5406 25.0135 43.6973 24.4182L43.698 24.4162C43.797 24.0479 43.8614 23.677 43.9036 23.3107L42.5925 23.1609ZM31.4491 24.4472L30.8564 25.6266C31.6748 26.0381 32.5212 26.3784 33.3736 26.6727L33.8043 25.425C32.9941 25.1455 32.2031 24.8261 31.4491 24.4472ZM35.0249 25.8045L34.6738 27.077C35.547 27.3182 36.4446 27.51 37.362 27.6132L37.5092 26.3015C36.6773 26.2081 35.8476 26.0319 35.0249 25.8045ZM41.0115 25.8976C40.3541 26.2342 39.5605 26.3586 38.7444 26.3685L38.7609 27.6885C39.6961 27.6773 40.696 27.542 41.6127 27.0724L41.0115 25.8976Z" fill="#699BF7"/>
<path d="M0.958807 51V42.2727H4.0696C4.74574 42.2727 5.30682 42.3892 5.75284 42.6222C6.2017 42.8551 6.53693 43.1776 6.75852 43.5895C6.98011 43.9986 7.09091 44.4716 7.09091 45.0085C7.09091 45.5426 6.97869 46.0128 6.75426 46.419C6.53267 46.8224 6.19744 47.1364 5.74858 47.3608C5.30256 47.5852 4.74148 47.6974 4.06534 47.6974H1.70881V46.5639H3.94602C4.37216 46.5639 4.71875 46.5028 4.9858 46.3807C5.25568 46.2585 5.45312 46.081 5.57812 45.848C5.70312 45.6151 5.76562 45.3352 5.76562 45.0085C5.76562 44.679 5.7017 44.3935 5.57386 44.152C5.44886 43.9105 5.25142 43.7259 4.98153 43.598C4.71449 43.4673 4.36364 43.402 3.92898 43.402H2.27557V51H0.958807ZM5.26705 47.0625L7.4233 51H5.9233L3.80966 47.0625H5.26705ZM11.266 51.1321C10.6523 51.1321 10.1168 50.9915 9.65945 50.7102C9.20206 50.429 8.84695 50.0355 8.59411 49.5298C8.34126 49.0241 8.21484 48.4332 8.21484 47.7571C8.21484 47.0781 8.34126 46.4844 8.59411 45.9759C8.84695 45.4673 9.20206 45.0724 9.65945 44.7912C10.1168 44.5099 10.6523 44.3693 11.266 44.3693C11.8796 44.3693 12.4151 44.5099 12.8725 44.7912C13.3299 45.0724 13.685 45.4673 13.9379 45.9759C14.1907 46.4844 14.3171 47.0781 14.3171 47.7571C14.3171 48.4332 14.1907 49.0241 13.9379 49.5298C13.685 50.0355 13.3299 50.429 12.8725 50.7102C12.4151 50.9915 11.8796 51.1321 11.266 51.1321ZM11.2702 50.0625C11.668 50.0625 11.9975 49.9574 12.2589 49.7472C12.5202 49.5369 12.7134 49.2571 12.8384 48.9077C12.9663 48.5582 13.0302 48.1733 13.0302 47.7528C13.0302 47.3352 12.9663 46.9517 12.8384 46.6023C12.7134 46.25 12.5202 45.9673 12.2589 45.7543C11.9975 45.5412 11.668 45.4347 11.2702 45.4347C10.8697 45.4347 10.5373 45.5412 10.2731 45.7543C10.0117 45.9673 9.81712 46.25 9.68928 46.6023C9.56428 46.9517 9.50178 47.3352 9.50178 47.7528C9.50178 48.1733 9.56428 48.5582 9.68928 48.9077C9.81712 49.2571 10.0117 49.5369 10.2731 49.7472C10.5373 49.9574 10.8697 50.0625 11.2702 50.0625ZM19.8857 48.2855V44.4545H21.1641V51H19.9112V49.8665H19.843C19.6925 50.2159 19.451 50.5071 19.1186 50.7401C18.7891 50.9702 18.3786 51.0852 17.8871 51.0852C17.4666 51.0852 17.0945 50.9929 16.7706 50.8082C16.4496 50.6207 16.1967 50.3438 16.0121 49.9773C15.8303 49.6108 15.7393 49.1577 15.7393 48.6179V44.4545H17.0135V48.4645C17.0135 48.9105 17.1371 49.2656 17.3842 49.5298C17.6314 49.794 17.9524 49.9261 18.3473 49.9261C18.5859 49.9261 18.8232 49.8665 19.0589 49.7472C19.2976 49.6278 19.495 49.4474 19.6513 49.206C19.8104 48.9645 19.8885 48.6577 19.8857 48.2855ZM25.9315 44.4545V45.4773H22.3562V44.4545H25.9315ZM23.315 42.8864H24.5891V49.0781C24.5891 49.3253 24.6261 49.5114 24.6999 49.6364C24.7738 49.7585 24.869 49.8423 24.9854 49.8878C25.1048 49.9304 25.234 49.9517 25.3732 49.9517C25.4755 49.9517 25.565 49.9446 25.6417 49.9304C25.7184 49.9162 25.7781 49.9048 25.8207 49.8963L26.0508 50.9489C25.9769 50.9773 25.8718 51.0057 25.7354 51.0341C25.5991 51.0653 25.4286 51.0824 25.2241 51.0852C24.8888 51.0909 24.5763 51.0312 24.2866 50.9062C23.9968 50.7812 23.7624 50.5881 23.5835 50.3267C23.4045 50.0653 23.315 49.7372 23.315 49.3423V42.8864ZM30.0916 51.1321C29.4467 51.1321 28.8913 50.9943 28.4254 50.7188C27.9624 50.4403 27.6044 50.0497 27.3516 49.5469C27.1016 49.0412 26.9766 48.4489 26.9766 47.7699C26.9766 47.0994 27.1016 46.5085 27.3516 45.9972C27.6044 45.4858 27.9567 45.0866 28.4084 44.7997C28.8629 44.5128 29.3942 44.3693 30.0021 44.3693C30.3714 44.3693 30.7294 44.4304 31.076 44.5526C31.4226 44.6747 31.7337 44.8665 32.0092 45.1278C32.2848 45.3892 32.5021 45.7287 32.6612 46.1463C32.8203 46.5611 32.8999 47.0653 32.8999 47.6591V48.1108H27.6967V47.1562H31.6513C31.6513 46.821 31.5831 46.5241 31.4467 46.2656C31.3104 46.0043 31.1186 45.7983 30.8714 45.6477C30.6271 45.4972 30.3402 45.4219 30.0107 45.4219C29.6527 45.4219 29.3402 45.5099 29.0732 45.6861C28.8089 45.8594 28.6044 46.0866 28.4595 46.3679C28.3175 46.6463 28.2464 46.9489 28.2464 47.2756V48.0213C28.2464 48.4588 28.3232 48.831 28.4766 49.1378C28.6328 49.4446 28.8501 49.679 29.1286 49.8409C29.407 50 29.7322 50.0795 30.1044 50.0795C30.3459 50.0795 30.5661 50.0455 30.7649 49.9773C30.9638 49.9062 31.1357 49.8011 31.2805 49.6619C31.4254 49.5227 31.5362 49.3509 31.6129 49.1463L32.8189 49.3636C32.7223 49.7187 32.549 50.0298 32.299 50.2969C32.0518 50.5611 31.7408 50.767 31.3658 50.9148C30.9936 51.0597 30.5689 51.1321 30.0916 51.1321ZM35.5877 47.1136V51H34.3136V44.4545H35.5366V45.5199H35.6175C35.7681 45.1733 36.0039 44.8949 36.3249 44.6847C36.6488 44.4744 37.0565 44.3693 37.5479 44.3693C37.994 44.3693 38.3846 44.4631 38.7198 44.6506C39.055 44.8352 39.315 45.1108 39.4996 45.4773C39.6843 45.8437 39.7766 46.2969 39.7766 46.8366V51H38.5025V46.9901C38.5025 46.5156 38.3789 46.1449 38.1317 45.8778C37.8846 45.608 37.5451 45.473 37.1133 45.473C36.8178 45.473 36.555 45.5369 36.3249 45.6648C36.0977 45.7926 35.9173 45.9801 35.7837 46.2273C35.6531 46.4716 35.5877 46.767 35.5877 47.1136ZM41.4854 53.4545V44.4545H42.7298V45.5156H42.8363C42.9102 45.3793 43.0167 45.2216 43.1559 45.0426C43.2951 44.8636 43.4883 44.7074 43.7354 44.5739C43.9826 44.4375 44.3093 44.3693 44.7156 44.3693C45.244 44.3693 45.7156 44.5028 46.1303 44.7699C46.5451 45.0369 46.8704 45.4219 47.1062 45.9247C47.3448 46.4276 47.4641 47.0327 47.4641 47.7401C47.4641 48.4474 47.3462 49.054 47.1104 49.5597C46.8746 50.0625 46.5508 50.4503 46.1388 50.723C45.7269 50.9929 45.2567 51.1278 44.7283 51.1278C44.3306 51.1278 44.0053 51.0611 43.7525 50.9276C43.5025 50.794 43.3065 50.6378 43.1644 50.4588C43.0224 50.2798 42.913 50.1207 42.8363 49.9815H42.7596V53.4545H41.4854ZM42.734 47.7273C42.734 48.1875 42.8008 48.5909 42.9343 48.9375C43.0678 49.2841 43.261 49.5554 43.5138 49.7514C43.7667 49.9446 44.0763 50.0412 44.4428 50.0412C44.8235 50.0412 45.1417 49.9403 45.3974 49.7386C45.6531 49.5341 45.8462 49.2571 45.9769 48.9077C46.1104 48.5582 46.1772 48.1648 46.1772 47.7273C46.1772 47.2955 46.1119 46.9077 45.9812 46.5639C45.8533 46.2202 45.6602 45.9489 45.4016 45.75C45.146 45.5511 44.8263 45.4517 44.4428 45.4517C44.0735 45.4517 43.761 45.5469 43.5053 45.7372C43.2525 45.9276 43.0607 46.1932 42.93 46.5341C42.7994 46.875 42.734 47.2727 42.734 47.7273ZM50.1658 42.2727V51H48.8917V42.2727H50.1658ZM53.7848 51.1449C53.37 51.1449 52.995 51.0682 52.6598 50.9148C52.3246 50.7585 52.0589 50.5327 51.8629 50.2372C51.6697 49.9418 51.5732 49.5795 51.5732 49.1506C51.5732 48.7812 51.6442 48.4773 51.7862 48.2386C51.9283 48 52.12 47.8111 52.3615 47.6719C52.603 47.5327 52.8729 47.4276 53.1712 47.3565C53.4695 47.2855 53.7734 47.2315 54.0831 47.1946C54.4751 47.1491 54.7933 47.1122 55.0376 47.0838C55.282 47.0526 55.4595 47.0028 55.5703 46.9347C55.6811 46.8665 55.7365 46.7557 55.7365 46.6023V46.5724C55.7365 46.2003 55.6314 45.9119 55.4212 45.7074C55.2138 45.5028 54.9041 45.4006 54.4922 45.4006C54.0632 45.4006 53.7251 45.4957 53.478 45.6861C53.2337 45.8736 53.0646 46.0824 52.9709 46.3125L51.7734 46.0398C51.9155 45.642 52.1229 45.321 52.3956 45.0767C52.6712 44.8295 52.9879 44.6506 53.3459 44.5398C53.7038 44.4261 54.0803 44.3693 54.4751 44.3693C54.7365 44.3693 55.0135 44.4006 55.3061 44.4631C55.6016 44.5227 55.8771 44.6335 56.1328 44.7955C56.3913 44.9574 56.603 45.1889 56.7678 45.4901C56.9325 45.7884 57.0149 46.1761 57.0149 46.6534V51H55.7706V50.1051H55.7195C55.6371 50.2699 55.5135 50.4318 55.3487 50.5909C55.1839 50.75 54.9723 50.8821 54.7138 50.9872C54.4553 51.0923 54.1456 51.1449 53.7848 51.1449ZM54.0618 50.1222C54.4141 50.1222 54.7152 50.0526 54.9652 49.9134C55.218 49.7741 55.4098 49.5923 55.5405 49.3679C55.674 49.1406 55.7408 48.8977 55.7408 48.6392V47.7955C55.6953 47.8409 55.6072 47.8835 55.4766 47.9233C55.3487 47.9602 55.2024 47.9929 55.0376 48.0213C54.8729 48.0469 54.7124 48.071 54.5561 48.0938C54.3999 48.1136 54.2692 48.1307 54.1641 48.1449C53.9169 48.1761 53.6911 48.2287 53.4865 48.3026C53.2848 48.3764 53.1229 48.483 53.0007 48.6222C52.8814 48.7585 52.8217 48.9403 52.8217 49.1676C52.8217 49.483 52.9382 49.7216 53.1712 49.8835C53.4041 50.0426 53.701 50.1222 54.0618 50.1222ZM59.9862 47.1136V51H58.712V44.4545H59.935V45.5199H60.016C60.1665 45.1733 60.4023 44.8949 60.7234 44.6847C61.0472 44.4744 61.4549 44.3693 61.9464 44.3693C62.3924 44.3693 62.783 44.4631 63.1183 44.6506C63.4535 44.8352 63.7134 45.1108 63.8981 45.4773C64.0827 45.8437 64.1751 46.2969 64.1751 46.8366V51H62.9009V46.9901C62.9009 46.5156 62.7773 46.1449 62.5302 45.8778C62.283 45.608 61.9435 45.473 61.5117 45.473C61.2163 45.473 60.9535 45.5369 60.7234 45.6648C60.4961 45.7926 60.3157 45.9801 60.1822 46.2273C60.0515 46.4716 59.9862 46.767 59.9862 47.1136ZM70.0302 48.2855V44.4545H71.3086V51H70.0558V49.8665H69.9876C69.837 50.2159 69.5955 50.5071 69.2631 50.7401C68.9336 50.9702 68.5231 51.0852 68.0316 51.0852C67.6112 51.0852 67.239 50.9929 66.9151 50.8082C66.5941 50.6207 66.3413 50.3438 66.1566 49.9773C65.9748 49.6108 65.8839 49.1577 65.8839 48.6179V44.4545H67.158V48.4645C67.158 48.9105 67.2816 49.2656 67.5288 49.5298C67.7759 49.794 68.0969 49.9261 68.4918 49.9261C68.7305 49.9261 68.9677 49.8665 69.2035 49.7472C69.4421 49.6278 69.6396 49.4474 69.7958 49.206C69.9549 48.9645 70.033 48.6577 70.0302 48.2855ZM74.2947 47.1136V51H73.0206V44.4545H74.2436V45.5199H74.3246C74.4751 45.1733 74.7109 44.8949 75.032 44.6847C75.3558 44.4744 75.7635 44.3693 76.255 44.3693C76.701 44.3693 77.0916 44.4631 77.4268 44.6506C77.7621 44.8352 78.022 45.1108 78.2067 45.4773C78.3913 45.8437 78.4837 46.2969 78.4837 46.8366V51H77.2095V46.9901C77.2095 46.5156 77.0859 46.1449 76.8388 45.8778C76.5916 45.608 76.2521 45.473 75.8203 45.473C75.5249 45.473 75.2621 45.5369 75.032 45.6648C74.8047 45.7926 74.6243 45.9801 74.4908 46.2273C74.3601 46.4716 74.2947 46.767 74.2947 47.1136ZM82.9368 53.5909C82.4169 53.5909 81.9695 53.5227 81.5945 53.3864C81.2223 53.25 80.9183 53.0696 80.6825 52.8452C80.4467 52.6207 80.2706 52.375 80.1541 52.108L81.2493 51.6562C81.326 51.7812 81.4283 51.9134 81.5561 52.0526C81.6868 52.1946 81.8629 52.3153 82.0845 52.4148C82.3089 52.5142 82.5973 52.5639 82.9496 52.5639C83.4325 52.5639 83.8317 52.446 84.147 52.2102C84.4624 51.9773 84.62 51.6051 84.62 51.0938V49.8068H84.5391C84.4624 49.946 84.3516 50.1009 84.2067 50.2713C84.0646 50.4418 83.8686 50.5895 83.6186 50.7145C83.3686 50.8395 83.0433 50.902 82.6428 50.902C82.1257 50.902 81.6598 50.7812 81.245 50.5398C80.8331 50.2955 80.5064 49.9361 80.2649 49.4616C80.0263 48.9844 79.907 48.3977 79.907 47.7017C79.907 47.0057 80.0249 46.4091 80.2607 45.9119C80.4993 45.4148 80.826 45.0341 81.2408 44.7699C81.6555 44.5028 82.1257 44.3693 82.6513 44.3693C83.0575 44.3693 83.3857 44.4375 83.6357 44.5739C83.8857 44.7074 84.0803 44.8636 84.2195 45.0426C84.3615 45.2216 84.4709 45.3793 84.5476 45.5156H84.6413V44.4545H85.8899V51.1449C85.8899 51.7074 85.7592 52.169 85.4979 52.5298C85.2365 52.8906 84.8828 53.1577 84.4368 53.331C83.9936 53.5043 83.4936 53.5909 82.9368 53.5909ZM82.924 49.8452C83.2905 49.8452 83.6001 49.7599 83.853 49.5895C84.1087 49.4162 84.3018 49.169 84.4325 48.848C84.5661 48.5241 84.6328 48.1364 84.6328 47.6847C84.6328 47.2443 84.5675 46.8565 84.4368 46.5213C84.3061 46.1861 84.1143 45.9247 83.8615 45.7372C83.6087 45.5469 83.2962 45.4517 82.924 45.4517C82.5405 45.4517 82.2209 45.5511 81.9652 45.75C81.7095 45.946 81.5163 46.2131 81.3857 46.5511C81.2578 46.8892 81.1939 47.267 81.1939 47.6847C81.1939 48.1136 81.2592 48.4901 81.3899 48.8139C81.5206 49.1378 81.7138 49.3906 81.9695 49.5724C82.228 49.7543 82.5462 49.8452 82.924 49.8452Z" fill="#699BF7"/>
</svg>
