<svg width="87" height="52" viewBox="0 0 87 52" fill="none" xmlns="http://www.w3.org/2000/svg">
<path d="M43.5006 0C36.6572 0 31 5.2725 31 11.759C31 14.2579 31.8475 16.5844 33.2709 18.4891L41.3947 29.7089L41.4291 29.7508C42.07 30.5379 42.7944 31.0723 43.6456 30.992C44.4969 30.9121 45.0494 30.3286 45.5697 29.6658L45.5969 29.6317L54.5759 17.2516L54.5816 17.2419C54.7916 16.8854 54.9456 16.5218 55.0778 16.1681C55.6848 14.7761 55.9987 13.2756 56 11.759C56 5.27281 50.3441 0 43.5006 0ZM43.5006 1.6492C49.4844 1.6492 54.3359 6.22482 54.3359 11.759C54.3359 13.091 54.0547 14.3611 53.545 15.5307L53.5356 15.5521L53.5275 15.5738C53.4144 15.8795 53.2912 16.16 53.1453 16.4087L53.1441 16.4114L44.2403 28.6701C43.8256 29.1919 43.5334 29.3459 43.4875 29.3503C43.4419 29.3546 43.2209 29.3109 42.7469 28.7383L34.6531 17.5681L34.6297 17.5371C33.3894 15.89 32.6641 13.9023 32.6641 11.7586C32.6641 6.22513 37.5169 1.64889 43.5006 1.64889V1.6492ZM41.2287 7.47877C38.9544 7.47877 37.1131 9.21385 37.1053 11.3268V11.3538L37.1081 11.3808C37.3037 13.2113 38.8303 14.9572 40.3125 16.3494C41.7197 17.6716 43.0144 18.5548 43.1359 18.6373L43.4141 18.8267L43.6956 18.6413C43.8209 18.5582 45.2087 17.635 46.68 16.2902C48.2325 14.8707 49.8044 13.1493 49.8341 11.346V11.337C49.8328 9.21912 47.9872 7.47877 45.7088 7.47877C44.9953 7.47877 44.3275 7.84767 43.6312 8.23238L43.4688 8.32259L43.3063 8.23269C42.61 7.84736 41.9425 7.47877 41.2291 7.47877H41.2287Z" fill="#FA9A94"/>
<path d="M8.94673 49V48.1264L12.4922 43.6222V43.5625H9.06179V42.4545H14.0817V43.3835L10.6726 47.8324V47.892H14.201V49H8.94673ZM19.8505 46.2855V42.4545H21.1289V49H19.8761V47.8665H19.8079C19.6573 48.2159 19.4158 48.5071 19.0835 48.7401C18.7539 48.9702 18.3434 49.0852 17.8519 49.0852C17.4315 49.0852 17.0593 48.9929 16.7354 48.8082C16.4144 48.6207 16.1616 48.3438 15.9769 47.9773C15.7951 47.6108 15.7042 47.1577 15.7042 46.6179V42.4545H16.9783V46.4645C16.9783 46.9105 17.1019 47.2656 17.3491 47.5298C17.5962 47.794 17.9173 47.9261 18.3121 47.9261C18.5508 47.9261 18.788 47.8665 19.0238 47.7472C19.2624 47.6278 19.4599 47.4474 19.6161 47.206C19.7752 46.9645 19.8533 46.6577 19.8505 46.2855ZM26.119 49V40.2727H31.5309V41.4062H27.4357V44.0653H31.1431V45.1946H27.4357V49H26.119ZM34.9293 49.1449C34.5146 49.1449 34.1396 49.0682 33.8043 48.9148C33.4691 48.7585 33.2035 48.5327 33.0075 48.2372C32.8143 47.9418 32.7177 47.5795 32.7177 47.1506C32.7177 46.7812 32.7887 46.4773 32.9308 46.2386C33.0728 46 33.2646 45.8111 33.506 45.6719C33.7475 45.5327 34.0174 45.4276 34.3157 45.3565C34.614 45.2855 34.918 45.2315 35.2276 45.1946C35.6197 45.1491 35.9379 45.1122 36.1822 45.0838C36.4265 45.0526 36.604 45.0028 36.7148 44.9347C36.8256 44.8665 36.881 44.7557 36.881 44.6023V44.5724C36.881 44.2003 36.7759 43.9119 36.5657 43.7074C36.3583 43.5028 36.0487 43.4006 35.6367 43.4006C35.2077 43.4006 34.8697 43.4957 34.6225 43.6861C34.3782 43.8736 34.2092 44.0824 34.1154 44.3125L32.918 44.0398C33.06 43.642 33.2674 43.321 33.5401 43.0767C33.8157 42.8295 34.1325 42.6506 34.4904 42.5398C34.8484 42.4261 35.2248 42.3693 35.6197 42.3693C35.881 42.3693 36.158 42.4006 36.4506 42.4631C36.7461 42.5227 37.0217 42.6335 37.2773 42.7955C37.5359 42.9574 37.7475 43.1889 37.9123 43.4901C38.0771 43.7884 38.1594 44.1761 38.1594 44.6534V49H36.9151V48.1051H36.864C36.7816 48.2699 36.658 48.4318 36.4933 48.5909C36.3285 48.75 36.1168 48.8821 35.8583 48.9872C35.5998 49.0923 35.2901 49.1449 34.9293 49.1449ZM35.2063 48.1222C35.5586 48.1222 35.8597 48.0526 36.1097 47.9134C36.3626 47.7741 36.5543 47.5923 36.685 47.3679C36.8185 47.1406 36.8853 46.8977 36.8853 46.6392V45.7955C36.8398 45.8409 36.7518 45.8835 36.6211 45.9233C36.4933 45.9602 36.3469 45.9929 36.1822 46.0213C36.0174 46.0469 35.8569 46.071 35.7006 46.0938C35.5444 46.1136 35.4137 46.1307 35.3086 46.1449C35.0614 46.1761 34.8356 46.2287 34.631 46.3026C34.4293 46.3764 34.2674 46.483 34.1452 46.6222C34.0259 46.7585 33.9663 46.9403 33.9663 47.1676C33.9663 47.483 34.0827 47.7216 34.3157 47.8835C34.5487 48.0426 34.8455 48.1222 35.2063 48.1222ZM45.2216 42.4545L42.848 49H41.4844L39.1065 42.4545H40.4744L42.1321 47.4915H42.2003L43.8537 42.4545H45.2216ZM48.9535 49.1321C48.3398 49.1321 47.8043 48.9915 47.3469 48.7102C46.8896 48.429 46.5344 48.0355 46.2816 47.5298C46.0288 47.0241 45.9023 46.4332 45.9023 45.7571C45.9023 45.0781 46.0288 44.4844 46.2816 43.9759C46.5344 43.4673 46.8896 43.0724 47.3469 42.7912C47.8043 42.5099 48.3398 42.3693 48.9535 42.3693C49.5671 42.3693 50.1026 42.5099 50.56 42.7912C51.0174 43.0724 51.3725 43.4673 51.6254 43.9759C51.8782 44.4844 52.0046 45.0781 52.0046 45.7571C52.0046 46.4332 51.8782 47.0241 51.6254 47.5298C51.3725 48.0355 51.0174 48.429 50.56 48.7102C50.1026 48.9915 49.5671 49.1321 48.9535 49.1321ZM48.9577 48.0625C49.3555 48.0625 49.685 47.9574 49.9464 47.7472C50.2077 47.5369 50.4009 47.2571 50.5259 46.9077C50.6538 46.5582 50.7177 46.1733 50.7177 45.7528C50.7177 45.3352 50.6538 44.9517 50.5259 44.6023C50.4009 44.25 50.2077 43.9673 49.9464 43.7543C49.685 43.5412 49.3555 43.4347 48.9577 43.4347C48.5572 43.4347 48.2248 43.5412 47.9606 43.7543C47.6992 43.9673 47.5046 44.25 47.3768 44.6023C47.2518 44.9517 47.1893 45.3352 47.1893 45.7528C47.1893 46.1733 47.2518 46.5582 47.3768 46.9077C47.5046 47.2571 47.6992 47.5369 47.9606 47.7472C48.2248 47.9574 48.5572 48.0625 48.9577 48.0625ZM53.4268 49V42.4545H54.6584V43.4943H54.7266C54.8459 43.142 55.0561 42.8651 55.3572 42.6634C55.6612 42.4588 56.005 42.3565 56.3885 42.3565C56.468 42.3565 56.5618 42.3594 56.6697 42.3651C56.7805 42.3707 56.8672 42.3778 56.9297 42.3864V43.6051C56.8786 43.5909 56.7876 43.5753 56.657 43.5582C56.5263 43.5384 56.3956 43.5284 56.2649 43.5284C55.9638 43.5284 55.6953 43.5923 55.4595 43.7202C55.2266 43.8452 55.0419 44.0199 54.9055 44.2443C54.7692 44.4659 54.701 44.7187 54.701 45.0028V49H53.4268ZM58.0323 49V42.4545H59.3065V49H58.0323ZM58.6758 41.4446C58.4542 41.4446 58.2638 41.3707 58.1048 41.223C57.9485 41.0724 57.8704 40.8935 57.8704 40.6861C57.8704 40.4759 57.9485 40.2969 58.1048 40.1491C58.2638 39.9986 58.4542 39.9233 58.6758 39.9233C58.8974 39.9233 59.0863 39.9986 59.2425 40.1491C59.4016 40.2969 59.4812 40.4759 59.4812 40.6861C59.4812 40.8935 59.4016 41.0724 59.2425 41.223C59.0863 41.3707 58.8974 41.4446 58.6758 41.4446ZM64.076 42.4545V43.4773H60.5007V42.4545H64.076ZM61.4595 40.8864H62.7337V47.0781C62.7337 47.3253 62.7706 47.5114 62.8445 47.6364C62.9183 47.7585 63.0135 47.8423 63.13 47.8878C63.2493 47.9304 63.3786 47.9517 63.5178 47.9517C63.62 47.9517 63.7095 47.9446 63.7862 47.9304C63.8629 47.9162 63.9226 47.9048 63.9652 47.8963L64.1953 48.9489C64.1214 48.9773 64.0163 49.0057 63.88 49.0341C63.7436 49.0653 63.5732 49.0824 63.3686 49.0852C63.0334 49.0909 62.7209 49.0312 62.4311 48.9062C62.1413 48.7812 61.907 48.5881 61.728 48.3267C61.549 48.0653 61.4595 47.7372 61.4595 47.3423V40.8864ZM68.2362 49.1321C67.5913 49.1321 67.0359 48.9943 66.57 48.7188C66.1069 48.4403 65.7489 48.0497 65.4961 47.5469C65.2461 47.0412 65.1211 46.4489 65.1211 45.7699C65.1211 45.0994 65.2461 44.5085 65.4961 43.9972C65.7489 43.4858 66.1012 43.0866 66.5529 42.7997C67.0075 42.5128 67.5387 42.3693 68.1467 42.3693C68.516 42.3693 68.8739 42.4304 69.2205 42.5526C69.5671 42.6747 69.8782 42.8665 70.1538 43.1278C70.4293 43.3892 70.6467 43.7287 70.8058 44.1463C70.9648 44.5611 71.0444 45.0653 71.0444 45.6591V46.1108H65.8413V45.1562H69.7958C69.7958 44.821 69.7276 44.5241 69.5913 44.2656C69.4549 44.0043 69.2631 43.7983 69.016 43.6477C68.7717 43.4972 68.4847 43.4219 68.1552 43.4219C67.7972 43.4219 67.4847 43.5099 67.2177 43.6861C66.9535 43.8594 66.7489 44.0866 66.604 44.3679C66.462 44.6463 66.391 44.9489 66.391 45.2756V46.0213C66.391 46.4588 66.4677 46.831 66.6211 47.1378C66.7773 47.4446 66.9947 47.679 67.2731 47.8409C67.5515 48 67.8768 48.0795 68.2489 48.0795C68.4904 48.0795 68.7106 48.0455 68.9094 47.9773C69.1083 47.9062 69.2802 47.8011 69.4251 47.6619C69.57 47.5227 69.6808 47.3509 69.7575 47.1463L70.9634 47.3636C70.8668 47.7187 70.6935 48.0298 70.4435 48.2969C70.1964 48.5611 69.8853 48.767 69.5103 48.9148C69.1381 49.0597 68.7134 49.1321 68.2362 49.1321ZM73.7322 45.1136V49H72.4581V42.4545H73.6811V43.5199H73.7621C73.9126 43.1733 74.1484 42.8949 74.4695 42.6847C74.7933 42.4744 75.201 42.3693 75.6925 42.3693C76.1385 42.3693 76.5291 42.4631 76.8643 42.6506C77.1996 42.8352 77.4595 43.1108 77.6442 43.4773C77.8288 43.8437 77.9212 44.2969 77.9212 44.8366V49H76.647V44.9901C76.647 44.5156 76.5234 44.1449 76.2763 43.8778C76.0291 43.608 75.6896 43.473 75.2578 43.473C74.9624 43.473 74.6996 43.5369 74.4695 43.6648C74.2422 43.7926 74.0618 43.9801 73.9283 44.2273C73.7976 44.4716 73.7322 44.767 73.7322 45.1136Z" fill="#FA9A94"/>
</svg>
