<svg width="32" height="32" viewBox="0 0 32 32" fill="none" xmlns="http://www.w3.org/2000/svg">
<path d="M19.6667 8.24939C20.1807 8.18473 20.6953 8.57073 20.6953 9.08539L22.368 24.9727C22.432 25.4874 22.046 26.0021 21.5313 26.0021L5.70866 27.6747C5.19399 27.7387 4.67933 27.3527 4.67933 26.8381L3.00733 11.0154C2.94266 10.5007 3.32866 9.98606 3.84333 9.98606L19.6667 8.24939Z" stroke="#757575" stroke-width="1.66667" stroke-linecap="round" stroke-linejoin="round"/>
<path d="M10.854 9.21397L11.3047 5.16197C11.3687 4.64731 11.8193 4.26131 12.334 4.32531L28.1567 5.99797C28.6713 6.06197 29.0573 6.51264 28.9933 7.02731L27.32 22.85C27.32 23.3006 26.8053 23.6866 26.2907 23.6866L22.174 23.236M8.60333 12.6233C7.44533 12.752 6.54466 13.7806 6.67333 15.0033C6.802 16.1606 7.83133 17.0613 9.05333 16.9326C10.2113 16.804 11.1113 15.7746 10.9827 14.5526C10.854 13.3306 9.76133 12.4946 8.60333 12.6233ZM14.4567 16.354L11.3687 20.1486C11.24 20.2773 11.0473 20.342 10.9187 20.2133L10.2113 19.634C10.0827 19.5053 9.82466 19.57 9.76066 19.6986L6.416 23.8153C6.28733 23.944 6.28733 24.2013 6.48066 24.2653C6.416 24.33 6.54466 24.33 6.60933 24.33L19.9233 22.9146C20.1167 22.9146 20.2453 22.7213 20.2453 22.5286C20.2453 22.4646 20.1807 22.4 20.1807 22.3353L14.9707 16.2893C14.7773 16.2253 14.5853 16.2253 14.4567 16.354Z" stroke="#757575" stroke-width="1.66667" stroke-linecap="round" stroke-linejoin="round"/>
<path d="M21.8533 19.956L25.3907 20.342C25.584 20.342 25.7127 20.2134 25.7773 20.02C25.7773 19.956 25.7773 19.8914 25.7127 19.8267L21.8527 12.816C21.7887 12.6874 21.5313 12.6227 21.4027 12.6874L21.1453 12.9447" stroke="#757575" stroke-width="1.66667" stroke-linecap="round" stroke-linejoin="round"/>
</svg>
