<svg width="76" height="51" viewBox="0 0 76 51" fill="none" xmlns="http://www.w3.org/2000/svg">
<path d="M34.6322 30.0334L34.6322 19.9017C33.8181 19.8112 33.0114 19.5775 32.2124 19.2006C31.4133 18.8236 30.682 18.3035 30.0186 17.6401C28.3753 15.9967 27.5536 14.037 27.5536 11.761C27.5536 9.48374 28.3753 7.52343 30.0186 5.88003C31.662 4.23664 33.6224 3.41494 35.8996 3.41494C38.1756 3.41494 40.1353 4.23664 41.7787 5.88003C43.4221 7.52343 44.2441 9.48344 44.2447 11.7601C44.2441 14.0367 43.4221 15.9967 41.7787 17.6401C41.1153 18.3035 40.3841 18.8236 39.585 19.2006C38.7859 19.5775 37.9793 19.8112 37.1651 19.9017L37.1652 30.0786C37.1652 30.4103 37.0445 30.6968 36.8033 30.938C36.5621 31.1793 36.2605 31.2999 35.8987 31.2999C35.567 31.2999 35.273 31.1717 35.0167 30.9154C34.7604 30.6591 34.6322 30.3651 34.6322 30.0334ZM31.8279 15.8309C32.9587 16.9616 34.3156 17.5273 35.8987 17.5279C37.4818 17.5273 38.8387 16.9616 39.9695 15.8309C41.1003 14.7001 41.6659 13.3432 41.6665 11.7601C41.6659 10.177 41.1003 8.82005 39.9695 7.68928C38.8387 6.5585 37.4818 5.99281 35.8987 5.99221C34.3156 5.99281 32.9587 6.5585 31.8279 7.68928C30.6971 8.82005 30.1314 10.177 30.1308 11.7601C30.1314 13.3432 30.6971 14.7001 31.8279 15.8309Z" fill="#787777"/>
<path d="M6.61985 39.2727H7.94087V45.0128C7.94087 45.6236 7.79741 46.1648 7.51048 46.6364C7.22354 47.1051 6.82014 47.4744 6.30025 47.7443C5.78036 48.0114 5.17099 48.1449 4.47212 48.1449C3.7761 48.1449 3.16815 48.0114 2.64826 47.7443C2.12837 47.4744 1.72496 47.1051 1.43803 46.6364C1.1511 46.1648 1.00763 45.6236 1.00763 45.0128V39.2727H2.3244V44.9062C2.3244 45.3011 2.41104 45.652 2.58434 45.9588C2.76048 46.2656 3.00906 46.5071 3.33008 46.6832C3.6511 46.8565 4.03178 46.9432 4.47212 46.9432C4.91531 46.9432 5.29741 46.8565 5.61843 46.6832C5.94229 46.5071 6.18945 46.2656 6.35991 45.9588C6.5332 45.652 6.61985 45.3011 6.61985 44.9062V39.2727ZM9.75302 48V41.4545H10.976V42.5199H11.057C11.1934 42.1591 11.4164 41.8778 11.726 41.6761C12.0357 41.4716 12.4064 41.3693 12.8382 41.3693C13.2757 41.3693 13.6422 41.4716 13.9377 41.6761C14.236 41.8807 14.4561 42.1619 14.5982 42.5199H14.6664C14.8226 42.1705 15.0712 41.892 15.4121 41.6847C15.753 41.4744 16.1593 41.3693 16.6309 41.3693C17.2246 41.3693 17.709 41.5554 18.084 41.9276C18.4618 42.2997 18.6507 42.8608 18.6507 43.6108V48H17.3766V43.7301C17.3766 43.2869 17.2559 42.9659 17.0144 42.767C16.7729 42.5682 16.4846 42.4688 16.1493 42.4688C15.7346 42.4688 15.4121 42.5966 15.182 42.8523C14.9519 43.1051 14.8368 43.4304 14.8368 43.8281V48H13.5669V43.6491C13.5669 43.294 13.4561 43.0085 13.2346 42.7926C13.013 42.5767 12.7246 42.4688 12.3695 42.4688C12.128 42.4688 11.905 42.5327 11.7005 42.6605C11.4988 42.7855 11.3354 42.9602 11.2104 43.1847C11.0882 43.4091 11.0272 43.669 11.0272 43.9645V48H9.75302ZM26.3553 48.1321C25.7104 48.1321 25.155 47.9943 24.6891 47.7188C24.226 47.4403 23.8681 47.0497 23.6152 46.5469C23.3652 46.0412 23.2402 45.4489 23.2402 44.7699C23.2402 44.0994 23.3652 43.5085 23.6152 42.9972C23.8681 42.4858 24.2203 42.0866 24.6721 41.7997C25.1266 41.5128 25.6578 41.3693 26.2658 41.3693C26.6351 41.3693 26.9931 41.4304 27.3397 41.5526C27.6863 41.6747 27.9973 41.8665 28.2729 42.1278C28.5485 42.3892 28.7658 42.7287 28.9249 43.1463C29.084 43.5611 29.1635 44.0653 29.1635 44.6591V45.1108H23.9604V44.1562H27.915C27.915 43.821 27.8468 43.5241 27.7104 43.2656C27.574 43.0043 27.3823 42.7983 27.1351 42.6477C26.8908 42.4972 26.6039 42.4219 26.2743 42.4219C25.9164 42.4219 25.6039 42.5099 25.3368 42.6861C25.0726 42.8594 24.8681 43.0866 24.7232 43.3679C24.5811 43.6463 24.5101 43.9489 24.5101 44.2756V45.0213C24.5101 45.4588 24.5868 45.831 24.7402 46.1378C24.8965 46.4446 25.1138 46.679 25.3922 46.8409C25.6706 47 25.9959 47.0795 26.3681 47.0795C26.6096 47.0795 26.8297 47.0455 27.0286 46.9773C27.2275 46.9062 27.3993 46.8011 27.5442 46.6619C27.6891 46.5227 27.7999 46.3509 27.8766 46.1463L29.0826 46.3636C28.986 46.7187 28.8127 47.0298 28.5627 47.2969C28.3155 47.5611 28.0044 47.767 27.6294 47.9148C27.2573 48.0597 26.8326 48.1321 26.3553 48.1321ZM30.5772 48V41.4545H31.8514V48H30.5772ZM31.2207 40.4446C30.9991 40.4446 30.8088 40.3707 30.6497 40.223C30.4934 40.0724 30.4153 39.8935 30.4153 39.6861C30.4153 39.4759 30.4934 39.2969 30.6497 39.1491C30.8088 38.9986 30.9991 38.9233 31.2207 38.9233C31.4423 38.9233 31.6312 38.9986 31.7875 39.1491C31.9466 39.2969 32.0261 39.4759 32.0261 39.6861C32.0261 39.8935 31.9466 40.0724 31.7875 40.223C31.6312 40.3707 31.4423 40.4446 31.2207 40.4446ZM34.8397 44.1136V48H33.5655V41.4545H34.7885V42.5199H34.8695C35.0201 42.1733 35.2559 41.8949 35.5769 41.6847C35.9007 41.4744 36.3084 41.3693 36.7999 41.3693C37.2459 41.3693 37.6365 41.4631 37.9718 41.6506C38.307 41.8352 38.5669 42.1108 38.7516 42.4773C38.9363 42.8437 39.0286 43.2969 39.0286 43.8366V48H37.7544V43.9901C37.7544 43.5156 37.6309 43.1449 37.3837 42.8778C37.1365 42.608 36.7971 42.473 36.3652 42.473C36.0698 42.473 35.807 42.5369 35.5769 42.6648C35.3496 42.7926 35.1692 42.9801 35.0357 43.2273C34.905 43.4716 34.8397 43.767 34.8397 44.1136ZM43.5584 48.1321C42.9135 48.1321 42.3581 47.9943 41.8922 47.7188C41.4292 47.4403 41.0712 47.0497 40.8184 46.5469C40.5684 46.0412 40.4434 45.4489 40.4434 44.7699C40.4434 44.0994 40.5684 43.5085 40.8184 42.9972C41.0712 42.4858 41.4235 42.0866 41.8752 41.7997C42.3297 41.5128 42.861 41.3693 43.4689 41.3693C43.8382 41.3693 44.1962 41.4304 44.5428 41.5526C44.8894 41.6747 45.2005 41.8665 45.476 42.1278C45.7516 42.3892 45.9689 42.7287 46.128 43.1463C46.2871 43.5611 46.3667 44.0653 46.3667 44.6591V45.1108H41.1635V44.1562H45.1181C45.1181 43.821 45.0499 43.5241 44.9135 43.2656C44.7772 43.0043 44.5854 42.7983 44.3382 42.6477C44.0939 42.4972 43.807 42.4219 43.4775 42.4219C43.1195 42.4219 42.807 42.5099 42.54 42.6861C42.2757 42.8594 42.0712 43.0866 41.9263 43.3679C41.7843 43.6463 41.7132 43.9489 41.7132 44.2756V45.0213C41.7132 45.4588 41.79 45.831 41.9434 46.1378C42.0996 46.4446 42.3169 46.679 42.5953 46.8409C42.8738 47 43.199 47.0795 43.5712 47.0795C43.8127 47.0795 44.0328 47.0455 44.2317 46.9773C44.4306 46.9062 44.6025 46.8011 44.7473 46.6619C44.8922 46.5227 45.003 46.3509 45.0797 46.1463L46.2857 46.3636C46.1891 46.7187 46.0158 47.0298 45.7658 47.2969C45.5186 47.5611 45.2076 47.767 44.8326 47.9148C44.4604 48.0597 44.0357 48.1321 43.5584 48.1321ZM49.0545 44.1136V48H47.7804V41.4545H49.0034V42.5199H49.0843C49.2349 42.1733 49.4707 41.8949 49.7917 41.6847C50.1156 41.4744 50.5233 41.3693 51.0147 41.3693C51.4608 41.3693 51.8514 41.4631 52.1866 41.6506C52.5218 41.8352 52.7818 42.1108 52.9664 42.4773C53.1511 42.8437 53.2434 43.2969 53.2434 43.8366V48H51.9693V43.9901C51.9693 43.5156 51.8457 43.1449 51.5985 42.8778C51.3514 42.608 51.0119 42.473 50.5801 42.473C50.2846 42.473 50.0218 42.5369 49.7917 42.6648C49.5645 42.7926 49.3841 42.9801 49.2505 43.2273C49.1199 43.4716 49.0545 43.767 49.0545 44.1136ZM65.8113 43.6364C65.8113 44.5682 65.6408 45.3693 65.2999 46.0398C64.959 46.7074 64.4917 47.2216 63.8979 47.5824C63.307 47.9403 62.6351 48.1193 61.8823 48.1193C61.1266 48.1193 60.4519 47.9403 59.8581 47.5824C59.2672 47.2216 58.8013 46.706 58.4604 46.0355C58.1195 45.3651 57.949 44.5653 57.949 43.6364C57.949 42.7045 58.1195 41.9048 58.4604 41.2372C58.8013 40.5668 59.2672 40.0526 59.8581 39.6946C60.4519 39.3338 61.1266 39.1534 61.8823 39.1534C62.6351 39.1534 63.307 39.3338 63.8979 39.6946C64.4917 40.0526 64.959 40.5668 65.2999 41.2372C65.6408 41.9048 65.8113 42.7045 65.8113 43.6364ZM64.5073 43.6364C64.5073 42.9261 64.3922 42.3281 64.1621 41.8423C63.9348 41.3537 63.6223 40.9844 63.2246 40.7344C62.8297 40.4815 62.3823 40.3551 61.8823 40.3551C61.3794 40.3551 60.9306 40.4815 60.5357 40.7344C60.1408 40.9844 59.8283 41.3537 59.5982 41.8423C59.3709 42.3281 59.2573 42.9261 59.2573 43.6364C59.2573 44.3466 59.3709 44.946 59.5982 45.4347C59.8283 45.9205 60.1408 46.2898 60.5357 46.5426C60.9306 46.7926 61.3794 46.9176 61.8823 46.9176C62.3823 46.9176 62.8297 46.7926 63.2246 46.5426C63.6223 46.2898 63.9348 45.9205 64.1621 45.4347C64.3922 44.946 64.5073 44.3466 64.5073 43.6364ZM67.3507 48V41.4545H68.5822V42.4943H68.6504C68.7697 42.142 68.9799 41.8651 69.2811 41.6634C69.585 41.4588 69.9288 41.3565 70.3123 41.3565C70.3919 41.3565 70.4856 41.3594 70.5936 41.3651C70.7044 41.3707 70.791 41.3778 70.8535 41.3864V42.6051C70.8024 42.5909 70.7115 42.5753 70.5808 42.5582C70.4501 42.5384 70.3194 42.5284 70.1887 42.5284C69.8876 42.5284 69.6191 42.5923 69.3833 42.7202C69.1504 42.8452 68.9657 43.0199 68.8294 43.2443C68.693 43.4659 68.6248 43.7187 68.6248 44.0028V48H67.3507ZM75.3983 41.4545V42.4773H71.823V41.4545H75.3983ZM72.7818 39.8864H74.0559V46.0781C74.0559 46.3253 74.0929 46.5114 74.1667 46.6364C74.2406 46.7585 74.3358 46.8423 74.4522 46.8878C74.5716 46.9304 74.7008 46.9517 74.84 46.9517C74.9423 46.9517 75.0318 46.9446 75.1085 46.9304C75.1852 46.9162 75.2449 46.9048 75.2875 46.8963L75.5176 47.9489C75.4437 47.9773 75.3386 48.0057 75.2022 48.0341C75.0659 48.0653 74.8954 48.0824 74.6909 48.0852C74.3556 48.0909 74.0431 48.0312 73.7534 47.9062C73.4636 47.7812 73.2292 47.5881 73.0502 47.3267C72.8713 47.0653 72.7818 46.7372 72.7818 46.3423V39.8864Z" fill="#787777"/>
</svg>
