<svg width="111" height="49" viewBox="0 0 111 49" fill="none" xmlns="http://www.w3.org/2000/svg">
<path d="M52.6322 30.0334V19.9017C51.8181 19.8112 51.0114 19.5775 50.2124 19.2006C49.4133 18.8236 48.682 18.3035 48.0186 17.6401C46.3753 15.9967 45.5536 14.037 45.5536 11.761C45.5536 9.48374 46.3753 7.52343 48.0186 5.88003C49.662 4.23664 51.6224 3.41494 53.8996 3.41494C56.1756 3.41494 58.1353 4.23664 59.7787 5.88003C61.4221 7.52343 62.2441 9.48344 62.2447 11.7601C62.2441 14.0367 61.4221 15.9967 59.7787 17.6401C59.1153 18.3035 58.3841 18.8236 57.585 19.2006C56.7859 19.5775 55.9793 19.8112 55.1652 19.9017L55.1652 30.0786C55.1652 30.4103 55.0445 30.6968 54.8033 30.938C54.5621 31.1793 54.2605 31.2999 53.8987 31.2999C53.567 31.2999 53.273 31.1717 53.0167 30.9154C52.7604 30.6591 52.6322 30.3651 52.6322 30.0334V30.0334ZM49.8279 15.8309C50.9587 16.9616 52.3156 17.5273 53.8987 17.5279C55.4818 17.5273 56.8387 16.9616 57.9695 15.8309C59.1003 14.7001 59.6659 13.3432 59.6665 11.7601C59.6659 10.177 59.1003 8.82005 57.9695 7.68928C56.8387 6.5585 55.4818 5.99281 53.8987 5.99221C52.3156 5.99281 50.9587 6.5585 49.8279 7.68928C48.6971 8.82005 48.1314 10.177 48.1308 11.7601C48.1314 13.3432 48.6971 14.7001 49.8279 15.8309Z" fill="#787777"/>
<path d="M24.1199 37.2727H25.4409V43.0128C25.4409 43.6236 25.2974 44.1648 25.0105 44.6364C24.7235 45.1051 24.3201 45.4744 23.8002 45.7443C23.2804 46.0114 22.671 46.1449 21.9721 46.1449C21.2761 46.1449 20.6681 46.0114 20.1483 45.7443C19.6284 45.4744 19.225 45.1051 18.938 44.6364C18.6511 44.1648 18.5076 43.6236 18.5076 43.0128V37.2727H19.8244V42.9062C19.8244 43.3011 19.911 43.652 20.0843 43.9588C20.2605 44.2656 20.5091 44.5071 20.8301 44.6832C21.1511 44.8565 21.5318 44.9432 21.9721 44.9432C22.4153 44.9432 22.7974 44.8565 23.1184 44.6832C23.4423 44.5071 23.6895 44.2656 23.8599 43.9588C24.0332 43.652 24.1199 43.3011 24.1199 42.9062V37.2727ZM27.253 46V39.4545H28.476V40.5199H28.557C28.6934 40.1591 28.9164 39.8778 29.226 39.6761C29.5357 39.4716 29.9064 39.3693 30.3382 39.3693C30.7757 39.3693 31.1422 39.4716 31.4377 39.6761C31.736 39.8807 31.9561 40.1619 32.0982 40.5199H32.1664C32.3226 40.1705 32.5712 39.892 32.9121 39.6847C33.253 39.4744 33.6593 39.3693 34.1309 39.3693C34.7246 39.3693 35.209 39.5554 35.584 39.9276C35.9618 40.2997 36.1507 40.8608 36.1507 41.6108V46H34.8766V41.7301C34.8766 41.2869 34.7559 40.9659 34.5144 40.767C34.2729 40.5682 33.9846 40.4688 33.6493 40.4688C33.2346 40.4688 32.9121 40.5966 32.682 40.8523C32.4519 41.1051 32.3368 41.4304 32.3368 41.8281V46H31.0669V41.6491C31.0669 41.294 30.9561 41.0085 30.7346 40.7926C30.513 40.5767 30.2246 40.4688 29.8695 40.4688C29.628 40.4688 29.405 40.5327 29.2005 40.6605C28.9988 40.7855 28.8354 40.9602 28.7104 41.1847C28.5882 41.4091 28.5272 41.669 28.5272 41.9645V46H27.253ZM43.8553 46.1321C43.2104 46.1321 42.655 45.9943 42.1891 45.7188C41.726 45.4403 41.3681 45.0497 41.1152 44.5469C40.8652 44.0412 40.7402 43.4489 40.7402 42.7699C40.7402 42.0994 40.8652 41.5085 41.1152 40.9972C41.3681 40.4858 41.7203 40.0866 42.1721 39.7997C42.6266 39.5128 43.1578 39.3693 43.7658 39.3693C44.1351 39.3693 44.4931 39.4304 44.8397 39.5526C45.1863 39.6747 45.4973 39.8665 45.7729 40.1278C46.0485 40.3892 46.2658 40.7287 46.4249 41.1463C46.584 41.5611 46.6635 42.0653 46.6635 42.6591V43.1108H41.4604V42.1562H45.415C45.415 41.821 45.3468 41.5241 45.2104 41.2656C45.074 41.0043 44.8823 40.7983 44.6351 40.6477C44.3908 40.4972 44.1039 40.4219 43.7743 40.4219C43.4164 40.4219 43.1039 40.5099 42.8368 40.6861C42.5726 40.8594 42.3681 41.0866 42.2232 41.3679C42.0811 41.6463 42.0101 41.9489 42.0101 42.2756V43.0213C42.0101 43.4588 42.0868 43.831 42.2402 44.1378C42.3965 44.4446 42.6138 44.679 42.8922 44.8409C43.1706 45 43.4959 45.0795 43.8681 45.0795C44.1096 45.0795 44.3297 45.0455 44.5286 44.9773C44.7275 44.9062 44.8993 44.8011 45.0442 44.6619C45.1891 44.5227 45.2999 44.3509 45.3766 44.1463L46.5826 44.3636C46.486 44.7187 46.3127 45.0298 46.0627 45.2969C45.8155 45.5611 45.5044 45.767 45.1294 45.9148C44.7573 46.0597 44.3326 46.1321 43.8553 46.1321ZM48.0772 46V39.4545H49.3514V46H48.0772ZM48.7207 38.4446C48.4991 38.4446 48.3088 38.3707 48.1497 38.223C47.9934 38.0724 47.9153 37.8935 47.9153 37.6861C47.9153 37.4759 47.9934 37.2969 48.1497 37.1491C48.3088 36.9986 48.4991 36.9233 48.7207 36.9233C48.9423 36.9233 49.1312 36.9986 49.2875 37.1491C49.4466 37.2969 49.5261 37.4759 49.5261 37.6861C49.5261 37.8935 49.4466 38.0724 49.2875 38.223C49.1312 38.3707 48.9423 38.4446 48.7207 38.4446ZM52.3397 42.1136V46H51.0655V39.4545H52.2885V40.5199H52.3695C52.5201 40.1733 52.7559 39.8949 53.0769 39.6847C53.4007 39.4744 53.8084 39.3693 54.2999 39.3693C54.7459 39.3693 55.1365 39.4631 55.4718 39.6506C55.807 39.8352 56.0669 40.1108 56.2516 40.4773C56.4363 40.8437 56.5286 41.2969 56.5286 41.8366V46H55.2544V41.9901C55.2544 41.5156 55.1309 41.1449 54.8837 40.8778C54.6365 40.608 54.2971 40.473 53.8652 40.473C53.5698 40.473 53.307 40.5369 53.0769 40.6648C52.8496 40.7926 52.6692 40.9801 52.5357 41.2273C52.405 41.4716 52.3397 41.767 52.3397 42.1136ZM61.0584 46.1321C60.4135 46.1321 59.8581 45.9943 59.3922 45.7188C58.9292 45.4403 58.5712 45.0497 58.3184 44.5469C58.0684 44.0412 57.9434 43.4489 57.9434 42.7699C57.9434 42.0994 58.0684 41.5085 58.3184 40.9972C58.5712 40.4858 58.9235 40.0866 59.3752 39.7997C59.8297 39.5128 60.361 39.3693 60.9689 39.3693C61.3382 39.3693 61.6962 39.4304 62.0428 39.5526C62.3894 39.6747 62.7005 39.8665 62.976 40.1278C63.2516 40.3892 63.4689 40.7287 63.628 41.1463C63.7871 41.5611 63.8667 42.0653 63.8667 42.6591V43.1108H58.6635V42.1562H62.6181C62.6181 41.821 62.5499 41.5241 62.4135 41.2656C62.2772 41.0043 62.0854 40.7983 61.8382 40.6477C61.5939 40.4972 61.307 40.4219 60.9775 40.4219C60.6195 40.4219 60.307 40.5099 60.04 40.6861C59.7757 40.8594 59.5712 41.0866 59.4263 41.3679C59.2843 41.6463 59.2132 41.9489 59.2132 42.2756V43.0213C59.2132 43.4588 59.29 43.831 59.4434 44.1378C59.5996 44.4446 59.8169 44.679 60.0953 44.8409C60.3738 45 60.699 45.0795 61.0712 45.0795C61.3127 45.0795 61.5328 45.0455 61.7317 44.9773C61.9306 44.9062 62.1025 44.8011 62.2473 44.6619C62.3922 44.5227 62.503 44.3509 62.5797 44.1463L63.7857 44.3636C63.6891 44.7187 63.5158 45.0298 63.2658 45.2969C63.0186 45.5611 62.7076 45.767 62.3326 45.9148C61.9604 46.0597 61.5357 46.1321 61.0584 46.1321ZM66.5545 42.1136V46H65.2804V39.4545H66.5034V40.5199H66.5843C66.7349 40.1733 66.9707 39.8949 67.2917 39.6847C67.6156 39.4744 68.0233 39.3693 68.5147 39.3693C68.9608 39.3693 69.3514 39.4631 69.6866 39.6506C70.0218 39.8352 70.2818 40.1108 70.4664 40.4773C70.6511 40.8437 70.7434 41.2969 70.7434 41.8366V46H69.4693V41.9901C69.4693 41.5156 69.3457 41.1449 69.0985 40.8778C68.8514 40.608 68.5119 40.473 68.0801 40.473C67.7846 40.473 67.5218 40.5369 67.2917 40.6648C67.0645 40.7926 66.8841 40.9801 66.7505 41.2273C66.6199 41.4716 66.5545 41.767 66.5545 42.1136ZM83.3113 41.6364C83.3113 42.5682 83.1408 43.3693 82.7999 44.0398C82.459 44.7074 81.9917 45.2216 81.3979 45.5824C80.807 45.9403 80.1351 46.1193 79.3823 46.1193C78.6266 46.1193 77.9519 45.9403 77.3581 45.5824C76.7672 45.2216 76.3013 44.706 75.9604 44.0355C75.6195 43.3651 75.449 42.5653 75.449 41.6364C75.449 40.7045 75.6195 39.9048 75.9604 39.2372C76.3013 38.5668 76.7672 38.0526 77.3581 37.6946C77.9519 37.3338 78.6266 37.1534 79.3823 37.1534C80.1351 37.1534 80.807 37.3338 81.3979 37.6946C81.9917 38.0526 82.459 38.5668 82.7999 39.2372C83.1408 39.9048 83.3113 40.7045 83.3113 41.6364ZM82.0073 41.6364C82.0073 40.9261 81.8922 40.3281 81.6621 39.8423C81.4348 39.3537 81.1223 38.9844 80.7246 38.7344C80.3297 38.4815 79.8823 38.3551 79.3823 38.3551C78.8794 38.3551 78.4306 38.4815 78.0357 38.7344C77.6408 38.9844 77.3283 39.3537 77.0982 39.8423C76.8709 40.3281 76.7573 40.9261 76.7573 41.6364C76.7573 42.3466 76.8709 42.946 77.0982 43.4347C77.3283 43.9205 77.6408 44.2898 78.0357 44.5426C78.4306 44.7926 78.8794 44.9176 79.3823 44.9176C79.8823 44.9176 80.3297 44.7926 80.7246 44.5426C81.1223 44.2898 81.4348 43.9205 81.6621 43.4347C81.8922 42.946 82.0073 42.3466 82.0073 41.6364ZM84.8507 46V39.4545H86.0822V40.4943H86.1504C86.2697 40.142 86.4799 39.8651 86.7811 39.6634C87.085 39.4588 87.4288 39.3565 87.8123 39.3565C87.8919 39.3565 87.9856 39.3594 88.0936 39.3651C88.2044 39.3707 88.291 39.3778 88.3535 39.3864V40.6051C88.3024 40.5909 88.2115 40.5753 88.0808 40.5582C87.9501 40.5384 87.8194 40.5284 87.6887 40.5284C87.3876 40.5284 87.1191 40.5923 86.8833 40.7202C86.6504 40.8452 86.4657 41.0199 86.3294 41.2443C86.193 41.4659 86.1248 41.7187 86.1248 42.0028V46H84.8507ZM92.8983 39.4545V40.4773H89.323V39.4545H92.8983ZM90.2818 37.8864H91.5559V44.0781C91.5559 44.3253 91.5929 44.5114 91.6667 44.6364C91.7406 44.7585 91.8358 44.8423 91.9522 44.8878C92.0716 44.9304 92.2008 44.9517 92.34 44.9517C92.4423 44.9517 92.5318 44.9446 92.6085 44.9304C92.6852 44.9162 92.7449 44.9048 92.7875 44.8963L93.0176 45.9489C92.9437 45.9773 92.8386 46.0057 92.7022 46.0341C92.5659 46.0653 92.3954 46.0824 92.1909 46.0852C91.8556 46.0909 91.5431 46.0312 91.2534 45.9062C90.9636 45.7812 90.7292 45.5881 90.5502 45.3267C90.3713 45.0653 90.2818 44.7372 90.2818 44.3423V37.8864Z" fill="#787777"/>
</svg>
