<svg width="87" height="53" viewBox="0 0 87 53" fill="none" xmlns="http://www.w3.org/2000/svg">
<path d="M43.5 18.826C43.134 18.826 42.8275 18.702 42.5804 18.454C42.3324 18.2069 42.2084 17.9003 42.2084 17.5344V4.39167L41.0459 5.55417C40.809 5.79097 40.5133 5.90938 40.1585 5.90938C39.8028 5.90938 39.4959 5.78021 39.2375 5.52187C39.0007 5.26354 38.8823 4.95656 38.8823 4.60092C38.8823 4.24614 39.0007 3.95035 39.2375 3.71354L42.5959 0.355208C42.7035 0.24757 42.8383 0.161458 43.0001 0.0968751C43.1612 0.0322917 43.3278 0 43.5 0C43.6722 0 43.8393 0.0322917 44.0012 0.0968751C44.1622 0.161458 44.2965 0.24757 44.4042 0.355208L47.7625 3.71354C48.0209 3.97188 48.15 4.28403 48.15 4.65C48.15 5.01597 48.0209 5.31736 47.7625 5.55417C47.5042 5.79097 47.1976 5.90938 46.8429 5.90938C46.4872 5.90938 46.191 5.79097 45.9542 5.55417L44.7917 4.39167V17.5344C44.7917 17.9003 44.6681 18.2069 44.421 18.454C44.173 18.702 43.866 18.826 43.5 18.826ZM35.75 27.8677C35.0396 27.8677 34.4317 27.615 33.9262 27.1095C33.4199 26.6032 33.1667 25.9948 33.1667 25.2844V11.076C33.1667 10.3656 33.4199 9.75725 33.9262 9.25092C34.4317 8.74544 35.0396 8.49271 35.75 8.49271H38.3334C38.6993 8.49271 39.0063 8.61628 39.2543 8.86342C39.5015 9.11142 39.625 9.4184 39.625 9.78438C39.625 10.1503 39.5015 10.4569 39.2543 10.704C39.0063 10.952 38.6993 11.076 38.3334 11.076H35.75V25.2844H51.25V11.076H48.6667C48.3007 11.076 47.9942 10.952 47.747 10.704C47.499 10.4569 47.375 10.1503 47.375 9.78438C47.375 9.4184 47.499 9.11142 47.747 8.86342C47.9942 8.61628 48.3007 8.49271 48.6667 8.49271H51.25C51.9604 8.49271 52.5688 8.74544 53.0751 9.25092C53.5806 9.75725 53.8334 10.3656 53.8334 11.076V25.2844C53.8334 25.9948 53.5806 26.6032 53.0751 27.1095C52.5688 27.615 51.9604 27.8677 51.25 27.8677H35.75Z" fill="#699BF7"/>
<path d="M26.9776 42.4062V41.2727H33.7319V42.4062H31.0089V50H29.6964V42.4062H26.9776ZM36.994 50.1321C36.3491 50.1321 35.7937 49.9943 35.3278 49.7188C34.8647 49.4403 34.5067 49.0497 34.2539 48.5469C34.0039 48.0412 33.8789 47.4489 33.8789 46.7699C33.8789 46.0994 34.0039 45.5085 34.2539 44.9972C34.5067 44.4858 34.859 44.0866 35.3107 43.7997C35.7653 43.5128 36.2965 43.3693 36.9045 43.3693C37.2738 43.3693 37.6317 43.4304 37.9783 43.5526C38.3249 43.6747 38.636 43.8665 38.9116 44.1278C39.1871 44.3892 39.4045 44.7287 39.5636 45.1463C39.7227 45.5611 39.8022 46.0653 39.8022 46.6591V47.1108H34.5991V46.1562H38.5536C38.5536 45.821 38.4854 45.5241 38.3491 45.2656C38.2127 45.0043 38.021 44.7983 37.7738 44.6477C37.5295 44.4972 37.2425 44.4219 36.913 44.4219C36.555 44.4219 36.2425 44.5099 35.9755 44.6861C35.7113 44.8594 35.5067 45.0866 35.3619 45.3679C35.2198 45.6463 35.1488 45.9489 35.1488 46.2756V47.0213C35.1488 47.4588 35.2255 47.831 35.3789 48.1378C35.5352 48.4446 35.7525 48.679 36.0309 48.8409C36.3093 49 36.6346 49.0795 37.0067 49.0795C37.2482 49.0795 37.4684 49.0455 37.6673 48.9773C37.8661 48.9062 38.038 48.8011 38.1829 48.6619C38.3278 48.5227 38.4386 48.3509 38.5153 48.1463L39.7212 48.3636C39.6246 48.7187 39.4513 49.0298 39.2013 49.2969C38.9542 49.5611 38.6431 49.767 38.2681 49.9148C37.896 50.0597 37.4712 50.1321 36.994 50.1321ZM41.2159 50V43.4545H42.4901V50H41.2159ZM41.8594 42.4446C41.6378 42.4446 41.4474 42.3707 41.2884 42.223C41.1321 42.0724 41.054 41.8935 41.054 41.6861C41.054 41.4759 41.1321 41.2969 41.2884 41.1491C41.4474 40.9986 41.6378 40.9233 41.8594 40.9233C42.081 40.9233 42.2699 40.9986 42.4261 41.1491C42.5852 41.2969 42.6648 41.4759 42.6648 41.6861C42.6648 41.8935 42.5852 42.0724 42.4261 42.223C42.2699 42.3707 42.081 42.4446 41.8594 42.4446ZM45.4783 41.2727V50H44.2042V41.2727H45.4783ZM50.0135 50.1321C49.3686 50.1321 48.8132 49.9943 48.3473 49.7188C47.8842 49.4403 47.5263 49.0497 47.2734 48.5469C47.0234 48.0412 46.8984 47.4489 46.8984 46.7699C46.8984 46.0994 47.0234 45.5085 47.2734 44.9972C47.5263 44.4858 47.8786 44.0866 48.3303 43.7997C48.7848 43.5128 49.3161 43.3693 49.924 43.3693C50.2933 43.3693 50.6513 43.4304 50.9979 43.5526C51.3445 43.6747 51.6555 43.8665 51.9311 44.1278C52.2067 44.3892 52.424 44.7287 52.5831 45.1463C52.7422 45.5611 52.8217 46.0653 52.8217 46.6591V47.1108H47.6186V46.1562H51.5732C51.5732 45.821 51.505 45.5241 51.3686 45.2656C51.2322 45.0043 51.0405 44.7983 50.7933 44.6477C50.549 44.4972 50.2621 44.4219 49.9325 44.4219C49.5746 44.4219 49.2621 44.5099 48.995 44.6861C48.7308 44.8594 48.5263 45.0866 48.3814 45.3679C48.2393 45.6463 48.1683 45.9489 48.1683 46.2756V47.0213C48.1683 47.4588 48.245 47.831 48.3984 48.1378C48.5547 48.4446 48.772 48.679 49.0504 48.8409C49.3288 49 49.6541 49.0795 50.0263 49.0795C50.2678 49.0795 50.4879 49.0455 50.6868 48.9773C50.8857 48.9062 51.0575 48.8011 51.2024 48.6619C51.3473 48.5227 51.4581 48.3509 51.5348 48.1463L52.7408 48.3636C52.6442 48.7187 52.4709 49.0298 52.2209 49.2969C51.9737 49.5611 51.6626 49.767 51.2876 49.9148C50.9155 50.0597 50.4908 50.1321 50.0135 50.1321ZM55.5096 46.1136V50H54.2354V43.4545H55.4585V44.5199H55.5394C55.69 44.1733 55.9258 43.8949 56.2468 43.6847C56.5707 43.4744 56.9783 43.3693 57.4698 43.3693C57.9158 43.3693 58.3065 43.4631 58.6417 43.6506C58.9769 43.8352 59.2369 44.1108 59.4215 44.4773C59.6062 44.8437 59.6985 45.2969 59.6985 45.8366V50H58.4244V45.9901C58.4244 45.5156 58.3008 45.1449 58.0536 44.8778C57.8065 44.608 57.467 44.473 57.0352 44.473C56.7397 44.473 56.4769 44.5369 56.2468 44.6648C56.0195 44.7926 55.8391 44.9801 55.7056 45.2273C55.5749 45.4716 55.5096 45.767 55.5096 46.1136Z" fill="#699BF7"/>
</svg>
