<svg width="91" height="51" viewBox="0 0 91 51" fill="none" xmlns="http://www.w3.org/2000/svg">
<path d="M43.6301 30V27.2603C40.7763 26.9406 38.3279 25.7594 36.2849 23.7164C34.2411 21.6726 33.0594 19.2237 32.7397 16.3699H30V13.6301H32.7397C33.0594 10.7763 34.2411 8.3274 36.2849 6.28356C38.3279 4.24064 40.7763 3.05936 43.6301 2.73973V0H46.3699V2.73973C49.2237 3.05936 51.6726 4.24064 53.7164 6.28356C55.7594 8.3274 56.9406 10.7763 57.2603 13.6301H60V16.3699H57.2603C56.9406 19.2237 55.7594 21.6726 53.7164 23.7164C51.6726 25.7594 49.2237 26.9406 46.3699 27.2603V30H43.6301ZM45 24.589C47.6484 24.589 49.9087 23.653 51.7808 21.7808C53.653 19.9087 54.589 17.6484 54.589 15C54.589 12.3516 53.653 10.0913 51.7808 8.21918C49.9087 6.34703 47.6484 5.41096 45 5.41096C42.3516 5.41096 40.0913 6.34703 38.2192 8.21918C36.347 10.0913 35.411 12.3516 35.411 15C35.411 17.6484 36.347 19.9087 38.2192 21.7808C40.0913 23.653 42.3516 24.589 45 24.589ZM45 20.4795C43.4931 20.4795 42.2032 19.9429 41.1301 18.8699C40.0571 17.7968 39.5205 16.5068 39.5205 15C39.5205 13.4931 40.0571 12.2032 41.1301 11.1301C42.2032 10.0571 43.4931 9.52055 45 9.52055C46.5068 9.52055 47.7968 10.0571 48.8699 11.1301C49.9429 12.2032 50.4795 13.4931 50.4795 15C50.4795 16.5068 49.9429 17.7968 48.8699 18.8699C47.7968 19.9429 46.5068 20.4795 45 20.4795ZM45 17.7397C45.7534 17.7397 46.3986 17.4712 46.9356 16.9342C47.4717 16.3982 47.7397 15.7534 47.7397 15C47.7397 14.2466 47.4717 13.6014 46.9356 13.0644C46.3986 12.5283 45.7534 12.2603 45 12.2603C44.2466 12.2603 43.6018 12.5283 43.0658 13.0644C42.5288 13.6014 42.2603 14.2466 42.2603 15C42.2603 15.7534 42.5288 16.3982 43.0658 16.9342C43.6018 17.4712 44.2466 17.7397 45 17.7397Z" fill="#699BF7"/>
<path d="M7.05344 39.2727H8.37447V45.0128C8.37447 45.6236 8.231 46.1648 7.94407 46.6364C7.65714 47.1051 7.25373 47.4744 6.73384 47.7443C6.21396 48.0114 5.60458 48.1449 4.90572 48.1449C4.20969 48.1449 3.60174 48.0114 3.08185 47.7443C2.56197 47.4744 2.15856 47.1051 1.87163 46.6364C1.58469 46.1648 1.44123 45.6236 1.44123 45.0128V39.2727H2.75799V44.9062C2.75799 45.3011 2.84464 45.652 3.01793 45.9588C3.19407 46.2656 3.44265 46.5071 3.76367 46.6832C4.08469 46.8565 4.46538 46.9432 4.90572 46.9432C5.3489 46.9432 5.731 46.8565 6.05202 46.6832C6.37589 46.5071 6.62305 46.2656 6.7935 45.9588C6.9668 45.652 7.05344 45.3011 7.05344 44.9062V39.2727ZM10.1866 48V41.4545H11.4096V42.5199H11.4906C11.627 42.1591 11.85 41.8778 12.1596 41.6761C12.4693 41.4716 12.84 41.3693 13.2718 41.3693C13.7093 41.3693 14.0758 41.4716 14.3713 41.6761C14.6696 41.8807 14.8897 42.1619 15.0318 42.5199H15.1C15.2562 42.1705 15.5048 41.892 15.8457 41.6847C16.1866 41.4744 16.5929 41.3693 17.0645 41.3693C17.6582 41.3693 18.1426 41.5554 18.5176 41.9276C18.8954 42.2997 19.0843 42.8608 19.0843 43.6108V48H17.8102V43.7301C17.8102 43.2869 17.6895 42.9659 17.448 42.767C17.2065 42.5682 16.9181 42.4688 16.5829 42.4688C16.1681 42.4688 15.8457 42.5966 15.6156 42.8523C15.3855 43.1051 15.2704 43.4304 15.2704 43.8281V48H14.0005V43.6491C14.0005 43.294 13.8897 43.0085 13.6681 42.7926C13.4466 42.5767 13.1582 42.4688 12.8031 42.4688C12.5616 42.4688 12.3386 42.5327 12.1341 42.6605C11.9324 42.7855 11.769 42.9602 11.644 43.1847C11.5218 43.4091 11.4608 43.669 11.4608 43.9645V48H10.1866ZM23.9679 48V41.4545H25.1909V42.5199H25.2718C25.4082 42.1591 25.6312 41.8778 25.9409 41.6761C26.2505 41.4716 26.6213 41.3693 27.0531 41.3693C27.4906 41.3693 27.8571 41.4716 28.1525 41.6761C28.4508 41.8807 28.671 42.1619 28.813 42.5199H28.8812C29.0375 42.1705 29.286 41.892 29.627 41.6847C29.9679 41.4744 30.3741 41.3693 30.8457 41.3693C31.4395 41.3693 31.9238 41.5554 32.2988 41.9276C32.6767 42.2997 32.8656 42.8608 32.8656 43.6108V48H31.5914V43.7301C31.5914 43.2869 31.4707 42.9659 31.2292 42.767C30.9877 42.5682 30.6994 42.4688 30.3642 42.4688C29.9494 42.4688 29.627 42.5966 29.3968 42.8523C29.1667 43.1051 29.0517 43.4304 29.0517 43.8281V48H27.7818V43.6491C27.7818 43.294 27.671 43.0085 27.4494 42.7926C27.2278 42.5767 26.9395 42.4688 26.5843 42.4688C26.3429 42.4688 26.1199 42.5327 25.9153 42.6605C25.7136 42.7855 25.5502 42.9602 25.4252 43.1847C25.3031 43.4091 25.242 43.669 25.242 43.9645V48H23.9679ZM34.5733 48V41.4545H35.8475V48H34.5733ZM35.2168 40.4446C34.9952 40.4446 34.8049 40.3707 34.6458 40.223C34.4895 40.0724 34.4114 39.8935 34.4114 39.6861C34.4114 39.4759 34.4895 39.2969 34.6458 39.1491C34.8049 38.9986 34.9952 38.9233 35.2168 38.9233C35.4384 38.9233 35.6273 38.9986 35.7836 39.1491C35.9426 39.2969 36.0222 39.4759 36.0222 39.6861C36.0222 39.8935 35.9426 40.0724 35.7836 40.223C35.6273 40.3707 35.4384 40.4446 35.2168 40.4446ZM40.3187 48.1321C39.6852 48.1321 39.1397 47.9886 38.6824 47.7017C38.2278 47.4119 37.8784 47.0128 37.6341 46.5043C37.3897 45.9957 37.2676 45.4134 37.2676 44.7571C37.2676 44.0923 37.3926 43.5057 37.6426 42.9972C37.8926 42.4858 38.2449 42.0866 38.6994 41.7997C39.1539 41.5128 39.6895 41.3693 40.3059 41.3693C40.8031 41.3693 41.2463 41.4616 41.6355 41.6463C42.0247 41.8281 42.3386 42.0838 42.5772 42.4134C42.8187 42.7429 42.9622 43.1278 43.0076 43.5682H41.7676C41.6994 43.2614 41.5431 42.9972 41.2988 42.7756C41.0574 42.554 40.7335 42.4432 40.3272 42.4432C39.9721 42.4432 39.661 42.5369 39.394 42.7244C39.1298 42.9091 38.9238 43.1733 38.7761 43.517C38.6284 43.858 38.5545 44.2614 38.5545 44.7273C38.5545 45.2045 38.627 45.6165 38.7718 45.9631C38.9167 46.3097 39.1213 46.5781 39.3855 46.7685C39.6525 46.9588 39.9664 47.054 40.3272 47.054C40.5687 47.054 40.7875 47.0099 40.9835 46.9219C41.1824 46.831 41.3485 46.7017 41.4821 46.5341C41.6184 46.3665 41.7136 46.1648 41.7676 45.929H43.0076C42.9622 46.3523 42.8244 46.7301 42.5943 47.0625C42.3642 47.3949 42.0559 47.6562 41.6696 47.8466C41.286 48.0369 40.8358 48.1321 40.3187 48.1321ZM45.6444 44.1136V48H44.3702V39.2727H45.6273V42.5199H45.7083C45.8617 42.1676 46.0961 41.8878 46.4114 41.6804C46.7267 41.473 47.1387 41.3693 47.6472 41.3693C48.0961 41.3693 48.4881 41.4616 48.8233 41.6463C49.1614 41.831 49.4228 42.1065 49.6074 42.473C49.7949 42.8366 49.8887 43.2912 49.8887 43.8366V48H48.6145V43.9901C48.6145 43.5099 48.4909 43.1378 48.2438 42.8736C47.9966 42.6065 47.6529 42.473 47.2125 42.473C46.9114 42.473 46.6415 42.5369 46.4029 42.6648C46.1671 42.7926 45.981 42.9801 45.8446 43.2273C45.7111 43.4716 45.6444 43.767 45.6444 44.1136ZM56.0389 44.1136V48H54.7647V39.2727H56.0218V42.5199H56.1028C56.2562 42.1676 56.4906 41.8878 56.8059 41.6804C57.1213 41.473 57.5332 41.3693 58.0417 41.3693C58.4906 41.3693 58.8826 41.4616 59.2179 41.6463C59.5559 41.831 59.8173 42.1065 60.002 42.473C60.1895 42.8366 60.2832 43.2912 60.2832 43.8366V48H59.0091V43.9901C59.0091 43.5099 58.8855 43.1378 58.6383 42.8736C58.3912 42.6065 58.0474 42.473 57.6071 42.473C57.3059 42.473 57.036 42.5369 56.7974 42.6648C56.5616 42.7926 56.3755 42.9801 56.2392 43.2273C56.1056 43.4716 56.0389 43.767 56.0389 44.1136ZM64.8045 48.1321C64.1596 48.1321 63.6042 47.9943 63.1383 47.7188C62.6752 47.4403 62.3173 47.0497 62.0645 46.5469C61.8145 46.0412 61.6895 45.4489 61.6895 44.7699C61.6895 44.0994 61.8145 43.5085 62.0645 42.9972C62.3173 42.4858 62.6696 42.0866 63.1213 41.7997C63.5758 41.5128 64.1071 41.3693 64.715 41.3693C65.0843 41.3693 65.4423 41.4304 65.7889 41.5526C66.1355 41.6747 66.4466 41.8665 66.7221 42.1278C66.9977 42.3892 67.215 42.7287 67.3741 43.1463C67.5332 43.5611 67.6127 44.0653 67.6127 44.6591V45.1108H62.4096V44.1562H66.3642C66.3642 43.821 66.296 43.5241 66.1596 43.2656C66.0233 43.0043 65.8315 42.7983 65.5843 42.6477C65.34 42.4972 65.0531 42.4219 64.7235 42.4219C64.3656 42.4219 64.0531 42.5099 63.786 42.6861C63.5218 42.8594 63.3173 43.0866 63.1724 43.3679C63.0304 43.6463 62.9593 43.9489 62.9593 44.2756V45.0213C62.9593 45.4588 63.036 45.831 63.1895 46.1378C63.3457 46.4446 63.563 46.679 63.8414 46.8409C64.1199 47 64.4451 47.0795 64.8173 47.0795C65.0588 47.0795 65.2789 47.0455 65.4778 46.9773C65.6767 46.9062 65.8485 46.8011 65.9934 46.6619C66.1383 46.5227 66.2491 46.3509 66.3258 46.1463L67.5318 46.3636C67.4352 46.7187 67.2619 47.0298 67.0119 47.2969C66.7647 47.5611 66.4537 47.767 66.0787 47.9148C65.7065 48.0597 65.2818 48.1321 64.8045 48.1321ZM69.0265 48V41.4545H70.258V42.4943H70.3262C70.4455 42.142 70.6557 41.8651 70.9569 41.6634C71.2608 41.4588 71.6046 41.3565 71.9881 41.3565C72.0676 41.3565 72.1614 41.3594 72.2694 41.3651C72.3801 41.3707 72.4668 41.3778 72.5293 41.3864V42.6051C72.4782 42.5909 72.3873 42.5753 72.2566 42.5582C72.1259 42.5384 71.9952 42.5284 71.8645 42.5284C71.5634 42.5284 71.2949 42.5923 71.0591 42.7202C70.8262 42.8452 70.6415 43.0199 70.5051 43.2443C70.3688 43.4659 70.3006 43.7187 70.3006 44.0028V48H69.0265ZM77.7782 45.2855V41.4545H79.0566V48H77.8038V46.8665H77.7356C77.585 47.2159 77.3436 47.5071 77.0112 47.7401C76.6816 47.9702 76.2711 48.0852 75.7797 48.0852C75.3592 48.0852 74.987 47.9929 74.6632 47.8082C74.3422 47.6207 74.0893 47.3438 73.9047 46.9773C73.7228 46.6108 73.6319 46.1577 73.6319 45.6179V41.4545H74.9061V45.4645C74.9061 45.9105 75.0297 46.2656 75.2768 46.5298C75.524 46.794 75.845 46.9261 76.2399 46.9261C76.4785 46.9261 76.7157 46.8665 76.9515 46.7472C77.1902 46.6278 77.3876 46.4474 77.5439 46.206C77.7029 45.9645 77.7811 45.6577 77.7782 45.2855ZM80.7686 48V41.4545H81.9917V42.5199H82.0726C82.209 42.1591 82.432 41.8778 82.7417 41.6761C83.0513 41.4716 83.4221 41.3693 83.8539 41.3693C84.2914 41.3693 84.6578 41.4716 84.9533 41.6761C85.2516 41.8807 85.4718 42.1619 85.6138 42.5199H85.682C85.8382 42.1705 86.0868 41.892 86.4277 41.6847C86.7686 41.4744 87.1749 41.3693 87.6465 41.3693C88.2402 41.3693 88.7246 41.5554 89.0996 41.9276C89.4775 42.2997 89.6664 42.8608 89.6664 43.6108V48H88.3922V43.7301C88.3922 43.2869 88.2715 42.9659 88.03 42.767C87.7885 42.5682 87.5002 42.4688 87.165 42.4688C86.7502 42.4688 86.4277 42.5966 86.1976 42.8523C85.9675 43.1051 85.8525 43.4304 85.8525 43.8281V48H84.5826V43.6491C84.5826 43.294 84.4718 43.0085 84.2502 42.7926C84.0286 42.5767 83.7402 42.4688 83.3851 42.4688C83.1436 42.4688 82.9206 42.5327 82.7161 42.6605C82.5144 42.7855 82.351 42.9602 82.226 43.1847C82.1039 43.4091 82.0428 43.669 82.0428 43.9645V48H80.7686Z" fill="#699BF7"/>
</svg>
