<svg width="91" height="49" viewBox="0 0 91 49" fill="none" xmlns="http://www.w3.org/2000/svg">
<path d="M44.6322 30.0334V19.9017C43.8181 19.8112 43.0114 19.5775 42.2124 19.2006C41.4133 18.8236 40.682 18.3035 40.0186 17.6401C38.3753 15.9967 37.5536 14.037 37.5536 11.761C37.5536 9.48374 38.3753 7.52343 40.0186 5.88003C41.662 4.23664 43.6224 3.41494 45.8996 3.41494C48.1756 3.41494 50.1353 4.23664 51.7787 5.88003C53.4221 7.52343 54.2441 9.48344 54.2447 11.7601C54.2441 14.0367 53.4221 15.9967 51.7787 17.6401C51.1153 18.3035 50.3841 18.8236 49.585 19.2006C48.7859 19.5775 47.9793 19.8112 47.1652 19.9017L47.1652 30.0786C47.1652 30.4103 47.0445 30.6968 46.8033 30.938C46.5621 31.1793 46.2605 31.2999 45.8987 31.2999C45.567 31.2999 45.273 31.1717 45.0167 30.9154C44.7604 30.6591 44.6322 30.3651 44.6322 30.0334V30.0334ZM41.8279 15.8309C42.9587 16.9616 44.3156 17.5273 45.8987 17.5279C47.4818 17.5273 48.8387 16.9616 49.9695 15.8309C51.1003 14.7001 51.6659 13.3432 51.6665 11.7601C51.6659 10.177 51.1003 8.82005 49.9695 7.68928C48.8387 6.5585 47.4818 5.99281 45.8987 5.99221C44.3156 5.99281 42.9587 6.5585 41.8279 7.68928C40.6971 8.82005 40.1314 10.177 40.1308 11.7601C40.1314 13.3432 40.6971 14.7001 41.8279 15.8309Z" fill="#699BF7"/>
<path d="M14.1199 37.2727H15.4409V43.0128C15.4409 43.6236 15.2974 44.1648 15.0105 44.6364C14.7235 45.1051 14.3201 45.4744 13.8002 45.7443C13.2804 46.0114 12.671 46.1449 11.9721 46.1449C11.2761 46.1449 10.6681 46.0114 10.1483 45.7443C9.62837 45.4744 9.22496 45.1051 8.93803 44.6364C8.6511 44.1648 8.50763 43.6236 8.50763 43.0128V37.2727H9.8244V42.9062C9.8244 43.3011 9.91104 43.652 10.0843 43.9588C10.2605 44.2656 10.5091 44.5071 10.8301 44.6832C11.1511 44.8565 11.5318 44.9432 11.9721 44.9432C12.4153 44.9432 12.7974 44.8565 13.1184 44.6832C13.4423 44.5071 13.6895 44.2656 13.8599 43.9588C14.0332 43.652 14.1199 43.3011 14.1199 42.9062V37.2727ZM17.253 46V39.4545H18.476V40.5199H18.557C18.6934 40.1591 18.9164 39.8778 19.226 39.6761C19.5357 39.4716 19.9064 39.3693 20.3382 39.3693C20.7757 39.3693 21.1422 39.4716 21.4377 39.6761C21.736 39.8807 21.9561 40.1619 22.0982 40.5199H22.1664C22.3226 40.1705 22.5712 39.892 22.9121 39.6847C23.253 39.4744 23.6593 39.3693 24.1309 39.3693C24.7246 39.3693 25.209 39.5554 25.584 39.9276C25.9618 40.2997 26.1507 40.8608 26.1507 41.6108V46H24.8766V41.7301C24.8766 41.2869 24.7559 40.9659 24.5144 40.767C24.2729 40.5682 23.9846 40.4688 23.6493 40.4688C23.2346 40.4688 22.9121 40.5966 22.682 40.8523C22.4519 41.1051 22.3368 41.4304 22.3368 41.8281V46H21.0669V41.6491C21.0669 41.294 20.9561 41.0085 20.7346 40.7926C20.513 40.5767 20.2246 40.4688 19.8695 40.4688C19.628 40.4688 19.405 40.5327 19.2005 40.6605C18.9988 40.7855 18.8354 40.9602 18.7104 41.1847C18.5882 41.4091 18.5272 41.669 18.5272 41.9645V46H17.253ZM33.8553 46.1321C33.2104 46.1321 32.655 45.9943 32.1891 45.7188C31.726 45.4403 31.3681 45.0497 31.1152 44.5469C30.8652 44.0412 30.7402 43.4489 30.7402 42.7699C30.7402 42.0994 30.8652 41.5085 31.1152 40.9972C31.3681 40.4858 31.7203 40.0866 32.1721 39.7997C32.6266 39.5128 33.1578 39.3693 33.7658 39.3693C34.1351 39.3693 34.4931 39.4304 34.8397 39.5526C35.1863 39.6747 35.4973 39.8665 35.7729 40.1278C36.0485 40.3892 36.2658 40.7287 36.4249 41.1463C36.584 41.5611 36.6635 42.0653 36.6635 42.6591V43.1108H31.4604V42.1562H35.415C35.415 41.821 35.3468 41.5241 35.2104 41.2656C35.074 41.0043 34.8823 40.7983 34.6351 40.6477C34.3908 40.4972 34.1039 40.4219 33.7743 40.4219C33.4164 40.4219 33.1039 40.5099 32.8368 40.6861C32.5726 40.8594 32.3681 41.0866 32.2232 41.3679C32.0811 41.6463 32.0101 41.9489 32.0101 42.2756V43.0213C32.0101 43.4588 32.0868 43.831 32.2402 44.1378C32.3965 44.4446 32.6138 44.679 32.8922 44.8409C33.1706 45 33.4959 45.0795 33.8681 45.0795C34.1096 45.0795 34.3297 45.0455 34.5286 44.9773C34.7275 44.9062 34.8993 44.8011 35.0442 44.6619C35.1891 44.5227 35.2999 44.3509 35.3766 44.1463L36.5826 44.3636C36.486 44.7187 36.3127 45.0298 36.0627 45.2969C35.8155 45.5611 35.5044 45.767 35.1294 45.9148C34.7573 46.0597 34.3326 46.1321 33.8553 46.1321ZM38.0772 46V39.4545H39.3514V46H38.0772ZM38.7207 38.4446C38.4991 38.4446 38.3088 38.3707 38.1497 38.223C37.9934 38.0724 37.9153 37.8935 37.9153 37.6861C37.9153 37.4759 37.9934 37.2969 38.1497 37.1491C38.3088 36.9986 38.4991 36.9233 38.7207 36.9233C38.9423 36.9233 39.1312 36.9986 39.2875 37.1491C39.4466 37.2969 39.5261 37.4759 39.5261 37.6861C39.5261 37.8935 39.4466 38.0724 39.2875 38.223C39.1312 38.3707 38.9423 38.4446 38.7207 38.4446ZM42.3397 42.1136V46H41.0655V39.4545H42.2885V40.5199H42.3695C42.5201 40.1733 42.7559 39.8949 43.0769 39.6847C43.4007 39.4744 43.8084 39.3693 44.2999 39.3693C44.7459 39.3693 45.1365 39.4631 45.4718 39.6506C45.807 39.8352 46.0669 40.1108 46.2516 40.4773C46.4363 40.8437 46.5286 41.2969 46.5286 41.8366V46H45.2544V41.9901C45.2544 41.5156 45.1309 41.1449 44.8837 40.8778C44.6365 40.608 44.2971 40.473 43.8652 40.473C43.5698 40.473 43.307 40.5369 43.0769 40.6648C42.8496 40.7926 42.6692 40.9801 42.5357 41.2273C42.405 41.4716 42.3397 41.767 42.3397 42.1136ZM51.0584 46.1321C50.4135 46.1321 49.8581 45.9943 49.3922 45.7188C48.9292 45.4403 48.5712 45.0497 48.3184 44.5469C48.0684 44.0412 47.9434 43.4489 47.9434 42.7699C47.9434 42.0994 48.0684 41.5085 48.3184 40.9972C48.5712 40.4858 48.9235 40.0866 49.3752 39.7997C49.8297 39.5128 50.361 39.3693 50.9689 39.3693C51.3382 39.3693 51.6962 39.4304 52.0428 39.5526C52.3894 39.6747 52.7005 39.8665 52.976 40.1278C53.2516 40.3892 53.4689 40.7287 53.628 41.1463C53.7871 41.5611 53.8667 42.0653 53.8667 42.6591V43.1108H48.6635V42.1562H52.6181C52.6181 41.821 52.5499 41.5241 52.4135 41.2656C52.2772 41.0043 52.0854 40.7983 51.8382 40.6477C51.5939 40.4972 51.307 40.4219 50.9775 40.4219C50.6195 40.4219 50.307 40.5099 50.04 40.6861C49.7757 40.8594 49.5712 41.0866 49.4263 41.3679C49.2843 41.6463 49.2132 41.9489 49.2132 42.2756V43.0213C49.2132 43.4588 49.29 43.831 49.4434 44.1378C49.5996 44.4446 49.8169 44.679 50.0953 44.8409C50.3738 45 50.699 45.0795 51.0712 45.0795C51.3127 45.0795 51.5328 45.0455 51.7317 44.9773C51.9306 44.9062 52.1025 44.8011 52.2473 44.6619C52.3922 44.5227 52.503 44.3509 52.5797 44.1463L53.7857 44.3636C53.6891 44.7187 53.5158 45.0298 53.2658 45.2969C53.0186 45.5611 52.7076 45.767 52.3326 45.9148C51.9604 46.0597 51.5357 46.1321 51.0584 46.1321ZM56.5545 42.1136V46H55.2804V39.4545H56.5034V40.5199H56.5843C56.7349 40.1733 56.9707 39.8949 57.2917 39.6847C57.6156 39.4744 58.0233 39.3693 58.5147 39.3693C58.9608 39.3693 59.3514 39.4631 59.6866 39.6506C60.0218 39.8352 60.2818 40.1108 60.4664 40.4773C60.6511 40.8437 60.7434 41.2969 60.7434 41.8366V46H59.4693V41.9901C59.4693 41.5156 59.3457 41.1449 59.0985 40.8778C58.8514 40.608 58.5119 40.473 58.0801 40.473C57.7846 40.473 57.5218 40.5369 57.2917 40.6648C57.0645 40.7926 56.8841 40.9801 56.7505 41.2273C56.6199 41.4716 56.5545 41.767 56.5545 42.1136ZM73.3113 41.6364C73.3113 42.5682 73.1408 43.3693 72.7999 44.0398C72.459 44.7074 71.9917 45.2216 71.3979 45.5824C70.807 45.9403 70.1351 46.1193 69.3823 46.1193C68.6266 46.1193 67.9519 45.9403 67.3581 45.5824C66.7672 45.2216 66.3013 44.706 65.9604 44.0355C65.6195 43.3651 65.449 42.5653 65.449 41.6364C65.449 40.7045 65.6195 39.9048 65.9604 39.2372C66.3013 38.5668 66.7672 38.0526 67.3581 37.6946C67.9519 37.3338 68.6266 37.1534 69.3823 37.1534C70.1351 37.1534 70.807 37.3338 71.3979 37.6946C71.9917 38.0526 72.459 38.5668 72.7999 39.2372C73.1408 39.9048 73.3113 40.7045 73.3113 41.6364ZM72.0073 41.6364C72.0073 40.9261 71.8922 40.3281 71.6621 39.8423C71.4348 39.3537 71.1223 38.9844 70.7246 38.7344C70.3297 38.4815 69.8823 38.3551 69.3823 38.3551C68.8794 38.3551 68.4306 38.4815 68.0357 38.7344C67.6408 38.9844 67.3283 39.3537 67.0982 39.8423C66.8709 40.3281 66.7573 40.9261 66.7573 41.6364C66.7573 42.3466 66.8709 42.946 67.0982 43.4347C67.3283 43.9205 67.6408 44.2898 68.0357 44.5426C68.4306 44.7926 68.8794 44.9176 69.3823 44.9176C69.8823 44.9176 70.3297 44.7926 70.7246 44.5426C71.1223 44.2898 71.4348 43.9205 71.6621 43.4347C71.8922 42.946 72.0073 42.3466 72.0073 41.6364ZM74.8507 46V39.4545H76.0822V40.4943H76.1504C76.2697 40.142 76.4799 39.8651 76.7811 39.6634C77.085 39.4588 77.4288 39.3565 77.8123 39.3565C77.8919 39.3565 77.9856 39.3594 78.0936 39.3651C78.2044 39.3707 78.291 39.3778 78.3535 39.3864V40.6051C78.3024 40.5909 78.2115 40.5753 78.0808 40.5582C77.9501 40.5384 77.8194 40.5284 77.6887 40.5284C77.3876 40.5284 77.1191 40.5923 76.8833 40.7202C76.6504 40.8452 76.4657 41.0199 76.3294 41.2443C76.193 41.4659 76.1248 41.7187 76.1248 42.0028V46H74.8507ZM82.8983 39.4545V40.4773H79.323V39.4545H82.8983ZM80.2818 37.8864H81.5559V44.0781C81.5559 44.3253 81.5929 44.5114 81.6667 44.6364C81.7406 44.7585 81.8358 44.8423 81.9522 44.8878C82.0716 44.9304 82.2008 44.9517 82.34 44.9517C82.4423 44.9517 82.5318 44.9446 82.6085 44.9304C82.6852 44.9162 82.7449 44.9048 82.7875 44.8963L83.0176 45.9489C82.9437 45.9773 82.8386 46.0057 82.7022 46.0341C82.5659 46.0653 82.3954 46.0824 82.1909 46.0852C81.8556 46.0909 81.5431 46.0312 81.2534 45.9062C80.9636 45.7812 80.7292 45.5881 80.5502 45.3267C80.3713 45.0653 80.2818 44.7372 80.2818 44.3423V37.8864Z" fill="#699BF7"/>
</svg>
