<svg width="111" height="46" viewBox="0 0 111 46" fill="none" xmlns="http://www.w3.org/2000/svg">
<path d="M43.9336 36.5653C43.8881 36.1619 43.7006 35.8494 43.3711 35.6278C43.0415 35.4034 42.6268 35.2912 42.1268 35.2912C41.7688 35.2912 41.4592 35.348 41.1978 35.4616C40.9364 35.5724 40.7333 35.7259 40.5884 35.9219C40.4464 36.1151 40.3754 36.3352 40.3754 36.5824C40.3754 36.7898 40.4237 36.9687 40.5202 37.1193C40.6197 37.2699 40.7489 37.3963 40.908 37.4986C41.07 37.598 41.2433 37.6818 41.4279 37.75C41.6126 37.8153 41.7901 37.8693 41.9606 37.9119L42.8129 38.1335C43.0913 38.2017 43.3768 38.294 43.6694 38.4105C43.962 38.527 44.2333 38.6804 44.4833 38.8707C44.7333 39.0611 44.935 39.2969 45.0884 39.5781C45.2447 39.8594 45.3228 40.196 45.3228 40.5881C45.3228 41.0824 45.195 41.5213 44.9393 41.9048C44.6864 42.2884 44.3185 42.5909 43.8356 42.8125C43.3555 43.0341 42.7745 43.1449 42.0927 43.1449C41.4393 43.1449 40.8739 43.0412 40.3967 42.8338C39.9194 42.6264 39.5458 42.3324 39.2759 41.9517C39.006 41.5682 38.8569 41.1136 38.8285 40.5881H40.1495C40.1751 40.9034 40.2773 41.1662 40.4563 41.3764C40.6381 41.5838 40.8697 41.7386 41.1509 41.8409C41.435 41.9403 41.7461 41.9901 42.0842 41.9901C42.4563 41.9901 42.7873 41.9318 43.0771 41.8153C43.3697 41.696 43.5998 41.5312 43.7674 41.321C43.935 41.108 44.0188 40.8594 44.0188 40.5753C44.0188 40.3168 43.945 40.1051 43.7972 39.9403C43.6523 39.7756 43.4549 39.6392 43.2049 39.5312C42.9577 39.4233 42.6779 39.3281 42.3654 39.2457L41.3342 38.9645C40.6353 38.7741 40.0813 38.4943 39.6722 38.125C39.266 37.7557 39.0629 37.267 39.0629 36.6591C39.0629 36.1562 39.1992 35.7173 39.4719 35.3423C39.7447 34.9673 40.114 34.6761 40.5799 34.4688C41.0458 34.2585 41.5714 34.1534 42.1566 34.1534C42.7475 34.1534 43.2688 34.2571 43.7205 34.4645C44.1751 34.6719 44.533 34.9574 44.7944 35.321C45.0558 35.6818 45.1921 36.0966 45.2035 36.5653H43.9336ZM49.5511 43.1321C48.9375 43.1321 48.402 42.9915 47.9446 42.7102C47.4872 42.429 47.1321 42.0355 46.8793 41.5298C46.6264 41.0241 46.5 40.4332 46.5 39.7571C46.5 39.0781 46.6264 38.4844 46.8793 37.9759C47.1321 37.4673 47.4872 37.0724 47.9446 36.7912C48.402 36.5099 48.9375 36.3693 49.5511 36.3693C50.1648 36.3693 50.7003 36.5099 51.1577 36.7912C51.6151 37.0724 51.9702 37.4673 52.223 37.9759C52.4759 38.4844 52.6023 39.0781 52.6023 39.7571C52.6023 40.4332 52.4759 41.0241 52.223 41.5298C51.9702 42.0355 51.6151 42.429 51.1577 42.7102C50.7003 42.9915 50.1648 43.1321 49.5511 43.1321ZM49.5554 42.0625C49.9531 42.0625 50.2827 41.9574 50.544 41.7472C50.8054 41.5369 50.9986 41.2571 51.1236 40.9077C51.2514 40.5582 51.3153 40.1733 51.3153 39.7528C51.3153 39.3352 51.2514 38.9517 51.1236 38.6023C50.9986 38.25 50.8054 37.9673 50.544 37.7543C50.2827 37.5412 49.9531 37.4347 49.5554 37.4347C49.1548 37.4347 48.8224 37.5412 48.5582 37.7543C48.2969 37.9673 48.1023 38.25 47.9744 38.6023C47.8494 38.9517 47.7869 39.3352 47.7869 39.7528C47.7869 40.1733 47.8494 40.5582 47.9744 40.9077C48.1023 41.2571 48.2969 41.5369 48.5582 41.7472C48.8224 41.9574 49.1548 42.0625 49.5554 42.0625ZM56.7816 43.1321C56.1481 43.1321 55.6026 42.9886 55.1452 42.7017C54.6907 42.4119 54.3413 42.0128 54.0969 41.5043C53.8526 40.9957 53.7305 40.4134 53.7305 39.7571C53.7305 39.0923 53.8555 38.5057 54.1055 37.9972C54.3555 37.4858 54.7077 37.0866 55.1623 36.7997C55.6168 36.5128 56.1523 36.3693 56.7688 36.3693C57.266 36.3693 57.7092 36.4616 58.0984 36.6463C58.4876 36.8281 58.8015 37.0838 59.0401 37.4134C59.2816 37.7429 59.4251 38.1278 59.4705 38.5682H58.2305C58.1623 38.2614 58.006 37.9972 57.7617 37.7756C57.5202 37.554 57.1964 37.4432 56.7901 37.4432C56.435 37.4432 56.1239 37.5369 55.8569 37.7244C55.5927 37.9091 55.3867 38.1733 55.239 38.517C55.0913 38.858 55.0174 39.2614 55.0174 39.7273C55.0174 40.2045 55.0898 40.6165 55.2347 40.9631C55.3796 41.3097 55.5842 41.5781 55.8484 41.7685C56.1154 41.9588 56.4293 42.054 56.7901 42.054C57.0316 42.054 57.2504 42.0099 57.4464 41.9219C57.6452 41.831 57.8114 41.7017 57.945 41.5341C58.0813 41.3665 58.1765 41.1648 58.2305 40.929H59.4705C59.4251 41.3523 59.2873 41.7301 59.0572 42.0625C58.8271 42.3949 58.5188 42.6562 58.1325 42.8466C57.7489 43.0369 57.2987 43.1321 56.7816 43.1321ZM60.8331 43V36.4545H62.1072V43H60.8331ZM61.4766 35.4446C61.255 35.4446 61.0646 35.3707 60.9055 35.223C60.7493 35.0724 60.6712 34.8935 60.6712 34.6861C60.6712 34.4759 60.7493 34.2969 60.9055 34.1491C61.0646 33.9986 61.255 33.9233 61.4766 33.9233C61.6982 33.9233 61.8871 33.9986 62.0433 34.1491C62.2024 34.2969 62.282 34.4759 62.282 34.6861C62.282 34.8935 62.2024 35.0724 62.0433 35.223C61.8871 35.3707 61.6982 35.4446 61.4766 35.4446ZM65.7262 43.1449C65.3114 43.1449 64.9364 43.0682 64.6012 42.9148C64.266 42.7585 64.0004 42.5327 63.8043 42.2372C63.6112 41.9418 63.5146 41.5795 63.5146 41.1506C63.5146 40.7812 63.5856 40.4773 63.7276 40.2386C63.8697 40 64.0614 39.8111 64.3029 39.6719C64.5444 39.5327 64.8143 39.4276 65.1126 39.3565C65.4109 39.2855 65.7148 39.2315 66.0245 39.1946C66.4165 39.1491 66.7347 39.1122 66.979 39.0838C67.2234 39.0526 67.4009 39.0028 67.5117 38.9347C67.6225 38.8665 67.6779 38.7557 67.6779 38.6023V38.5724C67.6779 38.2003 67.5728 37.9119 67.3626 37.7074C67.1552 37.5028 66.8455 37.4006 66.4336 37.4006C66.0046 37.4006 65.6665 37.4957 65.4194 37.6861C65.1751 37.8736 65.006 38.0824 64.9123 38.3125L63.7148 38.0398C63.8569 37.642 64.0643 37.321 64.337 37.0767C64.6126 36.8295 64.9293 36.6506 65.2873 36.5398C65.6452 36.4261 66.0217 36.3693 66.4165 36.3693C66.6779 36.3693 66.9549 36.4006 67.2475 36.4631C67.543 36.5227 67.8185 36.6335 68.0742 36.7955C68.3327 36.9574 68.5444 37.1889 68.7092 37.4901C68.8739 37.7884 68.9563 38.1761 68.9563 38.6534V43H67.712V42.1051H67.6609C67.5785 42.2699 67.4549 42.4318 67.2901 42.5909C67.1254 42.75 66.9137 42.8821 66.6552 42.9872C66.3967 43.0923 66.087 43.1449 65.7262 43.1449ZM66.0032 42.1222C66.3555 42.1222 66.6566 42.0526 66.9066 41.9134C67.1594 41.7741 67.3512 41.5923 67.4819 41.3679C67.6154 41.1406 67.6822 40.8977 67.6822 40.6392V39.7955C67.6367 39.8409 67.5487 39.8835 67.418 39.9233C67.2901 39.9602 67.1438 39.9929 66.979 40.0213C66.8143 40.0469 66.6538 40.071 66.4975 40.0938C66.3413 40.1136 66.2106 40.1307 66.1055 40.1449C65.8583 40.1761 65.6325 40.2287 65.4279 40.3026C65.2262 40.3764 65.0643 40.483 64.9421 40.6222C64.8228 40.7585 64.7631 40.9403 64.7631 41.1676C64.7631 41.483 64.8796 41.7216 65.1126 41.8835C65.3455 42.0426 65.6424 42.1222 66.0032 42.1222ZM71.9276 34.2727V43H70.6534V34.2727H71.9276Z" fill="#699BF7"/>
<path d="M55 0C46.75 0 40 5.37 40 12C40.0377 13.594 40.4269 15.1601 41.14 16.5862C41.8531 18.0124 42.8724 19.2634 44.125 20.25C44.125 21.15 43.495 23.505 40 27C43.555 26.835 46.96 25.5 49.705 23.25C51.415 23.745 53.215 24 55 24C63.25 24 70 18.63 70 12C70 5.37 63.25 0 55 0ZM55 21C48.37 21 43 16.965 43 12C43 7.035 48.37 3 55 3C61.63 3 67 7.035 67 12C67 16.965 61.63 21 55 21ZM62.5 13.5V10.5H59.5V13.5H62.5ZM56.5 13.5V10.5H53.5V13.5H56.5ZM50.5 13.5V10.5H47.5V13.5H50.5Z" fill="#699BF7"/>
</svg>
