<svg width="111" height="46" viewBox="0 0 111 46" fill="none" xmlns="http://www.w3.org/2000/svg">
<path d="M55.5 21.75C55.9108 21.75 56.2555 21.6108 56.5339 21.3324C56.8113 21.055 56.95 20.7108 56.95 20.3V14.4638C56.95 14.0529 56.8113 13.7146 56.5339 13.4487C56.2555 13.1829 55.9108 13.05 55.5 13.05C55.0892 13.05 54.745 13.1887 54.4676 13.4662C54.1892 13.7446 54.05 14.0892 54.05 14.5V20.3363C54.05 20.7471 54.1892 21.0854 54.4676 21.3513C54.745 21.6171 55.0892 21.75 55.5 21.75ZM55.5 10.15C55.9108 10.15 56.2555 10.0108 56.5339 9.7324C56.8113 9.45497 56.95 9.11083 56.95 8.7C56.95 8.28917 56.8113 7.94455 56.5339 7.66615C56.2555 7.38872 55.9108 7.25 55.5 7.25C55.0892 7.25 54.745 7.38872 54.4676 7.66615C54.1892 7.94455 54.05 8.28917 54.05 8.7C54.05 9.11083 54.1892 9.45497 54.4676 9.7324C54.745 10.0108 55.0892 10.15 55.5 10.15ZM55.5 29C53.4942 29 51.6092 28.6191 49.845 27.8574C48.0808 27.0966 46.5463 26.0638 45.2413 24.7588C43.9363 23.4538 42.9034 21.9192 42.1426 20.155C41.3809 18.3908 41 16.5058 41 14.5C41 12.4942 41.3809 10.6092 42.1426 8.845C42.9034 7.08083 43.9363 5.54625 45.2413 4.24125C46.5463 2.93625 48.0808 1.90288 49.845 1.14115C51.6092 0.380383 53.4942 0 55.5 0C57.5058 0 59.3908 0.380383 61.155 1.14115C62.9192 1.90288 64.4538 2.93625 65.7588 4.24125C67.0638 5.54625 68.0966 7.08083 68.8574 8.845C69.6191 10.6092 70 12.4942 70 14.5C70 16.5058 69.6191 18.3908 68.8574 20.155C68.0966 21.9192 67.0638 23.4538 65.7588 24.7588C64.4538 26.0638 62.9192 27.0966 61.155 27.8574C59.3908 28.6191 57.5058 29 55.5 29ZM55.5 26.1C58.7142 26.1 61.4513 24.9705 63.7114 22.7114C65.9705 20.4513 67.1 17.7142 67.1 14.5C67.1 11.2858 65.9705 8.54872 63.7114 6.28865C61.4513 4.02955 58.7142 2.9 55.5 2.9C52.2858 2.9 49.5492 4.02955 47.2901 6.28865C45.03 8.54872 43.9 11.2858 43.9 14.5C43.9 17.7142 45.03 20.4513 47.2901 22.7114C49.5492 24.9705 52.2858 26.1 55.5 26.1Z" fill="#699BF7"/>
<path d="M43.6545 34.2727V43H42.3377V34.2727H43.6545ZM46.744 39.1136V43H45.4698V36.4545H46.6928V37.5199H46.7738C46.9244 37.1733 47.1602 36.8949 47.4812 36.6847C47.805 36.4744 48.2127 36.3693 48.7042 36.3693C49.1502 36.3693 49.5408 36.4631 49.8761 36.6506C50.2113 36.8352 50.4712 37.1108 50.6559 37.4773C50.8406 37.8437 50.9329 38.2969 50.9329 38.8366V43H49.6587V38.9901C49.6587 38.5156 49.5352 38.1449 49.288 37.8778C49.0408 37.608 48.7013 37.473 48.2695 37.473C47.9741 37.473 47.7113 37.5369 47.4812 37.6648C47.2539 37.7926 47.0735 37.9801 46.94 38.2273C46.8093 38.4716 46.744 38.767 46.744 39.1136ZM55.7567 36.4545V37.4773H52.0579V36.4545H55.7567ZM53.0721 43V35.696C53.0721 35.2869 53.1616 34.9474 53.3406 34.6776C53.5195 34.4048 53.7567 34.2017 54.0522 34.0682C54.3477 33.9318 54.6687 33.8636 55.0153 33.8636C55.271 33.8636 55.4897 33.8849 55.6715 33.9276C55.8533 33.9673 55.9883 34.0043 56.0763 34.0384L55.7781 35.0696C55.7184 35.0526 55.6417 35.0327 55.5479 35.0099C55.4542 34.9844 55.3406 34.9716 55.207 34.9716C54.8974 34.9716 54.6758 35.0483 54.5423 35.2017C54.4116 35.3551 54.3462 35.5767 54.3462 35.8665V43H53.0721ZM59.5707 43.1321C58.957 43.1321 58.4215 42.9915 57.9641 42.7102C57.5067 42.429 57.1516 42.0355 56.8988 41.5298C56.646 41.0241 56.5195 40.4332 56.5195 39.7571C56.5195 39.0781 56.646 38.4844 56.8988 37.9759C57.1516 37.4673 57.5067 37.0724 57.9641 36.7912C58.4215 36.5099 58.957 36.3693 59.5707 36.3693C60.1843 36.3693 60.7198 36.5099 61.1772 36.7912C61.6346 37.0724 61.9897 37.4673 62.2425 37.9759C62.4954 38.4844 62.6218 39.0781 62.6218 39.7571C62.6218 40.4332 62.4954 41.0241 62.2425 41.5298C61.9897 42.0355 61.6346 42.429 61.1772 42.7102C60.7198 42.9915 60.1843 43.1321 59.5707 43.1321ZM59.5749 42.0625C59.9727 42.0625 60.3022 41.9574 60.5636 41.7472C60.8249 41.5369 61.0181 41.2571 61.1431 40.9077C61.271 40.5582 61.3349 40.1733 61.3349 39.7528C61.3349 39.3352 61.271 38.9517 61.1431 38.6023C61.0181 38.25 60.8249 37.9673 60.5636 37.7543C60.3022 37.5412 59.9727 37.4347 59.5749 37.4347C59.1744 37.4347 58.842 37.5412 58.5778 37.7543C58.3164 37.9673 58.1218 38.25 57.994 38.6023C57.869 38.9517 57.8065 39.3352 57.8065 39.7528C57.8065 40.1733 57.869 40.5582 57.994 40.9077C58.1218 41.2571 58.3164 41.5369 58.5778 41.7472C58.842 41.9574 59.1744 42.0625 59.5749 42.0625ZM68.9489 38.0526L67.794 38.2571C67.7457 38.1094 67.669 37.9687 67.5639 37.8352C67.4616 37.7017 67.3224 37.5923 67.1463 37.5071C66.9702 37.4219 66.75 37.3793 66.4858 37.3793C66.125 37.3793 65.8239 37.4602 65.5824 37.6222C65.3409 37.7812 65.2202 37.9872 65.2202 38.2401C65.2202 38.4588 65.3011 38.6349 65.4631 38.7685C65.625 38.902 65.8864 39.0114 66.2472 39.0966L67.2869 39.3352C67.8892 39.4744 68.3381 39.6889 68.6335 39.9787C68.929 40.2685 69.0767 40.6449 69.0767 41.108C69.0767 41.5 68.9631 41.8494 68.7358 42.1562C68.5114 42.4602 68.1974 42.6989 67.794 42.8722C67.3935 43.0455 66.929 43.1321 66.4006 43.1321C65.6676 43.1321 65.0696 42.9759 64.6065 42.6634C64.1435 42.348 63.8594 41.9006 63.7543 41.321L64.9858 41.1335C65.0625 41.4545 65.2202 41.6974 65.4588 41.8622C65.6974 42.0241 66.0085 42.1051 66.392 42.1051C66.8097 42.1051 67.1435 42.0185 67.3935 41.8452C67.6435 41.669 67.7685 41.4545 67.7685 41.2017C67.7685 40.9972 67.6918 40.8253 67.5384 40.6861C67.3878 40.5469 67.1562 40.4418 66.8438 40.3707L65.7358 40.1278C65.125 39.9886 64.6733 39.767 64.3807 39.4631C64.0909 39.1591 63.946 38.7741 63.946 38.3082C63.946 37.9219 64.054 37.5838 64.2699 37.294C64.4858 37.0043 64.7841 36.7784 65.1648 36.6165C65.5455 36.4517 65.9815 36.3693 66.473 36.3693C67.1804 36.3693 67.7372 36.5227 68.1435 36.8295C68.5497 37.1335 68.8182 37.5412 68.9489 38.0526Z" fill="#699BF7"/>
</svg>
