<svg width="101" height="49" viewBox="0 0 101 49" fill="none" xmlns="http://www.w3.org/2000/svg">
<path d="M47.6322 30.0334V19.9017C46.8181 19.8112 46.0114 19.5775 45.2124 19.2006C44.4133 18.8236 43.682 18.3035 43.0186 17.6401C41.3753 15.9967 40.5536 14.037 40.5536 11.761C40.5536 9.48374 41.3753 7.52343 43.0186 5.88003C44.662 4.23664 46.6224 3.41494 48.8996 3.41494C51.1756 3.41494 53.1353 4.23664 54.7787 5.88003C56.4221 7.52343 57.2441 9.48344 57.2447 11.7601C57.2441 14.0367 56.4221 15.9967 54.7787 17.6401C54.1153 18.3035 53.3841 18.8236 52.585 19.2006C51.7859 19.5775 50.9793 19.8112 50.1652 19.9017L50.1652 30.0786C50.1652 30.4103 50.0445 30.6968 49.8033 30.938C49.5621 31.1793 49.2605 31.2999 48.8987 31.2999C48.567 31.2999 48.273 31.1717 48.0167 30.9154C47.7604 30.6591 47.6322 30.3651 47.6322 30.0334V30.0334ZM44.8279 15.8309C45.9587 16.9616 47.3156 17.5273 48.8987 17.5279C50.4818 17.5273 51.8387 16.9616 52.9695 15.8309C54.1003 14.7001 54.6659 13.3432 54.6665 11.7601C54.6659 10.177 54.1003 8.82005 52.9695 7.68928C51.8387 6.5585 50.4818 5.99281 48.8987 5.99221C47.3156 5.99281 45.9587 6.5585 44.8279 7.68928C43.6971 8.82005 43.1314 10.177 43.1308 11.7601C43.1314 13.3432 43.6971 14.7001 44.8279 15.8309Z" fill="#699BF7"/>
<path d="M19.1199 37.2727H20.4409V43.0128C20.4409 43.6236 20.2974 44.1648 20.0105 44.6364C19.7235 45.1051 19.3201 45.4744 18.8002 45.7443C18.2804 46.0114 17.671 46.1449 16.9721 46.1449C16.2761 46.1449 15.6681 46.0114 15.1483 45.7443C14.6284 45.4744 14.225 45.1051 13.938 44.6364C13.6511 44.1648 13.5076 43.6236 13.5076 43.0128V37.2727H14.8244V42.9062C14.8244 43.3011 14.911 43.652 15.0843 43.9588C15.2605 44.2656 15.5091 44.5071 15.8301 44.6832C16.1511 44.8565 16.5318 44.9432 16.9721 44.9432C17.4153 44.9432 17.7974 44.8565 18.1184 44.6832C18.4423 44.5071 18.6895 44.2656 18.8599 43.9588C19.0332 43.652 19.1199 43.3011 19.1199 42.9062V37.2727ZM22.253 46V39.4545H23.476V40.5199H23.557C23.6934 40.1591 23.9164 39.8778 24.226 39.6761C24.5357 39.4716 24.9064 39.3693 25.3382 39.3693C25.7757 39.3693 26.1422 39.4716 26.4377 39.6761C26.736 39.8807 26.9561 40.1619 27.0982 40.5199H27.1664C27.3226 40.1705 27.5712 39.892 27.9121 39.6847C28.253 39.4744 28.6593 39.3693 29.1309 39.3693C29.7246 39.3693 30.209 39.5554 30.584 39.9276C30.9618 40.2997 31.1507 40.8608 31.1507 41.6108V46H29.8766V41.7301C29.8766 41.2869 29.7559 40.9659 29.5144 40.767C29.2729 40.5682 28.9846 40.4688 28.6493 40.4688C28.2346 40.4688 27.9121 40.5966 27.682 40.8523C27.4519 41.1051 27.3368 41.4304 27.3368 41.8281V46H26.0669V41.6491C26.0669 41.294 25.9561 41.0085 25.7346 40.7926C25.513 40.5767 25.2246 40.4688 24.8695 40.4688C24.628 40.4688 24.405 40.5327 24.2005 40.6605C23.9988 40.7855 23.8354 40.9602 23.7104 41.1847C23.5882 41.4091 23.5272 41.669 23.5272 41.9645V46H22.253ZM38.8553 46.1321C38.2104 46.1321 37.655 45.9943 37.1891 45.7188C36.726 45.4403 36.3681 45.0497 36.1152 44.5469C35.8652 44.0412 35.7402 43.4489 35.7402 42.7699C35.7402 42.0994 35.8652 41.5085 36.1152 40.9972C36.3681 40.4858 36.7203 40.0866 37.1721 39.7997C37.6266 39.5128 38.1578 39.3693 38.7658 39.3693C39.1351 39.3693 39.4931 39.4304 39.8397 39.5526C40.1863 39.6747 40.4973 39.8665 40.7729 40.1278C41.0485 40.3892 41.2658 40.7287 41.4249 41.1463C41.584 41.5611 41.6635 42.0653 41.6635 42.6591V43.1108H36.4604V42.1562H40.415C40.415 41.821 40.3468 41.5241 40.2104 41.2656C40.074 41.0043 39.8823 40.7983 39.6351 40.6477C39.3908 40.4972 39.1039 40.4219 38.7743 40.4219C38.4164 40.4219 38.1039 40.5099 37.8368 40.6861C37.5726 40.8594 37.3681 41.0866 37.2232 41.3679C37.0811 41.6463 37.0101 41.9489 37.0101 42.2756V43.0213C37.0101 43.4588 37.0868 43.831 37.2402 44.1378C37.3965 44.4446 37.6138 44.679 37.8922 44.8409C38.1706 45 38.4959 45.0795 38.8681 45.0795C39.1096 45.0795 39.3297 45.0455 39.5286 44.9773C39.7275 44.9062 39.8993 44.8011 40.0442 44.6619C40.1891 44.5227 40.2999 44.3509 40.3766 44.1463L41.5826 44.3636C41.486 44.7187 41.3127 45.0298 41.0627 45.2969C40.8155 45.5611 40.5044 45.767 40.1294 45.9148C39.7573 46.0597 39.3326 46.1321 38.8553 46.1321ZM43.0772 46V39.4545H44.3514V46H43.0772ZM43.7207 38.4446C43.4991 38.4446 43.3088 38.3707 43.1497 38.223C42.9934 38.0724 42.9153 37.8935 42.9153 37.6861C42.9153 37.4759 42.9934 37.2969 43.1497 37.1491C43.3088 36.9986 43.4991 36.9233 43.7207 36.9233C43.9423 36.9233 44.1312 36.9986 44.2875 37.1491C44.4466 37.2969 44.5261 37.4759 44.5261 37.6861C44.5261 37.8935 44.4466 38.0724 44.2875 38.223C44.1312 38.3707 43.9423 38.4446 43.7207 38.4446ZM47.3397 42.1136V46H46.0655V39.4545H47.2885V40.5199H47.3695C47.5201 40.1733 47.7559 39.8949 48.0769 39.6847C48.4007 39.4744 48.8084 39.3693 49.2999 39.3693C49.7459 39.3693 50.1365 39.4631 50.4718 39.6506C50.807 39.8352 51.0669 40.1108 51.2516 40.4773C51.4363 40.8437 51.5286 41.2969 51.5286 41.8366V46H50.2544V41.9901C50.2544 41.5156 50.1309 41.1449 49.8837 40.8778C49.6365 40.608 49.2971 40.473 48.8652 40.473C48.5698 40.473 48.307 40.5369 48.0769 40.6648C47.8496 40.7926 47.6692 40.9801 47.5357 41.2273C47.405 41.4716 47.3397 41.767 47.3397 42.1136ZM56.0584 46.1321C55.4135 46.1321 54.8581 45.9943 54.3922 45.7188C53.9292 45.4403 53.5712 45.0497 53.3184 44.5469C53.0684 44.0412 52.9434 43.4489 52.9434 42.7699C52.9434 42.0994 53.0684 41.5085 53.3184 40.9972C53.5712 40.4858 53.9235 40.0866 54.3752 39.7997C54.8297 39.5128 55.361 39.3693 55.9689 39.3693C56.3382 39.3693 56.6962 39.4304 57.0428 39.5526C57.3894 39.6747 57.7005 39.8665 57.976 40.1278C58.2516 40.3892 58.4689 40.7287 58.628 41.1463C58.7871 41.5611 58.8667 42.0653 58.8667 42.6591V43.1108H53.6635V42.1562H57.6181C57.6181 41.821 57.5499 41.5241 57.4135 41.2656C57.2772 41.0043 57.0854 40.7983 56.8382 40.6477C56.5939 40.4972 56.307 40.4219 55.9775 40.4219C55.6195 40.4219 55.307 40.5099 55.04 40.6861C54.7757 40.8594 54.5712 41.0866 54.4263 41.3679C54.2843 41.6463 54.2132 41.9489 54.2132 42.2756V43.0213C54.2132 43.4588 54.29 43.831 54.4434 44.1378C54.5996 44.4446 54.8169 44.679 55.0953 44.8409C55.3738 45 55.699 45.0795 56.0712 45.0795C56.3127 45.0795 56.5328 45.0455 56.7317 44.9773C56.9306 44.9062 57.1025 44.8011 57.2473 44.6619C57.3922 44.5227 57.503 44.3509 57.5797 44.1463L58.7857 44.3636C58.6891 44.7187 58.5158 45.0298 58.2658 45.2969C58.0186 45.5611 57.7076 45.767 57.3326 45.9148C56.9604 46.0597 56.5357 46.1321 56.0584 46.1321ZM61.5545 42.1136V46H60.2804V39.4545H61.5034V40.5199H61.5843C61.7349 40.1733 61.9707 39.8949 62.2917 39.6847C62.6156 39.4744 63.0233 39.3693 63.5147 39.3693C63.9608 39.3693 64.3514 39.4631 64.6866 39.6506C65.0218 39.8352 65.2818 40.1108 65.4664 40.4773C65.6511 40.8437 65.7434 41.2969 65.7434 41.8366V46H64.4693V41.9901C64.4693 41.5156 64.3457 41.1449 64.0985 40.8778C63.8514 40.608 63.5119 40.473 63.0801 40.473C62.7846 40.473 62.5218 40.5369 62.2917 40.6648C62.0645 40.7926 61.8841 40.9801 61.7505 41.2273C61.6199 41.4716 61.5545 41.767 61.5545 42.1136ZM78.3113 41.6364C78.3113 42.5682 78.1408 43.3693 77.7999 44.0398C77.459 44.7074 76.9917 45.2216 76.3979 45.5824C75.807 45.9403 75.1351 46.1193 74.3823 46.1193C73.6266 46.1193 72.9519 45.9403 72.3581 45.5824C71.7672 45.2216 71.3013 44.706 70.9604 44.0355C70.6195 43.3651 70.449 42.5653 70.449 41.6364C70.449 40.7045 70.6195 39.9048 70.9604 39.2372C71.3013 38.5668 71.7672 38.0526 72.3581 37.6946C72.9519 37.3338 73.6266 37.1534 74.3823 37.1534C75.1351 37.1534 75.807 37.3338 76.3979 37.6946C76.9917 38.0526 77.459 38.5668 77.7999 39.2372C78.1408 39.9048 78.3113 40.7045 78.3113 41.6364ZM77.0073 41.6364C77.0073 40.9261 76.8922 40.3281 76.6621 39.8423C76.4348 39.3537 76.1223 38.9844 75.7246 38.7344C75.3297 38.4815 74.8823 38.3551 74.3823 38.3551C73.8794 38.3551 73.4306 38.4815 73.0357 38.7344C72.6408 38.9844 72.3283 39.3537 72.0982 39.8423C71.8709 40.3281 71.7573 40.9261 71.7573 41.6364C71.7573 42.3466 71.8709 42.946 72.0982 43.4347C72.3283 43.9205 72.6408 44.2898 73.0357 44.5426C73.4306 44.7926 73.8794 44.9176 74.3823 44.9176C74.8823 44.9176 75.3297 44.7926 75.7246 44.5426C76.1223 44.2898 76.4348 43.9205 76.6621 43.4347C76.8922 42.946 77.0073 42.3466 77.0073 41.6364ZM79.8507 46V39.4545H81.0822V40.4943H81.1504C81.2697 40.142 81.4799 39.8651 81.7811 39.6634C82.085 39.4588 82.4288 39.3565 82.8123 39.3565C82.8919 39.3565 82.9856 39.3594 83.0936 39.3651C83.2044 39.3707 83.291 39.3778 83.3535 39.3864V40.6051C83.3024 40.5909 83.2115 40.5753 83.0808 40.5582C82.9501 40.5384 82.8194 40.5284 82.6887 40.5284C82.3876 40.5284 82.1191 40.5923 81.8833 40.7202C81.6504 40.8452 81.4657 41.0199 81.3294 41.2443C81.193 41.4659 81.1248 41.7187 81.1248 42.0028V46H79.8507ZM87.8983 39.4545V40.4773H84.323V39.4545H87.8983ZM85.2818 37.8864H86.5559V44.0781C86.5559 44.3253 86.5929 44.5114 86.6667 44.6364C86.7406 44.7585 86.8358 44.8423 86.9522 44.8878C87.0716 44.9304 87.2008 44.9517 87.34 44.9517C87.4423 44.9517 87.5318 44.9446 87.6085 44.9304C87.6852 44.9162 87.7449 44.9048 87.7875 44.8963L88.0176 45.9489C87.9437 45.9773 87.8386 46.0057 87.7022 46.0341C87.5659 46.0653 87.3954 46.0824 87.1909 46.0852C86.8556 46.0909 86.5431 46.0312 86.2534 45.9062C85.9636 45.7812 85.7292 45.5881 85.5502 45.3267C85.3713 45.0653 85.2818 44.7372 85.2818 44.3423V37.8864Z" fill="#699BF7"/>
</svg>
