<svg width="111" height="49" viewBox="0 0 111 49" fill="none" xmlns="http://www.w3.org/2000/svg">
<path d="M52.6322 30.0334V19.9017C51.8181 19.8112 51.0114 19.5775 50.2124 19.2006C49.4133 18.8236 48.682 18.3035 48.0186 17.6401C46.3753 15.9967 45.5536 14.037 45.5536 11.761C45.5536 9.48374 46.3753 7.52343 48.0186 5.88003C49.662 4.23664 51.6224 3.41494 53.8996 3.41494C56.1756 3.41494 58.1353 4.23664 59.7787 5.88003C61.4221 7.52343 62.2441 9.48344 62.2447 11.7601C62.2441 14.0367 61.4221 15.9967 59.7787 17.6401C59.1153 18.3035 58.3841 18.8236 57.585 19.2006C56.7859 19.5775 55.9793 19.8112 55.1652 19.9017L55.1652 30.0786C55.1652 30.4103 55.0445 30.6968 54.8033 30.938C54.5621 31.1793 54.2605 31.2999 53.8987 31.2999C53.567 31.2999 53.273 31.1717 53.0167 30.9154C52.7604 30.6591 52.6322 30.3651 52.6322 30.0334V30.0334ZM49.8279 15.8309C50.9587 16.9616 52.3156 17.5273 53.8987 17.5279C55.4818 17.5273 56.8387 16.9616 57.9695 15.8309C59.1003 14.7001 59.6659 13.3432 59.6665 11.7601C59.6659 10.177 59.1003 8.82005 57.9695 7.68928C56.8387 6.5585 55.4818 5.99281 53.8987 5.99221C52.3156 5.99281 50.9587 6.5585 49.8279 7.68928C48.6971 8.82005 48.1314 10.177 48.1308 11.7601C48.1314 13.3432 48.6971 14.7001 49.8279 15.8309Z" fill="#699BF7"/>
<path d="M25.3125 39.5653C25.267 39.1619 25.0795 38.8494 24.75 38.6278C24.4205 38.4034 24.0057 38.2912 23.5057 38.2912C23.1477 38.2912 22.8381 38.348 22.5767 38.4616C22.3153 38.5724 22.1122 38.7259 21.9673 38.9219C21.8253 39.1151 21.7543 39.3352 21.7543 39.5824C21.7543 39.7898 21.8026 39.9687 21.8991 40.1193C21.9986 40.2699 22.1278 40.3963 22.2869 40.4986C22.4489 40.598 22.6222 40.6818 22.8068 40.75C22.9915 40.8153 23.169 40.8693 23.3395 40.9119L24.1918 41.1335C24.4702 41.2017 24.7557 41.294 25.0483 41.4105C25.3409 41.527 25.6122 41.6804 25.8622 41.8707C26.1122 42.0611 26.3139 42.2969 26.4673 42.5781C26.6236 42.8594 26.7017 43.196 26.7017 43.5881C26.7017 44.0824 26.5739 44.5213 26.3182 44.9048C26.0653 45.2884 25.6974 45.5909 25.2145 45.8125C24.7344 46.0341 24.1534 46.1449 23.4716 46.1449C22.8182 46.1449 22.2528 46.0412 21.7756 45.8338C21.2983 45.6264 20.9247 45.3324 20.6548 44.9517C20.3849 44.5682 20.2358 44.1136 20.2074 43.5881H21.5284C21.554 43.9034 21.6563 44.1662 21.8352 44.3764C22.017 44.5838 22.2486 44.7386 22.5298 44.8409C22.8139 44.9403 23.125 44.9901 23.4631 44.9901C23.8352 44.9901 24.1662 44.9318 24.456 44.8153C24.7486 44.696 24.9787 44.5312 25.1463 44.321C25.3139 44.108 25.3977 43.8594 25.3977 43.5753C25.3977 43.3168 25.3239 43.1051 25.1761 42.9403C25.0313 42.7756 24.8338 42.6392 24.5838 42.5312C24.3366 42.4233 24.0568 42.3281 23.7443 42.2457L22.7131 41.9645C22.0142 41.7741 21.4602 41.4943 21.0511 41.125C20.6449 40.7557 20.4418 40.267 20.4418 39.6591C20.4418 39.1562 20.5781 38.7173 20.8509 38.3423C21.1236 37.9673 21.4929 37.6761 21.9588 37.4688C22.4247 37.2585 22.9503 37.1534 23.5355 37.1534C24.1264 37.1534 24.6477 37.2571 25.0994 37.4645C25.554 37.6719 25.9119 37.9574 26.1733 38.321C26.4347 38.6818 26.571 39.0966 26.5824 39.5653H25.3125ZM28.1729 48.4545V39.4545H29.4173V40.5156H29.5238C29.5977 40.3793 29.7042 40.2216 29.8434 40.0426C29.9826 39.8636 30.1758 39.7074 30.4229 39.5739C30.6701 39.4375 30.9968 39.3693 31.4031 39.3693C31.9315 39.3693 32.4031 39.5028 32.8178 39.7699C33.2326 40.0369 33.5579 40.4219 33.7937 40.9247C34.0323 41.4276 34.1516 42.0327 34.1516 42.7401C34.1516 43.4474 34.0337 44.054 33.7979 44.5597C33.5621 45.0625 33.2383 45.4503 32.8263 45.723C32.4144 45.9929 31.9442 46.1278 31.4158 46.1278C31.0181 46.1278 30.6928 46.0611 30.44 45.9276C30.19 45.794 29.994 45.6378 29.8519 45.4588C29.7099 45.2798 29.6005 45.1207 29.5238 44.9815H29.4471V48.4545H28.1729ZM29.4215 42.7273C29.4215 43.1875 29.4883 43.5909 29.6218 43.9375C29.7553 44.2841 29.9485 44.5554 30.2013 44.7514C30.4542 44.9446 30.7638 45.0412 31.1303 45.0412C31.511 45.0412 31.8292 44.9403 32.0849 44.7386C32.3406 44.5341 32.5337 44.2571 32.6644 43.9077C32.7979 43.5582 32.8647 43.1648 32.8647 42.7273C32.8647 42.2955 32.7994 41.9077 32.6687 41.5639C32.5408 41.2202 32.3477 40.9489 32.0891 40.75C31.8335 40.5511 31.5138 40.4517 31.1303 40.4517C30.761 40.4517 30.4485 40.5469 30.1928 40.7372C29.94 40.9276 29.7482 41.1932 29.6175 41.5341C29.4869 41.875 29.4215 42.2727 29.4215 42.7273ZM38.3363 46.1321C37.7227 46.1321 37.1871 45.9915 36.7298 45.7102C36.2724 45.429 35.9173 45.0355 35.6644 44.5298C35.4116 44.0241 35.2852 43.4332 35.2852 42.7571C35.2852 42.0781 35.4116 41.4844 35.6644 40.9759C35.9173 40.4673 36.2724 40.0724 36.7298 39.7912C37.1871 39.5099 37.7227 39.3693 38.3363 39.3693C38.9499 39.3693 39.4854 39.5099 39.9428 39.7912C40.4002 40.0724 40.7553 40.4673 41.0082 40.9759C41.261 41.4844 41.3874 42.0781 41.3874 42.7571C41.3874 43.4332 41.261 44.0241 41.0082 44.5298C40.7553 45.0355 40.4002 45.429 39.9428 45.7102C39.4854 45.9915 38.9499 46.1321 38.3363 46.1321ZM38.3406 45.0625C38.7383 45.0625 39.0678 44.9574 39.3292 44.7472C39.5906 44.5369 39.7837 44.2571 39.9087 43.9077C40.0366 43.5582 40.1005 43.1733 40.1005 42.7528C40.1005 42.3352 40.0366 41.9517 39.9087 41.6023C39.7837 41.25 39.5906 40.9673 39.3292 40.7543C39.0678 40.5412 38.7383 40.4347 38.3406 40.4347C37.94 40.4347 37.6076 40.5412 37.3434 40.7543C37.082 40.9673 36.8874 41.25 36.7596 41.6023C36.6346 41.9517 36.5721 42.3352 36.5721 42.7528C36.5721 43.1733 36.6346 43.5582 36.7596 43.9077C36.8874 44.2571 37.082 44.5369 37.3434 44.7472C37.6076 44.9574 37.94 45.0625 38.3406 45.0625ZM45.8651 39.4545V40.4773H42.2898V39.4545H45.8651ZM43.2486 37.8864H44.5227V44.0781C44.5227 44.3253 44.5597 44.5114 44.6335 44.6364C44.7074 44.7585 44.8026 44.8423 44.919 44.8878C45.0384 44.9304 45.1676 44.9517 45.3068 44.9517C45.4091 44.9517 45.4986 44.9446 45.5753 44.9304C45.652 44.9162 45.7116 44.9048 45.7543 44.8963L45.9844 45.9489C45.9105 45.9773 45.8054 46.0057 45.669 46.0341C45.5327 46.0653 45.3622 46.0824 45.1577 46.0852C44.8224 46.0909 44.5099 46.0312 44.2202 45.9062C43.9304 45.7812 43.696 45.5881 43.517 45.3267C43.3381 45.0653 43.2486 44.7372 43.2486 44.3423V37.8864ZM55.3551 41.0526L54.2003 41.2571C54.152 41.1094 54.0753 40.9687 53.9702 40.8352C53.8679 40.7017 53.7287 40.5923 53.5526 40.5071C53.3764 40.4219 53.1563 40.3793 52.892 40.3793C52.5313 40.3793 52.2301 40.4602 51.9886 40.6222C51.7472 40.7812 51.6264 40.9872 51.6264 41.2401C51.6264 41.4588 51.7074 41.6349 51.8693 41.7685C52.0313 41.902 52.2926 42.0114 52.6534 42.0966L53.6932 42.3352C54.2955 42.4744 54.7443 42.6889 55.0398 42.9787C55.3352 43.2685 55.483 43.6449 55.483 44.108C55.483 44.5 55.3693 44.8494 55.142 45.1562C54.9176 45.4602 54.6037 45.6989 54.2003 45.8722C53.7997 46.0455 53.3352 46.1321 52.8068 46.1321C52.0739 46.1321 51.4759 45.9759 51.0128 45.6634C50.5497 45.348 50.2656 44.9006 50.1605 44.321L51.392 44.1335C51.4688 44.4545 51.6264 44.6974 51.8651 44.8622C52.1037 45.0241 52.4148 45.1051 52.7983 45.1051C53.2159 45.1051 53.5497 45.0185 53.7997 44.8452C54.0497 44.669 54.1747 44.4545 54.1747 44.2017C54.1747 43.9972 54.098 43.8253 53.9446 43.6861C53.794 43.5469 53.5625 43.4418 53.25 43.3707L52.142 43.1278C51.5313 42.9886 51.0795 42.767 50.7869 42.4631C50.4972 42.1591 50.3523 41.7741 50.3523 41.3082C50.3523 40.9219 50.4602 40.5838 50.6761 40.294C50.892 40.0043 51.1903 39.7784 51.571 39.6165C51.9517 39.4517 52.3878 39.3693 52.8793 39.3693C53.5866 39.3693 54.1435 39.5227 54.5497 39.8295C54.956 40.1335 55.2244 40.5412 55.3551 41.0526ZM61.0302 43.2855V39.4545H62.3086V46H61.0558V44.8665H60.9876C60.837 45.2159 60.5955 45.5071 60.2631 45.7401C59.9336 45.9702 59.5231 46.0852 59.0316 46.0852C58.6112 46.0852 58.239 45.9929 57.9151 45.8082C57.5941 45.6207 57.3413 45.3438 57.1566 44.9773C56.9748 44.6108 56.8839 44.1577 56.8839 43.6179V39.4545H58.158V43.4645C58.158 43.9105 58.2816 44.2656 58.5288 44.5298C58.7759 44.794 59.0969 44.9261 59.4918 44.9261C59.7305 44.9261 59.9677 44.8665 60.2035 44.7472C60.4421 44.6278 60.6396 44.4474 60.7958 44.206C60.9549 43.9645 61.033 43.6577 61.0302 43.2855ZM66.7777 46.1321C66.1442 46.1321 65.5987 45.9886 65.1413 45.7017C64.6868 45.4119 64.3374 45.0128 64.093 44.5043C63.8487 43.9957 63.7266 43.4134 63.7266 42.7571C63.7266 42.0923 63.8516 41.5057 64.1016 40.9972C64.3516 40.4858 64.7038 40.0866 65.1584 39.7997C65.6129 39.5128 66.1484 39.3693 66.7649 39.3693C67.2621 39.3693 67.7053 39.4616 68.0945 39.6463C68.4837 39.8281 68.7976 40.0838 69.0362 40.4134C69.2777 40.7429 69.4212 41.1278 69.4666 41.5682H68.2266C68.1584 41.2614 68.0021 40.9972 67.7578 40.7756C67.5163 40.554 67.1925 40.4432 66.7862 40.4432C66.4311 40.4432 66.12 40.5369 65.853 40.7244C65.5888 40.9091 65.3828 41.1733 65.2351 41.517C65.0874 41.858 65.0135 42.2614 65.0135 42.7273C65.0135 43.2045 65.0859 43.6165 65.2308 43.9631C65.3757 44.3097 65.5803 44.5781 65.8445 44.7685C66.1115 44.9588 66.4254 45.054 66.7862 45.054C67.0277 45.054 67.2464 45.0099 67.4425 44.9219C67.6413 44.831 67.8075 44.7017 67.9411 44.5341C68.0774 44.3665 68.1726 44.1648 68.2266 43.929H69.4666C69.4212 44.3523 69.2834 44.7301 69.0533 45.0625C68.8232 45.3949 68.5149 45.6562 68.1286 45.8466C67.745 46.0369 67.2947 46.1321 66.7777 46.1321ZM72.1033 42.1136V46H70.8292V37.2727H72.0863V40.5199H72.1673C72.3207 40.1676 72.555 39.8878 72.8704 39.6804C73.1857 39.473 73.5977 39.3693 74.1062 39.3693C74.555 39.3693 74.9471 39.4616 75.2823 39.6463C75.6204 39.831 75.8817 40.1065 76.0664 40.473C76.2539 40.8366 76.3477 41.2912 76.3477 41.8366V46H75.0735V41.9901C75.0735 41.5099 74.9499 41.1378 74.7028 40.8736C74.4556 40.6065 74.1119 40.473 73.6715 40.473C73.3704 40.473 73.1005 40.5369 72.8619 40.6648C72.6261 40.7926 72.44 40.9801 72.3036 41.2273C72.1701 41.4716 72.1033 41.767 72.1033 42.1136ZM80.869 46.1321C80.2241 46.1321 79.6687 45.9943 79.2028 45.7188C78.7397 45.4403 78.3817 45.0497 78.1289 44.5469C77.8789 44.0412 77.7539 43.4489 77.7539 42.7699C77.7539 42.0994 77.8789 41.5085 78.1289 40.9972C78.3817 40.4858 78.734 40.0866 79.1857 39.7997C79.6403 39.5128 80.1715 39.3693 80.7795 39.3693C81.1488 39.3693 81.5067 39.4304 81.8533 39.5526C82.1999 39.6747 82.511 39.8665 82.7866 40.1278C83.0621 40.3892 83.2795 40.7287 83.4386 41.1463C83.5977 41.5611 83.6772 42.0653 83.6772 42.6591V43.1108H78.4741V42.1562H82.4286C82.4286 41.821 82.3604 41.5241 82.2241 41.2656C82.0877 41.0043 81.896 40.7983 81.6488 40.6477C81.4045 40.4972 81.1175 40.4219 80.788 40.4219C80.43 40.4219 80.1175 40.5099 79.8505 40.6861C79.5863 40.8594 79.3817 41.0866 79.2369 41.3679C79.0948 41.6463 79.0238 41.9489 79.0238 42.2756V43.0213C79.0238 43.4588 79.1005 43.831 79.2539 44.1378C79.4102 44.4446 79.6275 44.679 79.9059 44.8409C80.1843 45 80.5096 45.0795 80.8817 45.0795C81.1232 45.0795 81.3434 45.0455 81.5423 44.9773C81.7411 44.9062 81.913 44.8011 82.0579 44.6619C82.2028 44.5227 82.3136 44.3509 82.3903 44.1463L83.5962 44.3636C83.4996 44.7187 83.3263 45.0298 83.0763 45.2969C82.8292 45.5611 82.5181 45.767 82.1431 45.9148C81.771 46.0597 81.3462 46.1321 80.869 46.1321ZM86.3651 42.1136V46H85.0909V39.4545H86.3139V40.5199H86.3949C86.5455 40.1733 86.7813 39.8949 87.1023 39.6847C87.4261 39.4744 87.8338 39.3693 88.3253 39.3693C88.7713 39.3693 89.1619 39.4631 89.4972 39.6506C89.8324 39.8352 90.0923 40.1108 90.277 40.4773C90.4616 40.8437 90.554 41.2969 90.554 41.8366V46H89.2798V41.9901C89.2798 41.5156 89.1563 41.1449 88.9091 40.8778C88.6619 40.608 88.3224 40.473 87.8906 40.473C87.5952 40.473 87.3324 40.5369 87.1023 40.6648C86.875 40.7926 86.6946 40.9801 86.5611 41.2273C86.4304 41.4716 86.3651 41.767 86.3651 42.1136Z" fill="#699BF7"/>
</svg>
