<svg width="75" height="54" viewBox="0 0 75 54" fill="none" xmlns="http://www.w3.org/2000/svg">
<path d="M50.5 29.25C50.9142 29.2505 51.3126 29.4091 51.6137 29.6934C51.9149 29.9777 52.0961 30.3663 52.1204 30.7798C52.1447 31.1932 52.0102 31.6004 51.7443 31.918C51.4785 32.2356 51.1014 32.4397 50.6901 32.4886L50.5 32.5H24.5C24.0858 32.4995 23.6874 32.3409 23.3863 32.0566C23.0851 31.7723 22.9039 31.3837 22.8796 30.9702C22.8553 30.5568 22.9898 30.1496 23.2557 29.832C23.5215 29.5144 23.8986 29.3103 24.3099 29.2614L24.5 29.25H50.5ZM50.5 17.875C50.931 17.875 51.3443 18.0462 51.649 18.351C51.9538 18.6557 52.125 19.069 52.125 19.5C52.125 19.931 51.9538 20.3443 51.649 20.649C51.3443 20.9538 50.931 21.125 50.5 21.125H24.5C24.069 21.125 23.6557 20.9538 23.351 20.649C23.0462 20.3443 22.875 19.931 22.875 19.5C22.875 19.069 23.0462 18.6557 23.351 18.351C23.6557 18.0462 24.069 17.875 24.5 17.875H50.5ZM50.5 6.5C50.931 6.5 51.3443 6.67121 51.649 6.97595C51.9538 7.2807 52.125 7.69402 52.125 8.125C52.125 8.55598 51.9538 8.9693 51.649 9.27405C51.3443 9.57879 50.931 9.75 50.5 9.75H24.5C24.069 9.75 23.6557 9.57879 23.351 9.27405C23.0462 8.9693 22.875 8.55598 22.875 8.125C22.875 7.69402 23.0462 7.2807 23.351 6.97595C23.6557 6.67121 24.069 6.5 24.5 6.5H50.5Z" fill="#699BF7"/>
<path d="M22.3983 42.2727H23.9963L26.7747 49.0568H26.877L29.6554 42.2727H31.2534V51H30.0005V44.6847H29.9196L27.3457 50.9872H26.3059L23.7321 44.6804H23.6511V51H22.3983V42.2727ZM35.8865 51.1321C35.2417 51.1321 34.6863 50.9943 34.2203 50.7188C33.7573 50.4403 33.3993 50.0497 33.1465 49.5469C32.8965 49.0412 32.7715 48.4489 32.7715 47.7699C32.7715 47.0994 32.8965 46.5085 33.1465 45.9972C33.3993 45.4858 33.7516 45.0866 34.2033 44.7997C34.6578 44.5128 35.1891 44.3693 35.7971 44.3693C36.1664 44.3693 36.5243 44.4304 36.8709 44.5526C37.2175 44.6747 37.5286 44.8665 37.8042 45.1278C38.0797 45.3892 38.2971 45.7287 38.4561 46.1463C38.6152 46.5611 38.6948 47.0653 38.6948 47.6591V48.1108H33.4917V47.1562H37.4462C37.4462 46.821 37.378 46.5241 37.2417 46.2656C37.1053 46.0043 36.9135 45.7983 36.6664 45.6477C36.4221 45.4972 36.1351 45.4219 35.8056 45.4219C35.4476 45.4219 35.1351 45.5099 34.8681 45.6861C34.6039 45.8594 34.3993 46.0866 34.2544 46.3679C34.1124 46.6463 34.0414 46.9489 34.0414 47.2756V48.0213C34.0414 48.4588 34.1181 48.831 34.2715 49.1378C34.4277 49.4446 34.6451 49.679 34.9235 49.8409C35.2019 50 35.5272 50.0795 35.8993 50.0795C36.1408 50.0795 36.361 50.0455 36.5598 49.9773C36.7587 49.9062 36.9306 49.8011 37.0755 49.6619C37.2203 49.5227 37.3311 49.3509 37.4078 49.1463L38.6138 49.3636C38.5172 49.7187 38.3439 50.0298 38.0939 50.2969C37.8468 50.5611 37.5357 50.767 37.1607 50.9148C36.7885 51.0597 36.3638 51.1321 35.8865 51.1321ZM41.3826 47.1136V51H40.1085V44.4545H41.3315V45.5199H41.4125C41.563 45.1733 41.7988 44.8949 42.1199 44.6847C42.4437 44.4744 42.8514 44.3693 43.3429 44.3693C43.7889 44.3693 44.1795 44.4631 44.5147 44.6506C44.85 44.8352 45.1099 45.1108 45.2946 45.4773C45.4792 45.8437 45.5716 46.2969 45.5716 46.8366V51H44.2974V46.9901C44.2974 46.5156 44.1738 46.1449 43.9267 45.8778C43.6795 45.608 43.34 45.473 42.9082 45.473C42.6127 45.473 42.35 45.5369 42.1199 45.6648C41.8926 45.7926 41.7122 45.9801 41.5787 46.2273C41.448 46.4716 41.3826 46.767 41.3826 47.1136ZM51.4267 48.2855V44.4545H52.7051V51H51.4522V49.8665H51.3841C51.2335 50.2159 50.992 50.5071 50.6596 50.7401C50.3301 50.9702 49.9196 51.0852 49.4281 51.0852C49.0076 51.0852 48.6355 50.9929 48.3116 50.8082C47.9906 50.6207 47.7377 50.3438 47.5531 49.9773C47.3713 49.6108 47.2804 49.1577 47.2804 48.6179V44.4545H48.5545V48.4645C48.5545 48.9105 48.6781 49.2656 48.9252 49.5298C49.1724 49.794 49.4934 49.9261 49.8883 49.9261C50.127 49.9261 50.3642 49.8665 50.6 49.7472C50.8386 49.6278 51.036 49.4474 51.1923 49.206C51.3514 48.9645 51.4295 48.6577 51.4267 48.2855ZM48.7505 43.4276C48.5488 43.4276 48.3727 43.3537 48.2221 43.206C48.0716 43.0554 47.9963 42.8821 47.9963 42.6861C47.9963 42.473 48.0716 42.2955 48.2221 42.1534C48.3727 42.0114 48.5488 41.9403 48.7505 41.9403C48.9636 41.9403 49.1412 42.0114 49.2832 42.1534C49.4281 42.2955 49.5005 42.473 49.5005 42.6861C49.5005 42.8821 49.4281 43.0554 49.2832 43.206C49.1412 43.3537 48.9636 43.4276 48.7505 43.4276ZM51.2562 43.4276C51.0545 43.4276 50.8784 43.3537 50.7278 43.206C50.5772 43.0554 50.502 42.8821 50.502 42.6861C50.502 42.473 50.5772 42.2955 50.7278 42.1534C50.8784 42.0114 51.0545 41.9403 51.2562 41.9403C51.4693 41.9403 51.6468 42.0114 51.7889 42.1534C51.9338 42.2955 52.0062 42.473 52.0062 42.6861C52.0062 42.8821 51.9338 43.0554 51.7889 43.206C51.6468 43.3537 51.4693 43.4276 51.2562 43.4276Z" fill="#699BF7"/>
</svg>
