<svg width="111" height="54" viewBox="0 0 111 54" fill="none" xmlns="http://www.w3.org/2000/svg">
<path d="M68.5 29.25C68.9142 29.2505 69.3126 29.4091 69.6137 29.6934C69.9149 29.9777 70.0961 30.3663 70.1204 30.7798C70.1447 31.1932 70.0102 31.6004 69.7443 31.918C69.4785 32.2356 69.1014 32.4397 68.6901 32.4886L68.5 32.5H42.5C42.0858 32.4995 41.6874 32.3409 41.3863 32.0566C41.0851 31.7723 40.9039 31.3837 40.8796 30.9702C40.8553 30.5568 40.9898 30.1496 41.2557 29.832C41.5215 29.5144 41.8986 29.3103 42.3099 29.2614L42.5 29.25H68.5ZM68.5 17.875C68.931 17.875 69.3443 18.0462 69.649 18.351C69.9538 18.6557 70.125 19.069 70.125 19.5C70.125 19.931 69.9538 20.3443 69.649 20.649C69.3443 20.9538 68.931 21.125 68.5 21.125H42.5C42.069 21.125 41.6557 20.9538 41.351 20.649C41.0462 20.3443 40.875 19.931 40.875 19.5C40.875 19.069 41.0462 18.6557 41.351 18.351C41.6557 18.0462 42.069 17.875 42.5 17.875H68.5ZM68.5 6.5C68.931 6.5 69.3443 6.67121 69.649 6.97595C69.9538 7.2807 70.125 7.69402 70.125 8.125C70.125 8.55598 69.9538 8.9693 69.649 9.27405C69.3443 9.57879 68.931 9.75 68.5 9.75H42.5C42.069 9.75 41.6557 9.57879 41.351 9.27405C41.0462 8.9693 40.875 8.55598 40.875 8.125C40.875 7.69402 41.0462 7.2807 41.351 6.97595C41.6557 6.67121 42.069 6.5 42.5 6.5H68.5Z" fill="#699BF7"/>
<path d="M40.3983 42.2727H41.9963L44.7747 49.0568H44.877L47.6554 42.2727H49.2534V51H48.0005V44.6847H47.9196L45.3457 50.9872H44.3059L41.7321 44.6804H41.6511V51H40.3983V42.2727ZM53.8865 51.1321C53.2417 51.1321 52.6863 50.9943 52.2203 50.7188C51.7573 50.4403 51.3993 50.0497 51.1465 49.5469C50.8965 49.0412 50.7715 48.4489 50.7715 47.7699C50.7715 47.0994 50.8965 46.5085 51.1465 45.9972C51.3993 45.4858 51.7516 45.0866 52.2033 44.7997C52.6578 44.5128 53.1891 44.3693 53.7971 44.3693C54.1664 44.3693 54.5243 44.4304 54.8709 44.5526C55.2175 44.6747 55.5286 44.8665 55.8042 45.1278C56.0797 45.3892 56.2971 45.7287 56.4561 46.1463C56.6152 46.5611 56.6948 47.0653 56.6948 47.6591V48.1108H51.4917V47.1562H55.4462C55.4462 46.821 55.378 46.5241 55.2417 46.2656C55.1053 46.0043 54.9135 45.7983 54.6664 45.6477C54.4221 45.4972 54.1351 45.4219 53.8056 45.4219C53.4476 45.4219 53.1351 45.5099 52.8681 45.6861C52.6039 45.8594 52.3993 46.0866 52.2544 46.3679C52.1124 46.6463 52.0414 46.9489 52.0414 47.2756V48.0213C52.0414 48.4588 52.1181 48.831 52.2715 49.1378C52.4277 49.4446 52.6451 49.679 52.9235 49.8409C53.2019 50 53.5272 50.0795 53.8993 50.0795C54.1408 50.0795 54.361 50.0455 54.5598 49.9773C54.7587 49.9062 54.9306 49.8011 55.0755 49.6619C55.2203 49.5227 55.3311 49.3509 55.4078 49.1463L56.6138 49.3636C56.5172 49.7187 56.3439 50.0298 56.0939 50.2969C55.8468 50.5611 55.5357 50.767 55.1607 50.9148C54.7885 51.0597 54.3638 51.1321 53.8865 51.1321ZM59.3826 47.1136V51H58.1085V44.4545H59.3315V45.5199H59.4125C59.563 45.1733 59.7988 44.8949 60.1199 44.6847C60.4437 44.4744 60.8514 44.3693 61.3429 44.3693C61.7889 44.3693 62.1795 44.4631 62.5147 44.6506C62.85 44.8352 63.1099 45.1108 63.2946 45.4773C63.4792 45.8437 63.5716 46.2969 63.5716 46.8366V51H62.2974V46.9901C62.2974 46.5156 62.1738 46.1449 61.9267 45.8778C61.6795 45.608 61.34 45.473 60.9082 45.473C60.6127 45.473 60.35 45.5369 60.1199 45.6648C59.8926 45.7926 59.7122 45.9801 59.5787 46.2273C59.448 46.4716 59.3826 46.767 59.3826 47.1136ZM69.4267 48.2855V44.4545H70.7051V51H69.4522V49.8665H69.3841C69.2335 50.2159 68.992 50.5071 68.6596 50.7401C68.3301 50.9702 67.9196 51.0852 67.4281 51.0852C67.0076 51.0852 66.6355 50.9929 66.3116 50.8082C65.9906 50.6207 65.7377 50.3438 65.5531 49.9773C65.3713 49.6108 65.2804 49.1577 65.2804 48.6179V44.4545H66.5545V48.4645C66.5545 48.9105 66.6781 49.2656 66.9252 49.5298C67.1724 49.794 67.4934 49.9261 67.8883 49.9261C68.127 49.9261 68.3642 49.8665 68.6 49.7472C68.8386 49.6278 69.036 49.4474 69.1923 49.206C69.3514 48.9645 69.4295 48.6577 69.4267 48.2855ZM66.7505 43.4276C66.5488 43.4276 66.3727 43.3537 66.2221 43.206C66.0716 43.0554 65.9963 42.8821 65.9963 42.6861C65.9963 42.473 66.0716 42.2955 66.2221 42.1534C66.3727 42.0114 66.5488 41.9403 66.7505 41.9403C66.9636 41.9403 67.1412 42.0114 67.2832 42.1534C67.4281 42.2955 67.5005 42.473 67.5005 42.6861C67.5005 42.8821 67.4281 43.0554 67.2832 43.206C67.1412 43.3537 66.9636 43.4276 66.7505 43.4276ZM69.2562 43.4276C69.0545 43.4276 68.8784 43.3537 68.7278 43.206C68.5772 43.0554 68.502 42.8821 68.502 42.6861C68.502 42.473 68.5772 42.2955 68.7278 42.1534C68.8784 42.0114 69.0545 41.9403 69.2562 41.9403C69.4693 41.9403 69.6468 42.0114 69.7889 42.1534C69.9338 42.2955 70.0062 42.473 70.0062 42.6861C70.0062 42.8821 69.9338 43.0554 69.7889 43.206C69.6468 43.3537 69.4693 43.4276 69.2562 43.4276Z" fill="#699BF7"/>
</svg>
