<svg width="111" height="52" viewBox="0 0 111 52" fill="none" xmlns="http://www.w3.org/2000/svg">
<path d="M53.6301 30V27.2603C50.7763 26.9406 48.3279 25.7594 46.2849 23.7164C44.2411 21.6726 43.0594 19.2237 42.7397 16.3699H40V13.6301H42.7397C43.0594 10.7763 44.2411 8.3274 46.2849 6.28356C48.3279 4.24064 50.7763 3.05936 53.6301 2.73973V0H56.3699V2.73973C59.2237 3.05936 61.6726 4.24064 63.7164 6.28356C65.7594 8.3274 66.9406 10.7763 67.2603 13.6301H70V16.3699H67.2603C66.9406 19.2237 65.7594 21.6726 63.7164 23.7164C61.6726 25.7594 59.2237 26.9406 56.3699 27.2603V30H53.6301ZM55 24.589C57.6484 24.589 59.9087 23.653 61.7808 21.7808C63.653 19.9087 64.589 17.6484 64.589 15C64.589 12.3516 63.653 10.0913 61.7808 8.21918C59.9087 6.34703 57.6484 5.41096 55 5.41096C52.3516 5.41096 50.0913 6.34703 48.2192 8.21918C46.347 10.0913 45.411 12.3516 45.411 15C45.411 17.6484 46.347 19.9087 48.2192 21.7808C50.0913 23.653 52.3516 24.589 55 24.589ZM55 20.4795C53.4931 20.4795 52.2032 19.9429 51.1301 18.8699C50.0571 17.7968 49.5205 16.5068 49.5205 15C49.5205 13.4931 50.0571 12.2032 51.1301 11.1301C52.2032 10.0571 53.4931 9.52055 55 9.52055C56.5068 9.52055 57.7968 10.0571 58.8699 11.1301C59.9429 12.2032 60.4795 13.4931 60.4795 15C60.4795 16.5068 59.9429 17.7968 58.8699 18.8699C57.7968 19.9429 56.5068 20.4795 55 20.4795ZM55 17.7397C55.7534 17.7397 56.3986 17.4712 56.9356 16.9342C57.4717 16.3982 57.7397 15.7534 57.7397 15C57.7397 14.2466 57.4717 13.6014 56.9356 13.0644C56.3986 12.5283 55.7534 12.2603 55 12.2603C54.2466 12.2603 53.6018 12.5283 53.0658 13.0644C52.5288 13.6014 52.2603 14.2466 52.2603 15C52.2603 15.7534 52.5288 16.3982 53.0658 16.9342C53.6018 17.4712 54.2466 17.7397 55 17.7397Z" fill="#699BF7"/>
<path d="M17.0534 40.2727H18.3745V46.0128C18.3745 46.6236 18.231 47.1648 17.9441 47.6364C17.6571 48.1051 17.2537 48.4744 16.7338 48.7443C16.214 49.0114 15.6046 49.1449 14.9057 49.1449C14.2097 49.1449 13.6017 49.0114 13.0819 48.7443C12.562 48.4744 12.1586 48.1051 11.8716 47.6364C11.5847 47.1648 11.4412 46.6236 11.4412 46.0128V40.2727H12.758V45.9062C12.758 46.3011 12.8446 46.652 13.0179 46.9588C13.1941 47.2656 13.4426 47.5071 13.7637 47.6832C14.0847 47.8565 14.4654 47.9432 14.9057 47.9432C15.3489 47.9432 15.731 47.8565 16.052 47.6832C16.3759 47.5071 16.623 47.2656 16.7935 46.9588C16.9668 46.652 17.0534 46.3011 17.0534 45.9062V40.2727ZM20.1866 49V42.4545H21.4096V43.5199H21.4906C21.627 43.1591 21.85 42.8778 22.1596 42.6761C22.4693 42.4716 22.84 42.3693 23.2718 42.3693C23.7093 42.3693 24.0758 42.4716 24.3713 42.6761C24.6696 42.8807 24.8897 43.1619 25.0318 43.5199H25.1C25.2562 43.1705 25.5048 42.892 25.8457 42.6847C26.1866 42.4744 26.5929 42.3693 27.0645 42.3693C27.6582 42.3693 28.1426 42.5554 28.5176 42.9276C28.8954 43.2997 29.0843 43.8608 29.0843 44.6108V49H27.8102V44.7301C27.8102 44.2869 27.6895 43.9659 27.448 43.767C27.2065 43.5682 26.9181 43.4688 26.5829 43.4688C26.1681 43.4688 25.8457 43.5966 25.6156 43.8523C25.3855 44.1051 25.2704 44.4304 25.2704 44.8281V49H24.0005V44.6491C24.0005 44.294 23.8897 44.0085 23.6681 43.7926C23.4466 43.5767 23.1582 43.4688 22.8031 43.4688C22.5616 43.4688 22.3386 43.5327 22.1341 43.6605C21.9324 43.7855 21.769 43.9602 21.644 44.1847C21.5218 44.4091 21.4608 44.669 21.4608 44.9645V49H20.1866ZM33.9679 49V42.4545H35.1909V43.5199H35.2718C35.4082 43.1591 35.6312 42.8778 35.9409 42.6761C36.2505 42.4716 36.6213 42.3693 37.0531 42.3693C37.4906 42.3693 37.8571 42.4716 38.1525 42.6761C38.4508 42.8807 38.671 43.1619 38.813 43.5199H38.8812C39.0375 43.1705 39.286 42.892 39.627 42.6847C39.9679 42.4744 40.3741 42.3693 40.8457 42.3693C41.4395 42.3693 41.9238 42.5554 42.2988 42.9276C42.6767 43.2997 42.8656 43.8608 42.8656 44.6108V49H41.5914V44.7301C41.5914 44.2869 41.4707 43.9659 41.2292 43.767C40.9877 43.5682 40.6994 43.4688 40.3642 43.4688C39.9494 43.4688 39.627 43.5966 39.3968 43.8523C39.1667 44.1051 39.0517 44.4304 39.0517 44.8281V49H37.7818V44.6491C37.7818 44.294 37.671 44.0085 37.4494 43.7926C37.2278 43.5767 36.9395 43.4688 36.5843 43.4688C36.3429 43.4688 36.1199 43.5327 35.9153 43.6605C35.7136 43.7855 35.5502 43.9602 35.4252 44.1847C35.3031 44.4091 35.242 44.669 35.242 44.9645V49H33.9679ZM44.5733 49V42.4545H45.8475V49H44.5733ZM45.2168 41.4446C44.9952 41.4446 44.8049 41.3707 44.6458 41.223C44.4895 41.0724 44.4114 40.8935 44.4114 40.6861C44.4114 40.4759 44.4895 40.2969 44.6458 40.1491C44.8049 39.9986 44.9952 39.9233 45.2168 39.9233C45.4384 39.9233 45.6273 39.9986 45.7836 40.1491C45.9426 40.2969 46.0222 40.4759 46.0222 40.6861C46.0222 40.8935 45.9426 41.0724 45.7836 41.223C45.6273 41.3707 45.4384 41.4446 45.2168 41.4446ZM50.3187 49.1321C49.6852 49.1321 49.1397 48.9886 48.6824 48.7017C48.2278 48.4119 47.8784 48.0128 47.6341 47.5043C47.3897 46.9957 47.2676 46.4134 47.2676 45.7571C47.2676 45.0923 47.3926 44.5057 47.6426 43.9972C47.8926 43.4858 48.2449 43.0866 48.6994 42.7997C49.1539 42.5128 49.6895 42.3693 50.3059 42.3693C50.8031 42.3693 51.2463 42.4616 51.6355 42.6463C52.0247 42.8281 52.3386 43.0838 52.5772 43.4134C52.8187 43.7429 52.9622 44.1278 53.0076 44.5682H51.7676C51.6994 44.2614 51.5431 43.9972 51.2988 43.7756C51.0574 43.554 50.7335 43.4432 50.3272 43.4432C49.9721 43.4432 49.661 43.5369 49.394 43.7244C49.1298 43.9091 48.9238 44.1733 48.7761 44.517C48.6284 44.858 48.5545 45.2614 48.5545 45.7273C48.5545 46.2045 48.627 46.6165 48.7718 46.9631C48.9167 47.3097 49.1213 47.5781 49.3855 47.7685C49.6525 47.9588 49.9664 48.054 50.3272 48.054C50.5687 48.054 50.7875 48.0099 50.9835 47.9219C51.1824 47.831 51.3485 47.7017 51.4821 47.5341C51.6184 47.3665 51.7136 47.1648 51.7676 46.929H53.0076C52.9622 47.3523 52.8244 47.7301 52.5943 48.0625C52.3642 48.3949 52.0559 48.6562 51.6696 48.8466C51.286 49.0369 50.8358 49.1321 50.3187 49.1321ZM55.6444 45.1136V49H54.3702V40.2727H55.6273V43.5199H55.7083C55.8617 43.1676 56.0961 42.8878 56.4114 42.6804C56.7267 42.473 57.1387 42.3693 57.6472 42.3693C58.0961 42.3693 58.4881 42.4616 58.8233 42.6463C59.1614 42.831 59.4228 43.1065 59.6074 43.473C59.7949 43.8366 59.8887 44.2912 59.8887 44.8366V49H58.6145V44.9901C58.6145 44.5099 58.4909 44.1378 58.2438 43.8736C57.9966 43.6065 57.6529 43.473 57.2125 43.473C56.9114 43.473 56.6415 43.5369 56.4029 43.6648C56.1671 43.7926 55.981 43.9801 55.8446 44.2273C55.7111 44.4716 55.6444 44.767 55.6444 45.1136ZM66.0389 45.1136V49H64.7647V40.2727H66.0218V43.5199H66.1028C66.2562 43.1676 66.4906 42.8878 66.8059 42.6804C67.1213 42.473 67.5332 42.3693 68.0417 42.3693C68.4906 42.3693 68.8826 42.4616 69.2179 42.6463C69.5559 42.831 69.8173 43.1065 70.002 43.473C70.1895 43.8366 70.2832 44.2912 70.2832 44.8366V49H69.0091V44.9901C69.0091 44.5099 68.8855 44.1378 68.6383 43.8736C68.3912 43.6065 68.0474 43.473 67.6071 43.473C67.3059 43.473 67.036 43.5369 66.7974 43.6648C66.5616 43.7926 66.3755 43.9801 66.2392 44.2273C66.1056 44.4716 66.0389 44.767 66.0389 45.1136ZM74.8045 49.1321C74.1596 49.1321 73.6042 48.9943 73.1383 48.7188C72.6752 48.4403 72.3173 48.0497 72.0645 47.5469C71.8145 47.0412 71.6895 46.4489 71.6895 45.7699C71.6895 45.0994 71.8145 44.5085 72.0645 43.9972C72.3173 43.4858 72.6696 43.0866 73.1213 42.7997C73.5758 42.5128 74.1071 42.3693 74.715 42.3693C75.0843 42.3693 75.4423 42.4304 75.7889 42.5526C76.1355 42.6747 76.4466 42.8665 76.7221 43.1278C76.9977 43.3892 77.215 43.7287 77.3741 44.1463C77.5332 44.5611 77.6127 45.0653 77.6127 45.6591V46.1108H72.4096V45.1562H76.3642C76.3642 44.821 76.296 44.5241 76.1596 44.2656C76.0233 44.0043 75.8315 43.7983 75.5843 43.6477C75.34 43.4972 75.0531 43.4219 74.7235 43.4219C74.3656 43.4219 74.0531 43.5099 73.786 43.6861C73.5218 43.8594 73.3173 44.0866 73.1724 44.3679C73.0304 44.6463 72.9593 44.9489 72.9593 45.2756V46.0213C72.9593 46.4588 73.036 46.831 73.1895 47.1378C73.3457 47.4446 73.563 47.679 73.8414 47.8409C74.1199 48 74.4451 48.0795 74.8173 48.0795C75.0588 48.0795 75.2789 48.0455 75.4778 47.9773C75.6767 47.9062 75.8485 47.8011 75.9934 47.6619C76.1383 47.5227 76.2491 47.3509 76.3258 47.1463L77.5318 47.3636C77.4352 47.7187 77.2619 48.0298 77.0119 48.2969C76.7647 48.5611 76.4537 48.767 76.0787 48.9148C75.7065 49.0597 75.2818 49.1321 74.8045 49.1321ZM79.0265 49V42.4545H80.258V43.4943H80.3262C80.4455 43.142 80.6557 42.8651 80.9569 42.6634C81.2608 42.4588 81.6046 42.3565 81.9881 42.3565C82.0676 42.3565 82.1614 42.3594 82.2694 42.3651C82.3801 42.3707 82.4668 42.3778 82.5293 42.3864V43.6051C82.4782 43.5909 82.3873 43.5753 82.2566 43.5582C82.1259 43.5384 81.9952 43.5284 81.8645 43.5284C81.5634 43.5284 81.2949 43.5923 81.0591 43.7202C80.8262 43.8452 80.6415 44.0199 80.5051 44.2443C80.3688 44.4659 80.3006 44.7187 80.3006 45.0028V49H79.0265ZM87.7782 46.2855V42.4545H89.0566V49H87.8038V47.8665H87.7356C87.585 48.2159 87.3436 48.5071 87.0112 48.7401C86.6816 48.9702 86.2711 49.0852 85.7797 49.0852C85.3592 49.0852 84.987 48.9929 84.6632 48.8082C84.3422 48.6207 84.0893 48.3438 83.9047 47.9773C83.7228 47.6108 83.6319 47.1577 83.6319 46.6179V42.4545H84.9061V46.4645C84.9061 46.9105 85.0297 47.2656 85.2768 47.5298C85.524 47.794 85.845 47.9261 86.2399 47.9261C86.4785 47.9261 86.7157 47.8665 86.9515 47.7472C87.1902 47.6278 87.3876 47.4474 87.5439 47.206C87.7029 46.9645 87.7811 46.6577 87.7782 46.2855ZM90.7686 49V42.4545H91.9917V43.5199H92.0726C92.209 43.1591 92.432 42.8778 92.7417 42.6761C93.0513 42.4716 93.4221 42.3693 93.8539 42.3693C94.2914 42.3693 94.6578 42.4716 94.9533 42.6761C95.2516 42.8807 95.4718 43.1619 95.6138 43.5199H95.682C95.8382 43.1705 96.0868 42.892 96.4277 42.6847C96.7686 42.4744 97.1749 42.3693 97.6465 42.3693C98.2402 42.3693 98.7246 42.5554 99.0996 42.9276C99.4775 43.2997 99.6664 43.8608 99.6664 44.6108V49H98.3922V44.7301C98.3922 44.2869 98.2715 43.9659 98.03 43.767C97.7885 43.5682 97.5002 43.4688 97.165 43.4688C96.7502 43.4688 96.4277 43.5966 96.1976 43.8523C95.9675 44.1051 95.8525 44.4304 95.8525 44.8281V49H94.5826V44.6491C94.5826 44.294 94.4718 44.0085 94.2502 43.7926C94.0286 43.5767 93.7402 43.4688 93.3851 43.4688C93.1436 43.4688 92.9206 43.5327 92.7161 43.6605C92.5144 43.7855 92.351 43.9602 92.226 44.1847C92.1039 44.4091 92.0428 44.669 92.0428 44.9645V49H90.7686Z" fill="#699BF7"/>
</svg>
