<svg width="111" height="54" viewBox="0 0 111 54" fill="none" xmlns="http://www.w3.org/2000/svg">
<path d="M26.0428 42.2727H27.6408L30.4192 49.0568H30.5215L33.2999 42.2727H34.8979V51H33.6451V44.6847H33.5641L30.9902 50.9872H29.9505L27.3766 44.6804H27.2956V51H26.0428V42.2727ZM39.5311 51.1321C38.8862 51.1321 38.3308 50.9943 37.8649 50.7188C37.4018 50.4403 37.0439 50.0497 36.791 49.5469C36.541 49.0412 36.416 48.4489 36.416 47.7699C36.416 47.0994 36.541 46.5085 36.791 45.9972C37.0439 45.4858 37.3961 45.0866 37.8478 44.7997C38.3024 44.5128 38.8336 44.3693 39.4416 44.3693C39.8109 44.3693 40.1689 44.4304 40.5154 44.5526C40.862 44.6747 41.1731 44.8665 41.4487 45.1278C41.7243 45.3892 41.9416 45.7287 42.1007 46.1463C42.2598 46.5611 42.3393 47.0653 42.3393 47.6591V48.1108H37.1362V47.1562H41.0907C41.0907 46.821 41.0225 46.5241 40.8862 46.2656C40.7498 46.0043 40.5581 45.7983 40.3109 45.6477C40.0666 45.4972 39.7797 45.4219 39.4501 45.4219C39.0922 45.4219 38.7797 45.5099 38.5126 45.6861C38.2484 45.8594 38.0439 46.0866 37.899 46.3679C37.7569 46.6463 37.6859 46.9489 37.6859 47.2756V48.0213C37.6859 48.4588 37.7626 48.831 37.916 49.1378C38.0723 49.4446 38.2896 49.679 38.568 49.8409C38.8464 50 39.1717 50.0795 39.5439 50.0795C39.7853 50.0795 40.0055 50.0455 40.2044 49.9773C40.4032 49.9062 40.5751 49.8011 40.72 49.6619C40.8649 49.5227 40.9757 49.3509 41.0524 49.1463L42.2583 49.3636C42.1618 49.7187 41.9885 50.0298 41.7385 50.2969C41.4913 50.5611 41.1802 50.767 40.8052 50.9148C40.4331 51.0597 40.0083 51.1321 39.5311 51.1321ZM43.753 51V44.4545H45.0272V51H43.753ZM44.3965 43.4446C44.1749 43.4446 43.9846 43.3707 43.8255 43.223C43.6692 43.0724 43.5911 42.8935 43.5911 42.6861C43.5911 42.4759 43.6692 42.2969 43.8255 42.1491C43.9846 41.9986 44.1749 41.9233 44.3965 41.9233C44.6181 41.9233 44.807 41.9986 44.9632 42.1491C45.1223 42.2969 45.2019 42.4759 45.2019 42.6861C45.2019 42.8935 45.1223 43.0724 44.9632 43.223C44.807 43.3707 44.6181 43.4446 44.3965 43.4446ZM48.0154 47.1136V51H46.7413V44.4545H47.9643V45.5199H48.0453C48.1958 45.1733 48.4316 44.8949 48.7527 44.6847C49.0765 44.4744 49.4842 44.3693 49.9757 44.3693C50.4217 44.3693 50.8123 44.4631 51.1475 44.6506C51.4828 44.8352 51.7427 45.1108 51.9274 45.4773C52.112 45.8437 52.2044 46.2969 52.2044 46.8366V51H50.9302V46.9901C50.9302 46.5156 50.8066 46.1449 50.5595 45.8778C50.3123 45.608 49.9728 45.473 49.541 45.473C49.2456 45.473 48.9828 45.5369 48.7527 45.6648C48.5254 45.7926 48.345 45.9801 48.2115 46.2273C48.0808 46.4716 48.0154 46.767 48.0154 47.1136ZM57.1912 51V42.2727H60.302C60.981 42.2727 61.5435 42.3963 61.9895 42.6435C62.4355 42.8906 62.7694 43.2287 62.9909 43.6577C63.2125 44.0838 63.3233 44.5639 63.3233 45.098C63.3233 45.6349 63.2111 46.1179 62.9867 46.5469C62.7651 46.973 62.4299 47.3111 61.981 47.5611C61.535 47.8082 60.9739 47.9318 60.2978 47.9318H58.1586V46.8153H60.1784C60.6074 46.8153 60.9554 46.7415 61.2225 46.5938C61.4895 46.4432 61.6855 46.2386 61.8105 45.9801C61.9355 45.7216 61.998 45.4276 61.998 45.098C61.998 44.7685 61.9355 44.4759 61.8105 44.2202C61.6855 43.9645 61.4881 43.7642 61.2182 43.6193C60.9512 43.4744 60.5989 43.402 60.1614 43.402H58.508V51H57.1912ZM64.7647 51V44.4545H65.9963V45.4943H66.0645C66.1838 45.142 66.394 44.8651 66.6951 44.6634C66.9991 44.4588 67.3429 44.3565 67.7264 44.3565C67.8059 44.3565 67.8997 44.3594 68.0076 44.3651C68.1184 44.3707 68.2051 44.3778 68.2676 44.3864V45.6051C68.2164 45.5909 68.1255 45.5753 67.9949 45.5582C67.8642 45.5384 67.7335 45.5284 67.6028 45.5284C67.3017 45.5284 67.0332 45.5923 66.7974 45.7202C66.5645 45.8452 66.3798 46.0199 66.2434 46.2443C66.1071 46.4659 66.0389 46.7187 66.0389 47.0028V51H64.7647ZM71.8929 51.1321C71.2793 51.1321 70.7438 50.9915 70.2864 50.7102C69.829 50.429 69.4739 50.0355 69.2211 49.5298C68.9682 49.0241 68.8418 48.4332 68.8418 47.7571C68.8418 47.0781 68.9682 46.4844 69.2211 45.9759C69.4739 45.4673 69.829 45.0724 70.2864 44.7912C70.7438 44.5099 71.2793 44.3693 71.8929 44.3693C72.5066 44.3693 73.0421 44.5099 73.4995 44.7912C73.9569 45.0724 74.312 45.4673 74.5648 45.9759C74.8176 46.4844 74.9441 47.0781 74.9441 47.7571C74.9441 48.4332 74.8176 49.0241 74.5648 49.5298C74.312 50.0355 73.9569 50.429 73.4995 50.7102C73.0421 50.9915 72.5066 51.1321 71.8929 51.1321ZM71.8972 50.0625C72.2949 50.0625 72.6245 49.9574 72.8858 49.7472C73.1472 49.5369 73.3404 49.2571 73.4654 48.9077C73.5932 48.5582 73.6571 48.1733 73.6571 47.7528C73.6571 47.3352 73.5932 46.9517 73.4654 46.6023C73.3404 46.25 73.1472 45.9673 72.8858 45.7543C72.6245 45.5412 72.2949 45.4347 71.8972 45.4347C71.4966 45.4347 71.1642 45.5412 70.9 45.7543C70.6387 45.9673 70.4441 46.25 70.3162 46.6023C70.1912 46.9517 70.1287 47.3352 70.1287 47.7528C70.1287 48.1733 70.1912 48.5582 70.3162 48.9077C70.4441 49.2571 70.6387 49.5369 70.9 49.7472C71.1642 49.9574 71.4966 50.0625 71.8972 50.0625ZM79.4814 44.4545V45.4773H75.7825V44.4545H79.4814ZM76.7967 51V43.696C76.7967 43.2869 76.8862 42.9474 77.0652 42.6776C77.2441 42.4048 77.4814 42.2017 77.7768 42.0682C78.0723 41.9318 78.3933 41.8636 78.7399 41.8636C78.9956 41.8636 79.2143 41.8849 79.3961 41.9276C79.5779 41.9673 79.7129 42.0043 79.801 42.0384L79.5027 43.0696C79.443 43.0526 79.3663 43.0327 79.2725 43.0099C79.1788 42.9844 79.0652 42.9716 78.9316 42.9716C78.622 42.9716 78.4004 43.0483 78.2669 43.2017C78.1362 43.3551 78.0708 43.5767 78.0708 43.8665V51H76.7967ZM80.796 51V44.4545H82.0701V51H80.796ZM81.4395 43.4446C81.2179 43.4446 81.0275 43.3707 80.8684 43.223C80.7122 43.0724 80.6341 42.8935 80.6341 42.6861C80.6341 42.4759 80.7122 42.2969 80.8684 42.1491C81.0275 41.9986 81.2179 41.9233 81.4395 41.9233C81.661 41.9233 81.85 41.9986 82.0062 42.1491C82.1653 42.2969 82.2449 42.4759 82.2449 42.6861C82.2449 42.8935 82.1653 43.0724 82.0062 43.223C81.85 43.3707 81.661 43.4446 81.4395 43.4446ZM85.0584 42.2727V51H83.7843V42.2727H85.0584Z" fill="#787777"/>
<path d="M72 16.5028C72.0009 13.7585 71.317 11.0574 70.0105 8.64402C68.7039 6.23064 66.8158 4.18127 64.5172 2.68153C62.2187 1.18178 59.5822 0.279035 56.8467 0.0550477C54.1112 -0.16894 51.363 0.292908 48.851 1.39876C46.3391 2.50462 44.1427 4.21954 42.4608 6.38822C40.7789 8.5569 39.6647 11.1108 39.219 13.8187C38.7733 16.5265 39.0103 19.3028 39.9084 21.896C40.8065 24.4892 42.3374 26.8174 44.3625 28.6698L44.5687 28.8601C47.5852 31.5276 51.4731 33 55.5 33C59.5269 33 63.4148 31.5276 66.4312 28.8601L66.6375 28.6698C68.3289 27.1265 69.6796 25.2472 70.603 23.1521C71.5264 21.0571 72.0022 18.7923 72 16.5028V16.5028ZM41.5385 16.5028C41.5376 14.2419 42.086 12.0146 43.1365 10.0125C44.187 8.01042 45.7082 6.29339 47.5691 5.00909C49.4301 3.72478 51.5753 2.91165 53.8201 2.6396C56.0649 2.36755 58.3422 2.64474 60.4561 3.44732C62.5701 4.24991 64.4574 5.55387 65.9559 7.24707C67.4544 8.94028 68.5191 10.9721 69.0585 13.1677C69.5979 15.3633 69.5958 17.6571 69.0525 19.8518C68.5092 22.0464 67.4409 24.0763 65.9394 25.7668C64.5242 23.7148 62.5306 22.13 60.212 21.2141C61.4556 20.2348 62.363 18.8924 62.8081 17.3735C63.2532 15.8547 63.2139 14.2349 62.6956 12.7394C62.1773 11.2439 61.2058 9.94707 59.9162 9.02924C58.6266 8.11141 57.083 7.6182 55.5 7.6182C53.917 7.6182 52.3734 8.11141 51.0838 9.02924C49.7942 9.94707 48.8227 11.2439 48.3044 12.7394C47.7861 14.2349 47.7468 15.8547 48.1919 17.3735C48.637 18.8924 49.5444 20.2348 50.788 21.2141C48.4694 22.13 46.4758 23.7148 45.0606 25.7668C42.7876 23.2166 41.5338 19.9187 41.5385 16.5028V16.5028ZM50.4231 15.2338C50.4231 14.2298 50.7208 13.2484 51.2787 12.4136C51.8366 11.5788 52.6295 10.9282 53.5571 10.544C54.4848 10.1598 55.5056 10.0593 56.4905 10.2551C57.4753 10.451 58.3799 10.9345 59.0899 11.6444C59.7999 12.3543 60.2835 13.2588 60.4794 14.2435C60.6753 15.2281 60.5747 16.2488 60.1905 17.1763C59.8062 18.1039 59.1555 18.8967 58.3206 19.4545C57.4857 20.0122 56.5041 20.3099 55.5 20.3099C54.1548 20.3058 52.8659 19.7696 51.9147 18.8185C50.9635 17.8675 50.4273 16.5788 50.4231 15.2338V15.2338ZM46.9486 27.5276C47.867 26.0932 49.1317 24.9129 50.6261 24.0953C52.1205 23.2778 53.7965 22.8493 55.5 22.8493C57.2035 22.8493 58.8795 23.2778 60.3739 24.0953C61.8683 24.9129 63.133 26.0932 64.0514 27.5276C61.6064 29.4288 58.5974 30.461 55.5 30.461C52.4026 30.461 49.3936 29.4288 46.9486 27.5276V27.5276Z" fill="#787777"/>
</svg>
